<svg width="173" height="71" viewBox="0 0 173 71" fill="none" xmlns="http://www.w3.org/2000/svg">
<path d="M8.58192 25.9231C8.58192 24.6202 8.12718 23.6927 7.21365 23.1424C6.30013 22.5922 5.0026 22.3171 3.27661 22.3171V17.5025C4.13354 17.5025 4.89347 17.4436 5.55638 17.3207C6.23344 17.1861 6.79934 16.9768 7.2561 16.6958C7.71084 16.4011 8.05038 16.0238 8.27168 15.5678C8.50613 15.1109 8.61021 14.5607 8.58293 13.9152V7.50884C8.58293 6.51449 8.7143 5.6685 8.98714 4.9699C9.24948 4.25781 9.74466 3.64898 10.3968 3.23665C11.088 2.77976 12.0198 2.44372 13.196 2.22952C14.3723 2.01533 15.8638 1.90724 17.6727 1.90724V6.4408C17.1199 6.45455 16.6157 6.50172 16.1599 6.58229C15.7173 6.66286 15.3384 6.81024 15.02 7.02444C14.7169 7.22587 14.4814 7.50786 14.3157 7.86945C14.15 8.23103 14.0671 8.70266 14.0671 9.28041V15.3055C13.9842 17.8179 12.3674 19.3085 9.21653 19.7791V20.0208C10.8051 20.2488 12.0208 20.7332 12.8545 21.4721C13.6882 22.211 14.0974 23.2112 14.0671 24.4748V30.4999C14.0671 31.0776 14.15 31.5473 14.3157 31.9108C14.4814 32.2744 14.7159 32.5554 15.02 32.7558C15.3373 32.972 15.7274 33.1194 16.1599 33.198C16.6597 33.2829 17.1654 33.3302 17.6727 33.3395V37.8937C15.8537 37.8937 14.3703 37.7954 13.196 37.5714C12.0218 37.3474 11.0891 37.0212 10.3968 36.5643C9.74466 36.1519 9.24948 35.5431 8.98714 34.831C8.7244 34.1187 8.58293 33.2658 8.58293 32.2714V25.9241M20.3759 28.4827C20.3759 27.8509 20.4769 27.3203 20.6457 26.8909C20.8478 26.4488 21.1004 26.0921 21.4339 25.8229C21.7674 25.5536 22.1413 25.3591 22.594 25.2382C23.0598 25.1142 23.5409 25.053 24.0239 25.0565C24.4865 25.0537 24.9472 25.1149 25.3922 25.2382C25.8338 25.3591 26.2208 25.5527 26.5523 25.8229C26.8837 26.0931 27.1465 26.4478 27.3405 26.8909C27.5426 27.3213 27.6305 27.8519 27.6305 28.4827C27.6305 29.0869 27.5335 29.6048 27.3405 30.0351C27.1475 30.4655 26.8857 30.8212 26.5523 31.1032C26.2173 31.3869 25.8207 31.5935 25.3922 31.7074C24.9637 31.8421 24.5079 31.9089 24.0239 31.9089C23.5126 31.9089 23.0356 31.8421 22.594 31.7074C22.1654 31.5935 21.7689 31.3869 21.4339 31.1032C21.0931 30.8083 20.8239 30.4435 20.6457 30.0351C20.4658 29.6057 20.3759 29.0879 20.3759 28.4827ZM32.0667 41.2875C31.3804 41.2856 30.6951 41.2384 30.0154 41.146C29.311 41.0516 28.7239 40.9298 28.254 40.7824V35.9462C28.6459 36.0721 29.0478 36.1664 29.4555 36.2282C29.8294 36.295 30.2498 36.3285 30.7187 36.3285C31.0506 36.3305 31.3803 36.276 31.6928 36.1673C32.0136 36.0713 32.296 35.8811 32.5013 35.623C32.7357 35.3675 32.9227 35.0187 33.0611 34.5756C33.1996 34.1462 33.2683 33.5881 33.2683 32.9032V8.83531H39.5892V33.7925C39.5892 34.8271 39.4507 35.7939 39.185 36.694C38.9222 37.6077 38.4776 38.3997 37.8793 39.0718C37.2851 39.7566 36.5111 40.2941 35.5581 40.6832C34.6052 41.0723 33.4441 41.2678 32.0769 41.2678M33.0096 3.0028C33.0096 2.42505 33.1106 1.94851 33.2794 1.57219C33.441 1.21105 33.6899 0.893198 34.005 0.645631C34.3286 0.401189 34.7036 0.229089 35.1034 0.141574C35.5456 0.0457892 35.9974 -0.00166824 36.4504 8.4999e-05C36.8968 -0.00229173 37.342 0.0451824 37.7773 0.141574C38.1815 0.235901 38.5513 0.40392 38.8545 0.645631C39.1718 0.873586 39.4204 1.18309 39.6003 1.57219C39.8024 1.94851 39.8903 2.42505 39.8903 3.0028C39.8903 3.56679 39.7933 4.04432 39.6003 4.43342C39.4204 4.82349 39.1718 5.1389 38.8545 5.38061C38.5513 5.60856 38.1916 5.77658 37.7773 5.88467C37.3731 5.97899 36.9203 6.02615 36.4515 6.02615C35.9984 6.02783 35.5466 5.98037 35.1044 5.88467C34.7087 5.78584 34.336 5.61479 34.006 5.38061C33.7028 5.1389 33.4603 4.82349 33.2804 4.43342C33.1005 4.04334 33.0106 3.56679 33.0106 3.0028M61.5481 24.6743C61.5481 25.8563 61.3258 26.8909 60.8852 27.7772C60.4514 28.6542 59.8041 29.415 58.9995 29.9939C58.184 30.5834 57.1967 31.0285 56.0356 31.3233C54.8745 31.618 53.576 31.7654 52.14 31.7654C51.3801 31.7654 50.6747 31.7389 50.026 31.6848C49.407 31.6489 48.791 31.5747 48.1817 31.4628L46.5043 31.0698C45.9462 30.9015 45.3995 30.6997 44.8672 30.4655V25.3699C45.4472 25.6519 46.0556 25.9074 46.6912 26.1363L48.6183 26.7406L50.4625 27.1336C51.0709 27.2279 51.6297 27.2751 52.14 27.2751C52.7059 27.2751 53.191 27.2279 53.5911 27.1336C53.9408 27.055 54.2716 26.9116 54.5653 26.7111C54.8068 26.5477 54.9999 26.3254 55.1251 26.0665C55.2494 25.8111 55.3121 25.5428 55.3121 25.2608C55.3121 24.9788 55.2636 24.7303 55.1666 24.5141C55.0837 24.2861 54.8836 24.0503 54.5653 23.8086C54.248 23.5531 53.7771 23.2711 53.1556 22.9636L50.6899 21.7845L48.0585 20.4748C47.3258 20.0326 46.7185 19.5413 46.2344 19.0039C45.7645 18.4664 45.4129 17.8543 45.1774 17.1704C44.942 16.4865 44.8237 15.6455 44.8237 14.6924C44.8237 13.645 45.0309 12.7312 45.4452 11.9412C45.8494 11.1483 46.4558 10.4899 47.2066 9.97607C47.9574 9.46218 48.878 9.06228 49.9421 8.79699C51.0193 8.52875 52.2158 8.40396 53.5275 8.40396C54.9089 8.40396 56.2216 8.55822 57.4645 8.86773C58.7075 9.17724 59.9858 9.64003 61.2985 10.2581L59.3815 14.66C58.4051 14.2054 57.4015 13.8084 56.3762 13.471C55.4232 13.1625 54.4693 13.0073 53.5164 13.0073C52.6594 13.0073 52.0379 13.1547 51.6509 13.4494C51.277 13.7442 51.0911 14.1372 51.0911 14.658C51.0911 14.9262 51.1396 15.1689 51.2366 15.3831C51.3336 15.5845 51.5266 15.7997 51.8166 16.0277C52.1067 16.2438 52.524 16.4846 53.0293 16.7528L55.0807 17.7L57.7333 18.9479C58.5215 19.3409 59.1986 19.8145 59.7544 20.3382C60.3102 20.8619 60.7649 21.4731 61.06 22.1717C61.3551 22.8703 61.5147 23.7162 61.5147 24.7106M72.7953 32.2705C72.7953 33.2648 72.664 34.1177 72.3911 34.83C72.1183 35.5424 71.6534 36.1201 70.9612 36.5633C70.2842 37.0202 69.3585 37.3562 68.1843 37.5704C67.01 37.7846 65.5165 37.8927 63.7076 37.8927V33.3287C64.2082 33.3198 64.7072 33.2725 65.2002 33.1872C65.6418 33.1066 66.0157 32.9592 66.3188 32.745C66.641 32.5386 66.8934 32.2443 67.0444 31.899C67.2243 31.5355 67.3142 31.0658 67.3142 30.4881V24.463C67.2738 23.2004 67.6729 22.1992 68.5268 21.4603C69.3807 20.7214 70.5782 20.238 72.1648 20.009V19.7673C69.0281 19.2957 67.4193 17.8061 67.3364 15.2937V9.26862C67.3364 8.69087 67.2354 8.2212 67.0666 7.85765C66.9157 7.51238 66.6633 7.21809 66.3411 7.01167C66.0379 6.7955 65.664 6.64812 65.2224 6.56951C64.7294 6.48498 64.2304 6.43767 63.7298 6.42802V1.89447C65.5488 1.89447 67.0323 1.99273 68.2065 2.21675C69.3807 2.44078 70.3064 2.76699 70.9835 3.22388C71.6747 3.66603 72.1506 4.24575 72.4134 4.95712C72.6761 5.64492 72.8176 6.50172 72.8176 7.49607V13.9024C72.8034 14.547 72.9186 15.0982 73.1288 15.5551C73.339 16.012 73.6887 16.3883 74.1444 16.6831C74.5991 16.965 75.16 17.1743 75.8219 17.308C76.499 17.4288 77.267 17.4897 78.1219 17.4897V22.3043C76.404 22.3043 75.0751 22.5794 74.1636 23.1297C73.2541 23.6799 72.8166 24.6074 72.8166 25.9103V32.2577" fill="#555588"/>
<path d="M2.37635 69.1137C2.07319 69.1137 1.81045 69.0941 1.58611 69.0528C1.36076 69.0184 1.16573 68.9693 1 68.9054V67.522C1.21325 67.5762 1.42999 67.6166 1.64876 67.6428C1.89564 67.6785 2.14495 67.6959 2.39454 67.6949C2.61644 67.6942 2.83729 67.6652 3.05139 67.6084C3.27373 67.558 3.48075 67.4573 3.65569 67.3146C3.8396 67.1702 3.98714 66.9707 4.10032 66.7192C4.2135 66.4677 4.26908 66.1434 4.26908 65.7524V53.1274H5.9304V65.5804C5.9304 66.1847 5.84147 66.7084 5.66362 67.1525C5.51064 67.5676 5.26132 67.9428 4.93502 68.2491C4.61942 68.5471 4.23625 68.7689 3.81636 68.8966C3.38385 69.041 2.7937 69.1127 2.26721 69.1127M14.1844 64.4406H14.1137C13.9362 64.6794 13.7402 64.9048 13.5276 65.1147C13.3372 65.2954 13.122 65.4495 12.8879 65.5726C12.6448 65.6975 12.3844 65.7879 12.1149 65.8408C11.8299 65.8997 11.5025 65.9273 11.1286 65.9273C10.7203 65.9273 10.3444 65.8683 10.0008 65.7543C9.66453 65.655 9.35708 65.48 9.10348 65.2434C8.85489 65.0076 8.65884 64.7128 8.51737 64.363C8.37589 64.0063 8.31526 63.577 8.31526 63.1024C8.31526 62.1591 8.65581 61.432 9.3258 60.926C10.013 60.419 11.0437 60.1429 12.4524 60.0967L14.0864 60.0358V59.4404C14.0864 59.0542 14.042 58.7329 13.953 58.4735C13.8702 58.2141 13.7459 58.0068 13.5791 57.8516C13.4127 57.6863 13.2042 57.567 12.9748 57.5057C12.7089 57.4331 12.4335 57.3984 12.1573 57.4025C11.6901 57.3989 11.2254 57.4686 10.781 57.6089C10.3631 57.7461 9.95639 57.9136 9.56428 58.11L8.99636 56.927C9.43493 56.697 9.92302 56.5005 10.4616 56.3394C11.0116 56.1767 11.5835 56.0952 12.1583 56.0977C12.7626 56.0977 13.2831 56.1586 13.7216 56.2795C14.1663 56.3944 14.5301 56.5821 14.813 56.8395C15.1109 57.106 15.3342 57.4417 15.4618 57.8152C15.6053 58.2112 15.6639 58.6936 15.6639 59.2576V65.7534H14.5078L14.1844 64.4406ZM11.5571 64.6519C11.8989 64.6549 12.2385 64.5994 12.5605 64.4878C12.8609 64.3838 13.1337 64.216 13.3588 63.9965C13.5842 63.7725 13.759 63.4925 13.8843 63.1594C14.0157 62.8194 14.0794 62.4225 14.0794 61.9675V61.1127L12.8091 61.1736C12.2766 61.1962 11.8289 61.2542 11.4681 61.3465C11.1074 61.4389 10.8163 61.5686 10.5991 61.7356C10.397 61.8968 10.2322 62.0953 10.1373 62.3311C10.0386 62.5818 9.99022 62.8487 9.99477 63.1171C9.99477 63.6477 10.1362 64.0358 10.4212 64.2834C10.7112 64.531 11.0902 64.6548 11.5581 64.6548M17.0352 56.2716H18.7046L20.473 61.548L20.7054 62.282L20.9722 63.1977L21.2117 64.0781L21.3633 64.7089H21.4259L21.5775 64.0781L21.817 63.1977L22.0838 62.282L22.3162 61.548L24.0847 56.2716H25.7541L22.4153 65.7534H20.3639L17.0352 56.2716ZM32.3518 64.4406H32.2811C32.1036 64.6794 31.9076 64.9048 31.695 65.1147C31.3043 65.4819 30.8144 65.7337 30.2823 65.8408C29.9973 65.8997 29.6699 65.9273 29.296 65.9273C28.8877 65.9273 28.5118 65.8683 28.1682 65.7543C27.8319 65.655 27.5245 65.48 27.2709 65.2434C27.0223 65.0076 26.8262 64.7128 26.6848 64.363C26.5433 64.0063 26.4827 63.577 26.4827 63.1024C26.4827 62.1591 26.8232 61.432 27.4932 60.926C28.1804 60.419 29.2111 60.1429 30.6198 60.0967L32.2538 60.0358V59.4404C32.2538 59.0542 32.2094 58.7329 32.1204 58.4735C32.0376 58.2141 31.9133 58.0068 31.7465 57.8516C31.5801 57.6863 31.3716 57.567 31.1422 57.5057C30.8763 57.4331 30.6009 57.3984 30.3247 57.4025C29.8575 57.3989 29.3928 57.4686 28.9484 57.6089C28.5305 57.7461 28.1238 57.9136 27.7317 58.11L27.1638 56.927C27.6023 56.697 28.0904 56.5005 28.629 56.3394C29.1793 56.1766 29.7516 56.0951 30.3267 56.0977C30.931 56.0977 31.4515 56.1586 31.89 56.2795C32.3347 56.3944 32.6985 56.5821 32.9814 56.8395C33.2793 57.106 33.5026 57.4417 33.6302 57.8152C33.7737 58.2112 33.8323 58.6936 33.8323 59.2576V65.7534H32.6702L32.3518 64.4406ZM29.7244 64.6568C30.0663 64.6598 30.4059 64.6043 30.7279 64.4927C31.0283 64.3888 31.301 64.2209 31.5262 64.0014C31.7516 63.7755 31.9264 63.4974 32.0517 63.1643C32.1831 62.8243 32.2467 62.4274 32.2467 61.9724V61.1176L30.9765 61.1785C30.444 61.2011 29.9963 61.2591 29.6355 61.3515C29.2748 61.4438 28.9837 61.5735 28.7665 61.7406C28.5644 61.9017 28.3996 62.1002 28.3046 62.336C28.206 62.5868 28.1576 62.8536 28.1622 63.122C28.1622 63.6526 28.3036 64.0407 28.5886 64.2883C28.8786 64.536 29.2576 64.6598 29.7255 64.6598M43.8052 62.3773C43.8052 62.9354 43.7012 63.4365 43.494 63.8806C43.2971 64.3128 42.9992 64.6943 42.6239 64.9948C42.245 65.2896 41.7832 65.5333 41.2395 65.6944C40.6938 65.8496 40.0814 65.9273 39.4003 65.9273C38.781 65.9303 38.1627 65.8784 37.5531 65.772C36.9841 65.6738 36.5082 65.5264 36.1232 65.3318V63.7951L36.8073 64.0702L37.6157 64.3031L38.4949 64.476C38.7923 64.5156 39.0921 64.536 39.3922 64.5369C40.3391 64.5369 41.0394 64.364 41.4881 64.0191C41.9428 63.6733 42.1722 63.179 42.1722 62.5335C42.178 62.2574 42.1329 61.9825 42.0388 61.7219C41.956 61.492 41.8064 61.2817 41.5861 61.0911C41.384 60.8946 41.0859 60.6981 40.7241 60.531C40.2807 60.306 39.8238 60.1072 39.3559 59.9356C38.8777 59.7574 38.4171 59.5377 37.9795 59.2792C37.5955 59.0375 37.2752 58.7663 37.0195 58.4676C36.7709 58.1679 36.585 57.829 36.4597 57.4487C36.3414 57.0685 36.2818 56.6371 36.2818 56.1537C36.2818 55.6467 36.3768 55.1957 36.5648 54.7978C36.7479 54.4081 37.0215 54.065 37.3641 53.7955C37.7263 53.5093 38.1428 53.295 38.5899 53.1647C39.0699 53.0213 39.5964 52.9486 40.1703 52.9486C40.8747 52.9486 41.5083 53.0144 42.0702 53.147C42.633 53.2748 43.1332 53.4379 43.5708 53.6383L42.9645 54.9844C42.5805 54.8174 42.1419 54.6739 41.6508 54.5521C41.1583 54.4247 40.6507 54.3609 40.141 54.3625C39.4185 54.3625 38.8577 54.5266 38.4636 54.8538C38.2666 55.0134 38.1096 55.2146 38.0045 55.442C37.8994 55.6695 37.8491 55.9172 37.8572 56.1665C37.8572 56.4946 37.9017 56.7796 37.9906 57.0213C38.086 57.2671 38.2377 57.4885 38.4342 57.6688C38.6414 57.8584 38.9143 58.0402 39.2427 58.2131C39.5863 58.3802 40.0066 58.559 40.5038 58.7486C40.9885 58.9308 41.4601 59.1442 41.9155 59.3873C42.2928 59.5832 42.6373 59.8337 42.9372 60.1301C43.209 60.4039 43.4177 60.7308 43.5496 61.0891C43.6911 61.4527 43.7668 61.8968 43.7668 62.392M49.7826 65.9263C49.1843 65.9263 48.6245 65.828 48.1051 65.658C47.5885 65.4776 47.1229 65.1813 46.7459 64.7934C46.3619 64.3964 46.0587 63.8924 45.8405 63.2822C45.6212 62.6661 45.512 61.9263 45.512 61.0616C45.512 60.1576 45.6131 59.3912 45.8496 58.7644C46.0749 58.1306 46.3821 57.6187 46.7732 57.2276C47.1588 56.8382 47.633 56.542 48.1576 56.363C48.6831 56.1832 49.249 56.0947 49.8553 56.0947C50.3096 56.0939 50.7625 56.143 51.2054 56.2411C51.589 56.319 51.9618 56.4407 52.316 56.6037L51.836 57.9341C51.6995 57.8751 51.549 57.8221 51.3832 57.77C51.2175 57.7125 51.0489 57.6633 50.878 57.6226C50.7001 57.5764 50.5243 57.5421 50.3525 57.5195C50.1913 57.4917 50.0281 57.4773 49.8644 57.4762C48.9347 57.4762 48.2476 57.7671 47.8302 58.3487C47.4038 58.9245 47.1905 59.8226 47.1905 61.0429C47.1905 62.2574 47.3926 63.1476 47.8302 63.7116C48.2627 64.2697 48.9165 64.5487 49.7927 64.5487C50.23 64.5538 50.6661 64.5016 51.0892 64.3935C51.454 64.2934 51.8104 64.1662 52.1553 64.0132V65.4124C51.8301 65.5821 51.4836 65.7099 51.1245 65.7927C50.7638 65.8791 50.2959 65.9223 49.7684 65.9223M58.6308 56.0987L59.2068 56.1242C59.3916 56.1325 59.5756 56.1528 59.7575 56.1851L59.5554 57.6364L59.0502 57.5676C58.8784 57.544 58.7167 57.5332 58.5621 57.5332C58.1882 57.5332 57.8486 57.6079 57.5515 57.7572C57.2388 57.905 56.9653 58.1209 56.7522 58.388C56.5196 58.6812 56.348 59.0156 56.2469 59.3726C56.1239 59.7849 56.0639 60.2127 56.0691 60.642V65.7534H54.4522V56.2716H55.7659L55.961 58.0078H56.0317L56.5026 57.2905C56.6668 57.0678 56.8578 56.8649 57.0715 56.6862C57.2831 56.5085 57.5231 56.3655 57.782 56.2628C58.0731 56.1501 58.3842 56.0944 58.6975 56.0987M63.1651 65.7534H61.5482V56.2716H63.1651V65.7534ZM61.6897 52.9554C61.8769 52.7986 62.1177 52.7156 62.3647 52.7226C62.4888 52.721 62.6121 52.7416 62.7285 52.7835C62.8426 52.8156 62.9465 52.875 63.0307 52.9564C63.123 53.0427 63.193 53.1492 63.2348 53.2669C63.2884 53.3878 63.3156 53.5352 63.3156 53.7071C63.3156 54.0412 63.2206 54.2917 63.0327 54.4588C62.8488 54.6199 62.6285 54.7005 62.3657 54.7005C62.103 54.7005 61.8675 54.5796 61.6836 54.4175C61.5058 54.2564 61.4209 54.0048 61.4229 53.6865C61.4239 53.3622 61.523 53.1107 61.6897 52.9554ZM70.5874 65.9253C70.2671 65.9289 69.9477 65.8912 69.6375 65.8133C69.3546 65.7386 69.0959 65.6404 68.8645 65.5185C68.6453 65.3963 68.4424 65.2485 68.2602 65.0783C68.0918 64.9152 67.9374 64.7391 67.7984 64.5517H67.6923L67.7458 65.1117L67.7812 65.5785L67.7994 65.9499V70H66.1825V56.2716H67.4962L67.7286 57.5489H67.7994C67.9349 57.3483 68.0896 57.1605 68.2612 56.9879C68.4353 56.8075 68.6358 56.6532 68.8564 56.53C69.0985 56.3932 69.3586 56.2887 69.6295 56.2195C69.9416 56.1353 70.2645 56.0947 70.5885 56.0987C71.1442 56.0987 71.6515 56.2018 72.1073 56.4092C72.563 56.6165 72.9511 56.927 73.2694 57.3426C73.5948 57.7513 73.8454 58.2613 74.0243 58.8715C74.2031 59.4816 74.2911 60.1901 74.2911 60.9958C74.2911 61.8074 74.2021 62.5217 74.0243 63.1378C73.8464 63.747 73.5948 64.2608 73.2694 64.6745C72.9501 65.0891 72.562 65.4016 72.1073 65.6158C71.6525 65.8123 71.0331 65.9263 70.4763 65.9263M70.2772 57.4025C69.8275 57.4025 69.4455 57.4684 69.1313 57.601C68.823 57.7337 68.5714 57.9351 68.3764 58.2053C68.1814 58.4755 68.0449 58.8125 67.9499 59.2154C67.854 59.6846 67.8036 60.1616 67.7994 60.6401V60.9938C67.7947 61.5141 67.8332 62.0339 67.9146 62.5482C67.9974 62.9973 68.1339 63.3775 68.3228 63.688C68.5099 63.9856 68.7772 64.2275 69.0959 64.3876C69.4152 64.5428 69.8154 64.6205 70.2954 64.6205C71.1038 64.6205 71.6798 64.306 72.0537 63.6792C72.4276 63.0523 72.6217 62.1503 72.6227 60.9771C72.6227 59.7784 72.4327 58.8842 72.0547 58.2918C71.6768 57.6993 71.0887 57.4025 70.2772 57.4025ZM79.6762 64.6391C79.7823 64.6391 79.9015 64.6293 80.0319 64.6214L80.423 64.5782L80.7605 64.5173L81 64.4564V65.6482C80.9232 65.6826 80.8252 65.717 80.6968 65.7514C80.5684 65.7878 80.4378 65.8167 80.3058 65.8378C80.1643 65.8673 80.0157 65.887 79.8611 65.8988C79.7109 65.9159 79.5597 65.9245 79.4084 65.9243C79.0416 65.9243 78.701 65.8781 78.3979 65.7868C78.0887 65.6972 77.8074 65.5341 77.5793 65.3122C77.354 65.0862 77.1771 64.7855 77.0468 64.4053C76.9154 64.0191 76.8517 63.5357 76.8517 62.954V57.4517H75.4754V56.7521L76.8517 56.078L77.545 54.0913H78.4777V56.2677H80.9505V57.4507H78.4989V62.953C78.4989 63.5111 78.6 63.9317 78.7738 64.2137C78.9476 64.4957 79.271 64.6362 79.6974 64.6362" fill="black"/>
<path d="M2.37635 69.1137C2.07319 69.1137 1.81045 69.0941 1.58611 69.0528C1.36076 69.0184 1.16573 68.9693 1 68.9054V67.522C1.21325 67.5762 1.42999 67.6166 1.64876 67.6428C1.89564 67.6785 2.14495 67.6959 2.39454 67.6949C2.61644 67.6942 2.83729 67.6652 3.05139 67.6084C3.27373 67.558 3.48075 67.4573 3.65569 67.3146C3.8396 67.1702 3.98714 66.9707 4.10032 66.7192C4.2135 66.4677 4.26908 66.1434 4.26908 65.7524V53.1274H5.9304V65.5804C5.9304 66.1847 5.84147 66.7084 5.66362 67.1525C5.51064 67.5676 5.26132 67.9428 4.93502 68.2491C4.61942 68.5471 4.23625 68.7689 3.81636 68.8966C3.38385 69.041 2.7937 69.1127 2.26721 69.1127M11.5571 64.6519C11.8989 64.6549 12.2385 64.5994 12.5605 64.4878C12.8609 64.3838 13.1337 64.216 13.3588 63.9965C13.5842 63.7725 13.759 63.4925 13.8843 63.1594C14.0157 62.8194 14.0794 62.4225 14.0794 61.9675V61.1127L12.8091 61.1736C12.2766 61.1962 11.8289 61.2542 11.4681 61.3465C11.1074 61.4389 10.8163 61.5686 10.5991 61.7356C10.397 61.8968 10.2322 62.0953 10.1373 62.3311C10.0386 62.5818 9.99022 62.8487 9.99477 63.1171C9.99477 63.6477 10.1362 64.0358 10.4212 64.2834C10.7112 64.531 11.0902 64.6548 11.5581 64.6548M29.7244 64.6568C30.0663 64.6598 30.4059 64.6043 30.7279 64.4927C31.0283 64.3888 31.301 64.2209 31.5262 64.0014C31.7516 63.7755 31.9264 63.4974 32.0517 63.1643C32.1831 62.8243 32.2467 62.4274 32.2467 61.9724V61.1176L30.9765 61.1785C30.444 61.2011 29.9963 61.2591 29.6355 61.3515C29.2748 61.4438 28.9837 61.5735 28.7665 61.7406C28.5644 61.9017 28.3996 62.1002 28.3046 62.336C28.206 62.5868 28.1576 62.8536 28.1622 63.122C28.1622 63.6526 28.3036 64.0407 28.5886 64.2883C28.8786 64.536 29.2576 64.6598 29.7255 64.6598M43.8052 62.3773C43.8052 62.9354 43.7012 63.4365 43.494 63.8806C43.2971 64.3128 42.9992 64.6943 42.6239 64.9948C42.245 65.2896 41.7832 65.5333 41.2395 65.6944C40.6938 65.8496 40.0814 65.9273 39.4003 65.9273C38.781 65.9303 38.1627 65.8784 37.5531 65.772C36.9841 65.6738 36.5082 65.5264 36.1232 65.3318V63.7951L36.8073 64.0702L37.6157 64.3031L38.4949 64.476C38.7923 64.5156 39.0921 64.536 39.3922 64.5369C40.3391 64.5369 41.0394 64.364 41.4881 64.0191C41.9428 63.6733 42.1722 63.179 42.1722 62.5335C42.178 62.2574 42.1329 61.9825 42.0388 61.7219C41.956 61.492 41.8064 61.2817 41.5861 61.0911C41.384 60.8946 41.0859 60.6981 40.7241 60.531C40.2807 60.306 39.8238 60.1072 39.3559 59.9356C38.8777 59.7574 38.4171 59.5377 37.9795 59.2792C37.5955 59.0375 37.2752 58.7663 37.0195 58.4676C36.7709 58.1679 36.585 57.829 36.4597 57.4487C36.3414 57.0685 36.2818 56.6371 36.2818 56.1537C36.2818 55.6467 36.3768 55.1957 36.5648 54.7978C36.7479 54.4081 37.0215 54.065 37.3641 53.7955C37.7263 53.5093 38.1428 53.295 38.5899 53.1647C39.0699 53.0213 39.5964 52.9486 40.1703 52.9486C40.8747 52.9486 41.5083 53.0144 42.0702 53.147C42.633 53.2748 43.1332 53.4379 43.5708 53.6383L42.9645 54.9844C42.5805 54.8174 42.1419 54.6739 41.6508 54.5521C41.1583 54.4247 40.6507 54.3609 40.141 54.3625C39.4185 54.3625 38.8577 54.5266 38.4636 54.8538C38.2666 55.0134 38.1096 55.2146 38.0045 55.442C37.8994 55.6695 37.8491 55.9172 37.8572 56.1665C37.8572 56.4946 37.9017 56.7796 37.9906 57.0213C38.086 57.2671 38.2377 57.4885 38.4342 57.6688C38.6414 57.8584 38.9143 58.0402 39.2427 58.2131C39.5863 58.3802 40.0066 58.559 40.5038 58.7486C40.9885 58.9308 41.4601 59.1442 41.9155 59.3873C42.2928 59.5832 42.6373 59.8337 42.9372 60.1301C43.209 60.4039 43.4177 60.7308 43.5496 61.0891C43.6911 61.4527 43.7668 61.8968 43.7668 62.392M49.7826 65.9263C49.1843 65.9263 48.6245 65.828 48.1051 65.658C47.5885 65.4776 47.1229 65.1813 46.7459 64.7934C46.3619 64.3964 46.0587 63.8924 45.8405 63.2822C45.6212 62.6661 45.512 61.9263 45.512 61.0616C45.512 60.1576 45.6131 59.3912 45.8496 58.7644C46.0749 58.1306 46.3821 57.6187 46.7732 57.2276C47.1588 56.8382 47.633 56.542 48.1576 56.363C48.6831 56.1832 49.249 56.0947 49.8553 56.0947C50.3096 56.0939 50.7625 56.143 51.2054 56.2411C51.589 56.319 51.9618 56.4407 52.316 56.6037L51.836 57.9341C51.6995 57.8751 51.549 57.8221 51.3832 57.77C51.2175 57.7125 51.0489 57.6633 50.878 57.6226C50.7001 57.5764 50.5243 57.5421 50.3525 57.5195C50.1913 57.4917 50.0281 57.4773 49.8644 57.4762C48.9347 57.4762 48.2476 57.7671 47.8302 58.3487C47.4038 58.9245 47.1905 59.8226 47.1905 61.0429C47.1905 62.2574 47.3926 63.1476 47.8302 63.7116C48.2627 64.2697 48.9165 64.5487 49.7927 64.5487C50.23 64.5538 50.6661 64.5016 51.0892 64.3935C51.454 64.2934 51.8104 64.1662 52.1553 64.0132V65.4124C51.8301 65.5821 51.4836 65.7099 51.1245 65.7927C50.7638 65.8791 50.2959 65.9223 49.7684 65.9223M58.6308 56.0987L59.2068 56.1242C59.3916 56.1325 59.5756 56.1528 59.7575 56.1851L59.5554 57.6364L59.0502 57.5676C58.8784 57.544 58.7167 57.5332 58.5621 57.5332C58.1882 57.5332 57.8486 57.6079 57.5515 57.7572C57.2388 57.905 56.9653 58.1209 56.7522 58.388C56.5196 58.6812 56.348 59.0156 56.2469 59.3726C56.1239 59.7849 56.0639 60.2127 56.0691 60.642V65.7534H54.4522V56.2716H55.7659L55.961 58.0078H56.0317L56.5026 57.2905C56.6668 57.0678 56.8578 56.8649 57.0715 56.6862C57.2831 56.5085 57.5231 56.3655 57.782 56.2628C58.0731 56.1501 58.3842 56.0944 58.6975 56.0987M70.5874 65.9253C70.2671 65.9289 69.9477 65.8912 69.6375 65.8133C69.3546 65.7386 69.0959 65.6404 68.8645 65.5185C68.6453 65.3963 68.4424 65.2485 68.2602 65.0783C68.0918 64.9152 67.9374 64.7391 67.7984 64.5517H67.6923L67.7458 65.1117L67.7812 65.5785L67.7994 65.9499V70H66.1825V56.2716H67.4962L67.7286 57.5489H67.7994C67.9349 57.3483 68.0896 57.1605 68.2612 56.9879C68.4353 56.8075 68.6358 56.6532 68.8564 56.53C69.0985 56.3932 69.3586 56.2887 69.6295 56.2195C69.9416 56.1353 70.2645 56.0947 70.5885 56.0987C71.1442 56.0987 71.6515 56.2018 72.1073 56.4092C72.563 56.6165 72.9511 56.927 73.2694 57.3426C73.5948 57.7513 73.8454 58.2613 74.0243 58.8715C74.2031 59.4816 74.2911 60.1901 74.2911 60.9958C74.2911 61.8074 74.2021 62.5217 74.0243 63.1378C73.8464 63.747 73.5948 64.2608 73.2694 64.6745C72.9501 65.0891 72.562 65.4016 72.1073 65.6158C71.6525 65.8123 71.0331 65.9263 70.4763 65.9263M79.6762 64.6391C79.7823 64.6391 79.9015 64.6293 80.0319 64.6214L80.423 64.5782L80.7605 64.5173L81 64.4564V65.6482C80.9232 65.6826 80.8252 65.717 80.6968 65.7514C80.5684 65.7878 80.4378 65.8167 80.3058 65.8378C80.1643 65.8673 80.0157 65.887 79.8611 65.8988C79.7109 65.9159 79.5597 65.9245 79.4084 65.9243C79.0416 65.9243 78.701 65.8781 78.3979 65.7868C78.0887 65.6972 77.8074 65.5341 77.5793 65.3122C77.354 65.0862 77.1771 64.7855 77.0468 64.4053C76.9154 64.0191 76.8517 63.5357 76.8517 62.954V57.4517H75.4754V56.7521L76.8517 56.078L77.545 54.0913H78.4777V56.2677H80.9505V57.4507H78.4989V62.953C78.4989 63.5111 78.6 63.9317 78.7738 64.2137C78.9476 64.4957 79.271 64.6362 79.6974 64.6362M14.1844 64.4406H14.1137C13.9362 64.6794 13.7402 64.9048 13.5276 65.1147C13.3372 65.2954 13.122 65.4495 12.8879 65.5726C12.6448 65.6975 12.3844 65.7879 12.1149 65.8408C11.8299 65.8997 11.5025 65.9273 11.1286 65.9273C10.7203 65.9273 10.3444 65.8683 10.0008 65.7543C9.66453 65.655 9.35708 65.48 9.10348 65.2434C8.85489 65.0076 8.65884 64.7128 8.51737 64.363C8.37589 64.0063 8.31526 63.577 8.31526 63.1024C8.31526 62.1591 8.65581 61.432 9.3258 60.926C10.013 60.419 11.0437 60.1429 12.4524 60.0967L14.0864 60.0358V59.4404C14.0864 59.0542 14.042 58.7329 13.953 58.4735C13.8702 58.2141 13.7459 58.0068 13.5791 57.8516C13.4127 57.6863 13.2042 57.567 12.9748 57.5057C12.7089 57.4331 12.4335 57.3984 12.1573 57.4025C11.6901 57.3989 11.2254 57.4686 10.781 57.6089C10.3631 57.7461 9.95639 57.9136 9.56428 58.11L8.99636 56.927C9.43493 56.697 9.92302 56.5005 10.4616 56.3394C11.0116 56.1767 11.5835 56.0952 12.1583 56.0977C12.7626 56.0977 13.2831 56.1586 13.7216 56.2795C14.1663 56.3944 14.5301 56.5821 14.813 56.8395C15.1109 57.106 15.3342 57.4417 15.4618 57.8152C15.6053 58.2112 15.6639 58.6936 15.6639 59.2576V65.7534H14.5078L14.1844 64.4406ZM17.0352 56.2716H18.7046L20.473 61.548L20.7054 62.282L20.9722 63.1977L21.2117 64.0781L21.3633 64.7089H21.4259L21.5775 64.0781L21.817 63.1977L22.0838 62.282L22.3162 61.548L24.0847 56.2716H25.7541L22.4153 65.7534H20.3639L17.0352 56.2716ZM32.3518 64.4406H32.2811C32.1036 64.6794 31.9076 64.9048 31.695 65.1147C31.3043 65.4819 30.8144 65.7337 30.2823 65.8408C29.9973 65.8997 29.6699 65.9273 29.296 65.9273C28.8877 65.9273 28.5118 65.8683 28.1682 65.7543C27.8319 65.655 27.5245 65.48 27.2709 65.2434C27.0223 65.0076 26.8262 64.7128 26.6848 64.363C26.5433 64.0063 26.4827 63.577 26.4827 63.1024C26.4827 62.1591 26.8232 61.432 27.4932 60.926C28.1804 60.419 29.2111 60.1429 30.6198 60.0967L32.2538 60.0358V59.4404C32.2538 59.0542 32.2094 58.7329 32.1204 58.4735C32.0376 58.2141 31.9133 58.0068 31.7465 57.8516C31.5801 57.6863 31.3716 57.567 31.1422 57.5057C30.8763 57.4331 30.6009 57.3984 30.3247 57.4025C29.8575 57.3989 29.3928 57.4686 28.9484 57.6089C28.5305 57.7461 28.1238 57.9136 27.7317 58.11L27.1638 56.927C27.6023 56.697 28.0904 56.5005 28.629 56.3394C29.1793 56.1766 29.7516 56.0951 30.3267 56.0977C30.931 56.0977 31.4515 56.1586 31.89 56.2795C32.3347 56.3944 32.6985 56.5821 32.9814 56.8395C33.2793 57.106 33.5026 57.4417 33.6302 57.8152C33.7737 58.2112 33.8323 58.6936 33.8323 59.2576V65.7534H32.6702L32.3518 64.4406ZM63.1651 65.7534H61.5482V56.2716H63.1651V65.7534ZM61.6897 52.9554C61.8769 52.7986 62.1177 52.7156 62.3647 52.7226C62.4888 52.721 62.6121 52.7416 62.7285 52.7835C62.8426 52.8156 62.9465 52.875 63.0307 52.9564C63.123 53.0427 63.193 53.1492 63.2348 53.2669C63.2884 53.3878 63.3156 53.5352 63.3156 53.7071C63.3156 54.0412 63.2206 54.2917 63.0327 54.4588C62.8488 54.6199 62.6285 54.7005 62.3657 54.7005C62.103 54.7005 61.8675 54.5796 61.6836 54.4175C61.5058 54.2564 61.4209 54.0048 61.4229 53.6865C61.4239 53.3622 61.523 53.1107 61.6897 52.9554ZM70.2772 57.4025C69.8275 57.4025 69.4455 57.4684 69.1313 57.601C68.823 57.7337 68.5714 57.9351 68.3764 58.2053C68.1814 58.4755 68.0449 58.8125 67.9499 59.2154C67.854 59.6846 67.8036 60.1616 67.7994 60.6401V60.9938C67.7947 61.5141 67.8332 62.0339 67.9146 62.5482C67.9974 62.9973 68.1339 63.3775 68.3228 63.688C68.5099 63.9856 68.7772 64.2275 69.0959 64.3876C69.4152 64.5428 69.8154 64.6205 70.2954 64.6205C71.1038 64.6205 71.6798 64.306 72.0537 63.6792C72.4276 63.0523 72.6217 62.1503 72.6227 60.9771C72.6227 59.7784 72.4327 58.8842 72.0547 58.2918C71.6768 57.6993 71.0887 57.4025 70.2772 57.4025Z" stroke="black"/>
<path d="M110.536 10.7077C105.962 16.7296 106.532 24.5637 110.017 30.9548L110.273 31.4104L110.446 31.6985C110.478 31.7546 110.516 31.8099 110.549 31.8644C110.609 31.9657 110.67 32.063 110.722 32.1627L111.055 32.6868L111.246 32.9749L111.633 33.5294L111.806 33.763C111.979 34.0122 112.175 34.2598 112.367 34.5043C112.371 34.5106 112.377 34.5176 112.383 34.5238C112.413 34.5627 112.447 34.6017 112.469 34.6406C112.636 34.8509 112.816 35.058 112.989 35.2636L113.181 35.4879L113.653 36.019L113.833 36.2168C114.048 36.4499 114.267 36.6794 114.491 36.9052L114.505 36.9176C114.514 36.9278 114.522 36.9332 114.531 36.9433C114.748 37.1636 114.971 37.3791 115.2 37.5897L115.414 37.7875L115.949 38.2672L116.167 38.4572C116.407 38.6641 116.651 38.8674 116.898 39.067L117.037 39.176L117.701 39.69L117.977 39.8909L118.531 40.2802L118.827 40.4866L119.674 41.0434C119.695 41.0566 119.714 41.0707 119.736 41.0839C119.935 41.2085 120.137 41.3292 120.34 41.4499L120.601 41.6095L121.547 42.1391L121.808 42.2738L122.518 42.6383C122.648 42.7021 122.781 42.7629 122.911 42.8236L123.418 43.0572L123.535 43.1086L123.743 43.2005L124.548 43.5416L124.719 43.6195C125.029 43.7436 125.342 43.8628 125.657 43.9769L125.886 44.0595L126.772 44.36L126.883 44.3959C127.21 44.4996 127.539 44.5983 127.87 44.6918L128.108 44.7572C128.454 44.8507 128.779 44.962 129.127 45.022C151.25 48.7257 157.678 32.8534 157.678 32.8534C152.28 39.2936 142.701 40.9912 133.624 39.1012C133.28 39.0234 132.947 38.9322 132.611 38.8411L132.358 38.7633C132.031 38.6714 131.705 38.574 131.383 38.4728L131.249 38.4284C130.96 38.335 130.674 38.2376 130.389 38.1364L130.146 38.0492C129.835 37.9364 129.525 37.8186 129.218 37.6956L129.033 37.6208L128.25 37.286L128.025 37.1863C127.821 37.0944 127.619 37.0002 127.419 36.9036L127.014 36.7089C126.77 36.5885 126.528 36.4642 126.289 36.3359L126.044 36.2113C125.725 36.04 125.41 35.8609 125.098 35.6818C125.011 35.6312 124.928 35.5774 124.843 35.526L124.17 35.1164L123.953 34.9763L123.317 34.5557L123.034 34.361L122.46 33.9499L122.204 33.763L121.49 33.2179C121.465 33.1984 121.438 33.1789 121.403 33.1579C121.148 32.9531 120.898 32.7428 120.651 32.5318L120.44 32.3449L119.9 31.8605L119.689 31.6658C119.463 31.4555 119.243 31.2416 119.026 31.0242C119.016 31.0133 119.004 31.0031 118.993 30.993C118.764 30.7632 118.54 30.5295 118.321 30.2921L118.145 30.1006L117.66 29.5531L117.483 29.3506L116.924 28.6693C111.885 22.3732 110.084 13.6902 114.102 6.55853M124.738 5.63339C121.43 9.99433 121.609 15.8302 124.19 20.4419C124.621 21.2162 125.11 21.9637 125.653 22.6792C126.148 23.3294 126.698 24.1043 127.356 24.626C127.594 24.8597 127.844 25.0933 128.098 25.3316C128.162 25.3915 128.228 25.4484 128.294 25.5084C128.541 25.729 128.794 25.9442 129.053 26.1539C129.063 26.1617 129.073 26.1711 129.084 26.1788C129.375 26.4115 129.673 26.6374 129.977 26.8563L130.178 26.9996C130.48 27.2136 130.789 27.4203 131.104 27.6195C131.113 27.6257 131.121 27.6317 131.13 27.6374C131.269 27.7254 131.411 27.8087 131.553 27.8928C131.62 27.9333 131.684 27.9762 131.752 28.0143C131.978 28.1473 132.207 28.2758 132.438 28.3998L132.535 28.4512L133.142 28.7627C133.213 28.7993 133.285 28.8312 133.358 28.8655L133.791 29.0664C133.813 29.0765 133.834 29.0843 133.855 29.0937C134.147 29.226 134.44 29.3506 134.741 29.4714C134.805 29.497 134.871 29.5204 134.937 29.5453C135.177 29.6388 135.419 29.7291 135.664 29.8156L135.976 29.9199C136.197 29.9939 136.419 30.0647 136.643 30.1325L136.944 30.2205C137.262 30.3116 137.576 30.4253 137.908 30.4759C154.988 33.0676 158.932 21.022 158.932 21.022C155.378 25.71 148.495 27.9481 141.148 26.2022C140.823 26.1246 140.5 26.0389 140.181 25.9452C140.083 25.918 139.987 25.8892 139.89 25.8674C139.663 25.8 139.437 25.7288 139.213 25.654L138.908 25.5496C138.663 25.4718 138.42 25.3744 138.18 25.281C138.115 25.2553 138.049 25.2319 137.984 25.2046C137.683 25.0861 137.385 24.9596 137.092 24.8254C136.941 24.7576 136.793 24.6868 136.645 24.6167L136.387 24.4952C136.197 24.4011 136.008 24.3037 135.822 24.2032L135.687 24.1253C135.456 24.0014 135.228 23.8736 135.002 23.7422C134.933 23.7017 134.866 23.6643 134.796 23.616L134.353 23.3474C134.04 23.148 133.732 22.9418 133.43 22.729L133.222 22.5795C130.007 20.2542 127.458 17.077 126.246 13.4737C124.976 9.73579 125.25 5.54228 127.458 2.13842M136.679 1.84249C134.729 4.47151 134.537 7.73599 135.9 10.6391C137.327 13.7206 140.251 16.1386 143.664 17.2841C143.804 17.3324 143.945 17.3752 144.096 17.4188L144.284 17.4733C144.484 17.531 144.684 17.5979 144.891 17.6337C154.323 19.3026 156.881 13.2012 157.562 12.3033C155.321 15.2586 151.555 15.968 146.934 14.9409C146.57 14.8591 146.168 14.7384 145.808 14.6247C145.356 14.4776 144.913 14.3089 144.481 14.1193C143.659 13.7567 142.879 13.3207 142.153 12.818C138.01 9.94449 135.441 4.46373 138.139 0" fill="#0868AC"/>
<path d="M134.626 52.9856H131.7C131.537 52.9856 131.376 53.1025 131.341 53.2457L129.263 61.8952C129.228 62.0377 129.067 62.1545 128.905 62.1545H126.833C124.783 62.1545 125.02 60.8797 125.448 59.133L125.461 59.08L125.709 57.8886L125.816 57.398L126.762 53.2457C126.795 53.1025 126.688 52.9849 126.526 52.9849H123.521C123.438 52.9874 123.358 53.0142 123.294 53.0611C123.23 53.1081 123.184 53.1726 123.164 53.245L121.811 59.0185C121.066 62.0743 121.263 64.9883 125.309 65.0794L125.426 65.0818H131.775C131.938 65.0818 132.098 64.965 132.133 64.8217L134.871 53.245C134.905 53.1017 134.799 52.9849 134.637 52.9849L134.626 52.9856ZM146.305 62.1849C146.468 62.1849 146.565 62.3017 146.542 62.445L146.258 63.6948" fill="#131B28"/>
<path d="M138.475 60.5759C138.472 60.4389 138.645 60.2037 138.808 60.2037L138.443 60.1982C138.27 61.6887 138.475 60.5759 138.475 60.5759ZM146.305 62.1848C146.468 62.1848 146.565 62.3016 146.542 62.4449L146.211 63.898" fill="#131B28"/>
<path d="M140.86 65.2314H140.723H140.877H140.86ZM97.8245 60.6072L98.2791 58.7943L97.7596 60.8658L97.699 61.1259L97.8254 60.6057L97.8245 60.6072ZM103.268 52.9561H100.053C99.9695 52.9591 99.8896 52.9858 99.8247 53.0325C99.7597 53.0791 99.713 53.1432 99.6915 53.2155L99.0818 55.6295C99.0716 55.6608 99.0699 55.6938 99.0769 55.7258C99.0838 55.7577 99.0993 55.7877 99.1219 55.8132C99.1445 55.8386 99.1736 55.8588 99.2067 55.872C99.2399 55.8852 99.276 55.8909 99.3122 55.8889H102.552C102.715 55.8889 102.876 55.772 102.911 55.6295L103.5 53.21C103.534 53.0675 103.431 52.9507 103.266 52.9507L103.268 52.9561ZM93.2282 69.9817L95.8796 70.0004C95.0968 70.0004 93.804 69.9871 93.2273 69.9809L93.2282 69.9817Z" fill="#131B28"/>
<path d="M102.336 56.7206H99.0948C99.0117 56.7236 98.9319 56.7503 98.8669 56.797C98.8019 56.8436 98.7553 56.9078 98.7337 56.98L97.8245 60.6058L97.6981 61.126L96.8321 64.8273C96.7892 65 96.7372 65.1707 96.6763 65.3389C96.6763 65.3389 96.0701 66.9587 95.0535 66.9408L94.0447 66.9237C93.962 66.9258 93.8821 66.9515 93.8167 66.9971C93.7513 67.0428 93.7038 67.106 93.681 67.1775L93.0099 69.7186C92.9993 69.7496 92.9972 69.7825 93.0037 69.8145C93.0102 69.8465 93.0252 69.8765 93.0473 69.9022C93.0695 69.9279 93.0982 69.9483 93.131 69.9619C93.1639 69.9755 93.1998 69.9818 93.2359 69.9802L95.8883 69.9997C98.4306 69.9997 99.7702 68.7327 100.63 65.0882L102.578 56.9893C102.613 56.8468 102.507 56.73 102.345 56.73L102.336 56.7206ZM148.371 65.0827C148.208 65.0827 148.111 64.9659 148.137 64.8226L150.574 54.5542" fill="#131B28"/>
<path d="M148.172 64.9531C148.152 64.8814 148.164 64.7062 148.198 64.5637L149.355 59.6888L148.136 64.823C148.101 64.9663 148.207 65.0831 148.37 65.0831H148.666C148.503 65.0831 148.191 65.0247 148.172 64.9531ZM151.567 65.0247C151.478 65.0558 151.272 65.0831 151.11 65.0831H151.406C151.488 65.0802 151.568 65.0531 151.632 65.0061C151.696 64.959 151.741 64.8945 151.761 64.8222L151.82 64.5621C151.788 64.7054 151.646 64.9928 151.56 65.0247H151.567ZM161.87 55.2422L162.004 55.7406C162.041 55.8831 161.938 55.9991 161.776 55.9999" fill="#131B28"/>
<path d="M152.686 60.6962L152.806 60.1791L153.271 58.2205L152.744 60.4384L152.686 60.6962ZM150.614 54.3853L150.513 54.8136L149.356 59.6885L150.575 54.5542L150.614 54.386V54.3853Z" fill="#131B28"/>
<path d="M162.005 55.7407L161.87 55.2423L161.671 54.4636C161.408 53.5446 160.636 53.0128 158.957 53.0128L151.233 53.0081C151.151 53.0106 151.071 53.0374 151.007 53.0844C150.942 53.1313 150.897 53.1958 150.877 53.2682L150.757 53.7767L150.584 54.5453L148.208 64.5544C148.173 64.6977 148.162 64.8659 148.182 64.9438C148.202 65.0217 148.513 65.0739 148.675 65.0739H151.117C151.28 65.0739 151.485 65.0474 151.575 65.0155C151.664 64.9835 151.795 64.704 151.834 64.5529L152.761 60.4302L153.752 56.2531C153.787 56.1106 153.947 55.9945 154.109 55.9938L161.793 55.9907C161.954 55.9907 162.058 55.8738 162.02 55.7313L162.005 55.7407ZM171.896 51.2295L171.305 51.2318H168.846C168.755 51.2366 168.668 51.2587 168.588 51.2966C168.508 51.3344 168.438 51.3872 168.383 51.4514L162.945 58.6158C162.853 58.7365 162.749 58.7186 162.711 58.5768L162.311 56.9983C162.29 56.9261 162.243 56.862 162.178 56.8153C162.113 56.7687 162.033 56.7419 161.95 56.739H158.454C158.292 56.739 158.195 56.8535 158.24 56.9944L159.798 61.9301C159.843 62.0703 159.846 62.3016 159.807 62.4441L159.114 64.8324C159.102 64.8631 159.099 64.8959 159.105 64.9279C159.111 64.9598 159.126 64.99 159.148 65.0156C159.17 65.0412 159.199 65.0614 159.232 65.0745C159.265 65.0875 159.301 65.0929 159.337 65.0902H162.8C162.963 65.0902 163.13 64.9734 163.169 64.8332L163.862 62.4448C163.916 62.2767 164.001 62.1177 164.113 61.9745L172.951 51.4358C173.049 51.319 172.996 51.224 172.833 51.2256L171.907 51.231L171.896 51.2295ZM144.121 57.4103C144.1 57.566 143.937 57.6829 143.774 57.6829H139.341C139.187 57.6829 139.109 57.5894 139.133 57.4726L139.136 57.4516L139.156 57.3838C139.589 56.3715 140.442 55.7072 142.062 55.7072C143.887 55.7072 144.243 56.5093 144.119 57.4103H144.121ZM142.82 52.8095C137.131 52.8095 135.783 55.9151 135.027 59.0495C134.27 62.2447 134.336 65.2327 140.222 65.2327H141.156L141.874 65.2304L145.62 65.2101C145.703 65.2067 145.781 65.1794 145.845 65.1324C145.908 65.0854 145.953 65.0211 145.973 64.9493L146.542 62.448C146.575 62.3047 146.468 62.1879 146.305 62.1879H141.013C138.909 62.1879 138.283 61.6848 138.513 60.206H146.973C147.112 60.2036 147.237 60.1281 147.286 60.0097C147.295 59.9887 147.304 59.9661 147.307 59.9435C148.563 55.6838 148.203 52.8126 142.822 52.8126L142.82 52.8095ZM115.929 57.3932L115.85 57.6478L115.211 59.685L114.572 61.7206C114.545 61.7924 114.495 61.8552 114.428 61.9008C114.361 61.9464 114.28 61.9727 114.196 61.976H110.813C108.249 61.976 107.624 60.1717 108.249 57.5107C108.872 54.7891 110.097 53.0969 112.622 52.9255C116.071 52.6919 116.761 54.8739 115.929 57.3924V57.3932ZM118.248 61.8203C118.248 61.8203 119.842 58.3393 120.205 56.3278C120.699 53.6357 119.201 49.7319 113.412 49.7319C107.656 49.7319 105.157 53.459 104.204 57.5193C103.251 61.5999 104.5 65.179 110.222 65.151L118.956 65.1221C119.04 65.1185 119.12 65.0918 119.186 65.0455C119.252 64.9992 119.301 64.9357 119.326 64.8636L120.062 62.342C120.074 62.3115 120.077 62.2788 120.071 62.2468C120.065 62.2149 120.051 62.1847 120.029 62.159C120.007 62.1334 119.978 62.113 119.946 62.0998C119.913 62.0866 119.877 62.081 119.841 62.0835L118.432 62.0757C118.293 62.0749 118.215 61.9947 118.231 61.8888C118.235 61.8693 118.24 61.8499 118.248 61.8296V61.8203Z" fill="#131B28"/>
<path d="M146.741 59.4908C146.741 59.5874 146.654 59.6653 146.547 59.6653C146.439 59.6653 146.353 59.5874 146.353 59.4908C146.353 59.3943 146.439 59.3164 146.547 59.3164C146.654 59.3164 146.741 59.3943 146.741 59.4908Z" fill="#131B28"/>
</svg>
