<svg width="340" height="340" viewBox="0 0 340 340" fill="none" xmlns="http://www.w3.org/2000/svg">
<path fill-rule="evenodd" clip-rule="evenodd" d="M225.63 167.218H227.66C231.452 167.218 234.032 166.744 235.415 165.785C236.79 164.826 237.481 163.172 237.481 160.836C237.481 158.861 236.906 157.474 235.747 156.676C234.587 155.879 232.342 155.48 229.026 155.48H227.077L225.63 167.218ZM222.755 190.41H216.727L221.786 149.668H229.762C232.837 149.668 235.046 149.857 236.395 150.229C237.742 150.598 238.945 151.226 239.998 152.118C241.157 153.087 242.037 154.283 242.657 155.727C243.268 157.161 243.575 158.775 243.575 160.55C243.575 162.649 243.215 164.53 242.503 166.192C241.794 167.854 240.77 169.241 239.413 170.362C238.264 171.321 236.898 172.003 235.343 172.413C233.779 172.822 231.361 173.03 228.1 173.03H226.366H224.921L222.755 190.41ZM235.646 190.41L257.954 148.073L272.035 190.41H265.773L262.637 180.778H247.299L242.213 190.41H235.646ZM249.715 175.365H260.984L258.011 165.289C257.867 164.815 257.721 164.169 257.56 163.371C257.398 162.574 257.21 161.528 256.985 160.229C256.598 161.197 256.213 162.108 255.834 162.972C255.458 163.837 255.089 164.645 254.721 165.405L249.715 175.365ZM268.653 149.668H275.176L281.601 163.333C281.799 163.705 282.131 164.521 282.608 165.785C282.795 166.278 282.949 166.658 283.049 166.924C283.317 166.421 283.623 165.879 283.974 165.289C284.324 164.71 284.774 163.999 285.313 163.163L294.107 149.668H300.999L285.574 172.289L283.317 190.41H277.233L279.554 172.071L268.653 149.668Z" fill="black"/>
<path d="M133.498 190.481L150.115 159.858H140.046L141.607 149.595H166.568L150.115 179.987H160.398L158.81 190.481H133.498ZM165.11 190.481L171.225 149.595H181.997L175.871 190.481H165.11ZM183.351 190.481L189.477 149.595H200.238L197.694 166.672L206.21 149.595H217.18L206.473 168.471L211.333 190.481H199.653L196.928 171.881L194.132 190.481H183.351Z" fill="black"/>
<path fill-rule="evenodd" clip-rule="evenodd" d="M101.646 150.539L83.7178 161.87L82.8426 183.021L81.8473 161.937L64.0391 150.539L82.8426 160.357L101.646 150.539Z" fill="black"/>
<path fill-rule="evenodd" clip-rule="evenodd" d="M76.416 207L82.8425 198.798L89.2667 207L103.028 173.03L125.683 144.109L115.332 142.656L119.243 133L82.8425 138.102L46.439 133L50.3529 142.656L40 144.109L62.6543 173.03L76.416 207ZM83.2949 198.221L101.05 175.554L101.433 175.065L89.0667 205.59L83.2949 198.221ZM114.602 142.556L86.0619 138.553L85.4074 138.463L118.118 133.877L114.602 142.556ZM50.6264 143.338L61.4275 170.001L61.6842 170.633L41.3236 144.642L50.6264 143.338ZM82.3879 198.221L64.6323 175.554L64.2493 175.065L76.6159 205.59L82.3879 198.221ZM51.0809 142.556L79.6209 138.553L80.2753 138.463L47.5648 133.877L51.0809 142.556ZM115.054 143.338L104.255 170.001L103.998 170.633L124.359 144.642L115.054 143.338ZM82.8425 197.642L63.2792 172.671L51.3566 143.236L82.8425 138.822L114.326 143.236L102.404 172.671L82.8425 197.642Z" fill="black"/>
</svg>
