<svg width="340" height="340" viewBox="0 0 340 340" fill="none" xmlns="http://www.w3.org/2000/svg">
<rect x="53.873" y="109" width="233.253" height="26.2292" rx="10" fill="#D0E8F9"/>
<path d="M73.6168 119.233L70.7926 127.009H69.6383L72.8903 118.478H73.6344L73.6168 119.233ZM75.984 127.009L73.1539 119.233L73.1363 118.478H73.8805L77.1442 127.009H75.984ZM75.8375 123.851V124.776H71.0445V123.851H75.8375ZM82.1188 125.778V118.009H83.2086V127.009H82.2125L82.1188 125.778ZM77.8531 123.909V123.786C77.8531 123.302 77.9117 122.862 78.0289 122.468C78.15 122.069 78.3199 121.728 78.5387 121.442C78.7613 121.157 79.025 120.938 79.3297 120.786C79.6383 120.63 79.982 120.552 80.361 120.552C80.7594 120.552 81.107 120.622 81.4039 120.763C81.7047 120.899 81.9586 121.101 82.1656 121.366C82.3766 121.628 82.5426 121.944 82.6637 122.315C82.7848 122.687 82.8688 123.106 82.9156 123.575V124.114C82.8727 124.579 82.7887 124.997 82.6637 125.368C82.5426 125.739 82.3766 126.056 82.1656 126.317C81.9586 126.579 81.7047 126.78 81.4039 126.921C81.1031 127.058 80.7516 127.126 80.3492 127.126C79.9781 127.126 79.6383 127.046 79.3297 126.886C79.025 126.726 78.7613 126.501 78.5387 126.212C78.3199 125.923 78.15 125.583 78.0289 125.192C77.9117 124.798 77.8531 124.37 77.8531 123.909ZM78.943 123.786V123.909C78.943 124.226 78.9742 124.522 79.0367 124.8C79.1031 125.077 79.2047 125.321 79.3414 125.532C79.4781 125.743 79.652 125.909 79.8629 126.03C80.0738 126.147 80.3258 126.206 80.6188 126.206C80.9781 126.206 81.2731 126.13 81.5035 125.978C81.7379 125.825 81.9254 125.624 82.066 125.374C82.2067 125.124 82.316 124.853 82.3942 124.56V123.147C82.3473 122.933 82.2789 122.726 82.1891 122.526C82.1031 122.323 81.9899 122.144 81.8492 121.987C81.7125 121.827 81.5426 121.7 81.3395 121.606C81.1403 121.513 80.9039 121.466 80.6305 121.466C80.3336 121.466 80.0778 121.528 79.8629 121.653C79.652 121.774 79.4781 121.942 79.3414 122.157C79.2047 122.368 79.1031 122.614 79.0367 122.896C78.9742 123.173 78.943 123.47 78.943 123.786ZM86.8238 126.03L88.5582 120.669H89.6656L87.3863 127.009H86.6598L86.8238 126.03ZM85.3766 120.669L87.1637 126.06L87.2867 127.009H86.5602L84.2633 120.669H85.3766ZM94.3531 125.925V122.661C94.3531 122.411 94.3024 122.194 94.2008 122.011C94.1031 121.823 93.9547 121.679 93.7555 121.577C93.5563 121.476 93.3102 121.425 93.0172 121.425C92.7438 121.425 92.5035 121.472 92.2965 121.565C92.0934 121.659 91.9332 121.782 91.816 121.935C91.7028 122.087 91.6461 122.251 91.6461 122.427H90.5621C90.5621 122.2 90.6207 121.976 90.7379 121.753C90.8551 121.53 91.0231 121.329 91.2418 121.149C91.4645 120.966 91.7301 120.821 92.0387 120.716C92.3512 120.606 92.6988 120.552 93.0817 120.552C93.5426 120.552 93.9488 120.63 94.3004 120.786C94.6559 120.942 94.9332 121.179 95.1324 121.495C95.3356 121.808 95.4371 122.2 95.4371 122.673V125.626C95.4371 125.837 95.4547 126.062 95.4899 126.3C95.5289 126.538 95.5856 126.743 95.6598 126.915V127.009H94.5289C94.4742 126.884 94.4313 126.718 94.4 126.511C94.3688 126.3 94.3531 126.104 94.3531 125.925ZM94.5406 123.165L94.5524 123.927H93.4567C93.1481 123.927 92.8727 123.952 92.6305 124.003C92.3883 124.05 92.1852 124.122 92.0211 124.22C91.857 124.317 91.732 124.44 91.6461 124.589C91.5602 124.733 91.5172 124.903 91.5172 125.099C91.5172 125.298 91.5621 125.479 91.652 125.644C91.7418 125.808 91.8766 125.938 92.0563 126.036C92.2399 126.13 92.4645 126.177 92.7301 126.177C93.0621 126.177 93.3551 126.106 93.609 125.966C93.8629 125.825 94.0641 125.653 94.2125 125.45C94.3649 125.247 94.4469 125.05 94.4586 124.858L94.9215 125.38C94.8942 125.544 94.8199 125.726 94.6988 125.925C94.5778 126.124 94.4156 126.315 94.2125 126.499C94.0133 126.679 93.775 126.829 93.4977 126.95C93.2242 127.067 92.9156 127.126 92.5719 127.126C92.1422 127.126 91.7653 127.042 91.441 126.874C91.1207 126.706 90.8707 126.481 90.691 126.2C90.5153 125.915 90.4274 125.597 90.4274 125.245C90.4274 124.905 90.4938 124.606 90.6266 124.349C90.7594 124.087 90.9508 123.87 91.2008 123.698C91.4508 123.522 91.7516 123.39 92.1031 123.3C92.4547 123.21 92.8473 123.165 93.2809 123.165H94.5406ZM98.2262 122.022V127.009H97.1422V120.669H98.1676L98.2262 122.022ZM97.9684 123.599L97.5172 123.581C97.5211 123.147 97.5856 122.747 97.7106 122.38C97.8356 122.009 98.0113 121.687 98.2379 121.413C98.4645 121.14 98.734 120.929 99.0465 120.78C99.3629 120.628 99.7125 120.552 100.095 120.552C100.408 120.552 100.689 120.595 100.939 120.681C101.189 120.763 101.402 120.896 101.578 121.079C101.757 121.263 101.894 121.501 101.988 121.794C102.082 122.083 102.129 122.437 102.129 122.854V127.009H101.039V122.843C101.039 122.511 100.99 122.245 100.892 122.046C100.795 121.843 100.652 121.696 100.464 121.606C100.277 121.513 100.047 121.466 99.7731 121.466C99.5035 121.466 99.2574 121.522 99.0348 121.636C98.816 121.749 98.6266 121.905 98.4664 122.104C98.3102 122.304 98.1871 122.532 98.0973 122.79C98.0113 123.044 97.9684 123.313 97.9684 123.599ZM106.312 126.235C106.57 126.235 106.808 126.183 107.027 126.077C107.246 125.972 107.425 125.827 107.566 125.644C107.707 125.456 107.787 125.243 107.806 125.005H108.838C108.818 125.38 108.691 125.729 108.457 126.054C108.226 126.374 107.923 126.634 107.548 126.833C107.173 127.028 106.761 127.126 106.312 127.126C105.836 127.126 105.42 127.042 105.064 126.874C104.713 126.706 104.42 126.476 104.185 126.183C103.955 125.89 103.781 125.554 103.664 125.175C103.55 124.792 103.494 124.388 103.494 123.962V123.716C103.494 123.29 103.55 122.888 103.664 122.509C103.781 122.126 103.955 121.788 104.185 121.495C104.42 121.202 104.713 120.972 105.064 120.804C105.42 120.636 105.836 120.552 106.312 120.552C106.808 120.552 107.242 120.653 107.613 120.856C107.984 121.056 108.275 121.329 108.486 121.677C108.701 122.021 108.818 122.411 108.838 122.849H107.806C107.787 122.587 107.713 122.351 107.584 122.14C107.459 121.929 107.287 121.761 107.068 121.636C106.853 121.507 106.601 121.442 106.312 121.442C105.98 121.442 105.701 121.509 105.474 121.642C105.252 121.771 105.074 121.946 104.941 122.169C104.812 122.388 104.718 122.632 104.66 122.901C104.605 123.167 104.578 123.438 104.578 123.716V123.962C104.578 124.239 104.605 124.513 104.66 124.782C104.714 125.052 104.806 125.296 104.935 125.515C105.068 125.733 105.246 125.909 105.468 126.042C105.695 126.171 105.976 126.235 106.312 126.235ZM112.687 127.126C112.246 127.126 111.845 127.052 111.486 126.903C111.13 126.751 110.824 126.538 110.566 126.265C110.312 125.991 110.117 125.667 109.98 125.292C109.843 124.917 109.775 124.507 109.775 124.062V123.815C109.775 123.3 109.851 122.841 110.004 122.438C110.156 122.032 110.363 121.688 110.625 121.407C110.886 121.126 111.183 120.913 111.515 120.769C111.847 120.624 112.191 120.552 112.547 120.552C113 120.552 113.39 120.63 113.718 120.786C114.05 120.942 114.322 121.161 114.533 121.442C114.744 121.72 114.9 122.048 115.002 122.427C115.103 122.802 115.154 123.212 115.154 123.657V124.144H110.42V123.259H114.07V123.177C114.054 122.896 113.996 122.622 113.894 122.356C113.797 122.091 113.64 121.872 113.425 121.7C113.211 121.528 112.918 121.442 112.547 121.442C112.3 121.442 112.074 121.495 111.867 121.601C111.66 121.702 111.482 121.854 111.334 122.058C111.185 122.261 111.07 122.509 110.988 122.802C110.906 123.095 110.865 123.433 110.865 123.815V124.062C110.865 124.362 110.906 124.646 110.988 124.911C111.074 125.173 111.197 125.403 111.357 125.603C111.521 125.802 111.718 125.958 111.949 126.071C112.183 126.185 112.449 126.241 112.746 126.241C113.129 126.241 113.453 126.163 113.718 126.007C113.984 125.851 114.216 125.642 114.416 125.38L115.072 125.901C114.935 126.108 114.761 126.306 114.55 126.493C114.339 126.681 114.08 126.833 113.771 126.95C113.466 127.067 113.105 127.126 112.687 127.126ZM120.416 125.778V118.009H121.505V127.009H120.509L120.416 125.778ZM116.15 123.909V123.786C116.15 123.302 116.209 122.862 116.326 122.468C116.447 122.069 116.617 121.728 116.836 121.442C117.058 121.157 117.322 120.938 117.627 120.786C117.935 120.63 118.279 120.552 118.658 120.552C119.056 120.552 119.404 120.622 119.701 120.763C120.002 120.899 120.255 121.101 120.463 121.366C120.673 121.628 120.839 121.944 120.961 122.315C121.082 122.687 121.166 123.106 121.213 123.575V124.114C121.17 124.579 121.086 124.997 120.961 125.368C120.839 125.739 120.673 126.056 120.463 126.317C120.255 126.579 120.002 126.78 119.701 126.921C119.4 127.058 119.048 127.126 118.646 127.126C118.275 127.126 117.935 127.046 117.627 126.886C117.322 126.726 117.058 126.501 116.836 126.212C116.617 125.923 116.447 125.583 116.326 125.192C116.209 124.798 116.15 124.37 116.15 123.909ZM117.24 123.786V123.909C117.24 124.226 117.271 124.522 117.334 124.8C117.4 125.077 117.502 125.321 117.638 125.532C117.775 125.743 117.949 125.909 118.16 126.03C118.371 126.147 118.623 126.206 118.916 126.206C119.275 126.206 119.57 126.13 119.8 125.978C120.035 125.825 120.222 125.624 120.363 125.374C120.504 125.124 120.613 124.853 120.691 124.56V123.147C120.644 122.933 120.576 122.726 120.486 122.526C120.4 122.323 120.287 122.144 120.146 121.987C120.009 121.827 119.839 121.7 119.636 121.606C119.437 121.513 119.201 121.466 118.927 121.466C118.63 121.466 118.375 121.528 118.16 121.653C117.949 121.774 117.775 121.942 117.638 122.157C117.502 122.368 117.4 122.614 117.334 122.896C117.271 123.173 117.24 123.47 117.24 123.786ZM131.484 124.296H132.609C132.55 124.835 132.396 125.317 132.146 125.743C131.896 126.169 131.543 126.507 131.086 126.757C130.629 127.003 130.058 127.126 129.375 127.126C128.875 127.126 128.42 127.032 128.009 126.845C127.603 126.657 127.254 126.392 126.961 126.048C126.668 125.7 126.441 125.284 126.281 124.8C126.125 124.312 126.047 123.769 126.047 123.171V122.321C126.047 121.724 126.125 121.183 126.281 120.698C126.441 120.21 126.67 119.792 126.966 119.444C127.267 119.097 127.629 118.829 128.05 118.642C128.472 118.454 128.947 118.36 129.474 118.36C130.119 118.36 130.664 118.481 131.109 118.724C131.554 118.966 131.9 119.302 132.146 119.731C132.396 120.157 132.55 120.651 132.609 121.214H131.484C131.429 120.815 131.328 120.474 131.179 120.188C131.031 119.899 130.82 119.677 130.547 119.521C130.273 119.364 129.916 119.286 129.474 119.286C129.095 119.286 128.761 119.358 128.472 119.503C128.187 119.647 127.947 119.853 127.752 120.118C127.56 120.384 127.416 120.702 127.318 121.073C127.22 121.444 127.172 121.856 127.172 122.31V123.171C127.172 123.589 127.214 123.981 127.3 124.349C127.39 124.716 127.525 125.038 127.705 125.315C127.884 125.593 128.113 125.812 128.39 125.972C128.668 126.128 128.996 126.206 129.375 126.206C129.855 126.206 130.238 126.13 130.523 125.978C130.808 125.825 131.023 125.606 131.168 125.321C131.316 125.036 131.422 124.694 131.484 124.296ZM135.164 118.009V127.009H134.074V118.009H135.164ZM136.617 123.909V123.774C136.617 123.317 136.683 122.894 136.816 122.503C136.949 122.108 137.14 121.767 137.39 121.478C137.64 121.185 137.943 120.958 138.298 120.798C138.654 120.634 139.052 120.552 139.494 120.552C139.939 120.552 140.339 120.634 140.695 120.798C141.054 120.958 141.359 121.185 141.609 121.478C141.863 121.767 142.056 122.108 142.189 122.503C142.322 122.894 142.388 123.317 142.388 123.774V123.909C142.388 124.366 142.322 124.79 142.189 125.181C142.056 125.571 141.863 125.913 141.609 126.206C141.359 126.495 141.056 126.722 140.701 126.886C140.349 127.046 139.951 127.126 139.505 127.126C139.06 127.126 138.66 127.046 138.304 126.886C137.949 126.722 137.644 126.495 137.39 126.206C137.14 125.913 136.949 125.571 136.816 125.181C136.683 124.79 136.617 124.366 136.617 123.909ZM137.701 123.774V123.909C137.701 124.226 137.738 124.524 137.812 124.806C137.886 125.083 137.998 125.329 138.146 125.544C138.298 125.759 138.488 125.929 138.714 126.054C138.941 126.175 139.205 126.235 139.505 126.235C139.802 126.235 140.062 126.175 140.285 126.054C140.511 125.929 140.699 125.759 140.847 125.544C140.996 125.329 141.107 125.083 141.181 124.806C141.259 124.524 141.298 124.226 141.298 123.909V123.774C141.298 123.462 141.259 123.167 141.181 122.89C141.107 122.608 140.994 122.36 140.841 122.146C140.693 121.927 140.505 121.755 140.279 121.63C140.056 121.505 139.795 121.442 139.494 121.442C139.197 121.442 138.935 121.505 138.709 121.63C138.486 121.755 138.298 121.927 138.146 122.146C137.998 122.36 137.886 122.608 137.812 122.89C137.738 123.167 137.701 123.462 137.701 123.774ZM147.627 125.544V120.669H148.716V127.009H147.679L147.627 125.544ZM147.832 124.208L148.283 124.196C148.283 124.618 148.238 125.009 148.148 125.368C148.062 125.724 147.922 126.032 147.726 126.294C147.531 126.556 147.275 126.761 146.959 126.909C146.642 127.054 146.257 127.126 145.804 127.126C145.496 127.126 145.213 127.081 144.955 126.991C144.701 126.901 144.482 126.763 144.298 126.575C144.115 126.388 143.972 126.144 143.871 125.843C143.773 125.542 143.724 125.181 143.724 124.759V120.669H144.808V124.771C144.808 125.056 144.839 125.292 144.902 125.479C144.968 125.663 145.056 125.81 145.166 125.919C145.279 126.024 145.404 126.099 145.541 126.142C145.681 126.185 145.826 126.206 145.974 126.206C146.435 126.206 146.8 126.118 147.07 125.942C147.339 125.763 147.533 125.522 147.65 125.222C147.771 124.917 147.832 124.579 147.832 124.208ZM154.365 125.778V118.009H155.455V127.009H154.459L154.365 125.778ZM150.099 123.909V123.786C150.099 123.302 150.158 122.862 150.275 122.468C150.396 122.069 150.566 121.728 150.785 121.442C151.007 121.157 151.271 120.938 151.576 120.786C151.884 120.63 152.228 120.552 152.607 120.552C153.005 120.552 153.353 120.622 153.65 120.763C153.951 120.899 154.205 121.101 154.412 121.366C154.623 121.628 154.789 121.944 154.91 122.315C155.031 122.687 155.115 123.106 155.162 123.575V124.114C155.119 124.579 155.035 124.997 154.91 125.368C154.789 125.739 154.623 126.056 154.412 126.317C154.205 126.579 153.951 126.78 153.65 126.921C153.349 127.058 152.998 127.126 152.595 127.126C152.224 127.126 151.884 127.046 151.576 126.886C151.271 126.726 151.007 126.501 150.785 126.212C150.566 125.923 150.396 125.583 150.275 125.192C150.158 124.798 150.099 124.37 150.099 123.909ZM151.189 123.786V123.909C151.189 124.226 151.22 124.522 151.283 124.8C151.349 125.077 151.451 125.321 151.588 125.532C151.724 125.743 151.898 125.909 152.109 126.03C152.32 126.147 152.572 126.206 152.865 126.206C153.224 126.206 153.519 126.13 153.75 125.978C153.984 125.825 154.172 125.624 154.312 125.374C154.453 125.124 154.562 124.853 154.64 124.56V123.147C154.593 122.933 154.525 122.726 154.435 122.526C154.349 122.323 154.236 122.144 154.095 121.987C153.959 121.827 153.789 121.7 153.586 121.606C153.386 121.513 153.15 121.466 152.877 121.466C152.58 121.466 152.324 121.528 152.109 121.653C151.898 121.774 151.724 121.942 151.588 122.157C151.451 122.368 151.349 122.614 151.283 122.896C151.22 123.173 151.189 123.47 151.189 123.786ZM162.75 127.126C162.308 127.126 161.908 127.052 161.548 126.903C161.193 126.751 160.886 126.538 160.629 126.265C160.375 125.991 160.179 125.667 160.043 125.292C159.906 124.917 159.838 124.507 159.838 124.062V123.815C159.838 123.3 159.914 122.841 160.066 122.438C160.218 122.032 160.425 121.688 160.687 121.407C160.949 121.126 161.246 120.913 161.578 120.769C161.91 120.624 162.254 120.552 162.609 120.552C163.062 120.552 163.453 120.63 163.781 120.786C164.113 120.942 164.384 121.161 164.595 121.442C164.806 121.72 164.963 122.048 165.064 122.427C165.166 122.802 165.216 123.212 165.216 123.657V124.144H160.482V123.259H164.132V123.177C164.117 122.896 164.058 122.622 163.957 122.356C163.859 122.091 163.703 121.872 163.488 121.7C163.273 121.528 162.98 121.442 162.609 121.442C162.363 121.442 162.136 121.495 161.929 121.601C161.722 121.702 161.545 121.854 161.396 122.058C161.248 122.261 161.132 122.509 161.05 122.802C160.968 123.095 160.927 123.433 160.927 123.815V124.062C160.927 124.362 160.968 124.646 161.05 124.911C161.136 125.173 161.259 125.403 161.42 125.603C161.584 125.802 161.781 125.958 162.011 126.071C162.246 126.185 162.511 126.241 162.808 126.241C163.191 126.241 163.515 126.163 163.781 126.007C164.047 125.851 164.279 125.642 164.478 125.38L165.134 125.901C164.998 126.108 164.824 126.306 164.613 126.493C164.402 126.681 164.142 126.833 163.834 126.95C163.529 127.067 163.168 127.126 162.75 127.126ZM168.738 122.937V123.827H165.879V122.937H168.738ZM175.113 124.296H176.238C176.179 124.835 176.025 125.317 175.775 125.743C175.525 126.169 175.172 126.507 174.714 126.757C174.257 127.003 173.687 127.126 173.004 127.126C172.504 127.126 172.048 127.032 171.638 126.845C171.232 126.657 170.882 126.392 170.589 126.048C170.297 125.7 170.07 125.284 169.91 124.8C169.754 124.312 169.675 123.769 169.675 123.171V122.321C169.675 121.724 169.754 121.183 169.91 120.698C170.07 120.21 170.298 119.792 170.595 119.444C170.896 119.097 171.257 118.829 171.679 118.642C172.101 118.454 172.576 118.36 173.103 118.36C173.748 118.36 174.293 118.481 174.738 118.724C175.183 118.966 175.529 119.302 175.775 119.731C176.025 120.157 176.179 120.651 176.238 121.214H175.113C175.058 120.815 174.957 120.474 174.808 120.188C174.66 119.899 174.449 119.677 174.175 119.521C173.902 119.364 173.545 119.286 173.103 119.286C172.724 119.286 172.39 119.358 172.101 119.503C171.816 119.647 171.576 119.853 171.38 120.118C171.189 120.384 171.045 120.702 170.947 121.073C170.849 121.444 170.8 121.856 170.8 122.31V123.171C170.8 123.589 170.843 123.981 170.929 124.349C171.019 124.716 171.154 125.038 171.334 125.315C171.513 125.593 171.742 125.812 172.019 125.972C172.297 126.128 172.625 126.206 173.004 126.206C173.484 126.206 173.867 126.13 174.152 125.978C174.437 125.825 174.652 125.606 174.797 125.321C174.945 125.036 175.05 124.694 175.113 124.296ZM177.328 123.909V123.774C177.328 123.317 177.394 122.894 177.527 122.503C177.66 122.108 177.851 121.767 178.101 121.478C178.351 121.185 178.654 120.958 179.009 120.798C179.365 120.634 179.763 120.552 180.205 120.552C180.65 120.552 181.05 120.634 181.406 120.798C181.765 120.958 182.07 121.185 182.32 121.478C182.574 121.767 182.767 122.108 182.9 122.503C183.033 122.894 183.099 123.317 183.099 123.774V123.909C183.099 124.366 183.033 124.79 182.9 125.181C182.767 125.571 182.574 125.913 182.32 126.206C182.07 126.495 181.767 126.722 181.412 126.886C181.06 127.046 180.662 127.126 180.216 127.126C179.771 127.126 179.371 127.046 179.015 126.886C178.66 126.722 178.355 126.495 178.101 126.206C177.851 125.913 177.66 125.571 177.527 125.181C177.394 124.79 177.328 124.366 177.328 123.909ZM178.412 123.774V123.909C178.412 124.226 178.449 124.524 178.523 124.806C178.597 125.083 178.709 125.329 178.857 125.544C179.009 125.759 179.199 125.929 179.425 126.054C179.652 126.175 179.916 126.235 180.216 126.235C180.513 126.235 180.773 126.175 180.996 126.054C181.222 125.929 181.41 125.759 181.558 125.544C181.707 125.329 181.818 125.083 181.892 124.806C181.97 124.524 182.009 124.226 182.009 123.909V123.774C182.009 123.462 181.97 123.167 181.892 122.89C181.818 122.608 181.705 122.36 181.552 122.146C181.404 121.927 181.216 121.755 180.99 121.63C180.767 121.505 180.505 121.442 180.205 121.442C179.908 121.442 179.646 121.505 179.42 121.63C179.197 121.755 179.009 121.927 178.857 122.146C178.709 122.36 178.597 122.608 178.523 122.89C178.449 123.167 178.412 123.462 178.412 123.774ZM185.537 121.929V127.009H184.447V120.669H185.478L185.537 121.929ZM185.314 123.599L184.81 123.581C184.814 123.147 184.871 122.747 184.98 122.38C185.089 122.009 185.252 121.687 185.466 121.413C185.681 121.14 185.949 120.929 186.269 120.78C186.589 120.628 186.961 120.552 187.382 120.552C187.679 120.552 187.953 120.595 188.203 120.681C188.453 120.763 188.67 120.894 188.853 121.073C189.037 121.253 189.179 121.483 189.281 121.765C189.382 122.046 189.433 122.386 189.433 122.784V127.009H188.349V122.837C188.349 122.505 188.293 122.239 188.179 122.04C188.07 121.841 187.914 121.696 187.711 121.606C187.507 121.513 187.269 121.466 186.996 121.466C186.675 121.466 186.408 121.522 186.193 121.636C185.978 121.749 185.806 121.905 185.677 122.104C185.548 122.304 185.455 122.532 185.396 122.79C185.341 123.044 185.314 123.313 185.314 123.599ZM189.422 123.001L188.695 123.224C188.699 122.876 188.755 122.542 188.865 122.222C188.978 121.901 189.14 121.616 189.351 121.366C189.566 121.116 189.83 120.919 190.142 120.774C190.455 120.626 190.812 120.552 191.214 120.552C191.554 120.552 191.855 120.597 192.117 120.687C192.382 120.776 192.605 120.915 192.785 121.103C192.968 121.286 193.107 121.522 193.201 121.812C193.295 122.101 193.341 122.444 193.341 122.843V127.009H192.252V122.831C192.252 122.476 192.195 122.2 192.082 122.005C191.972 121.806 191.816 121.667 191.613 121.589C191.414 121.507 191.175 121.466 190.898 121.466C190.66 121.466 190.449 121.507 190.265 121.589C190.082 121.671 189.927 121.784 189.802 121.929C189.677 122.069 189.582 122.231 189.515 122.415C189.453 122.599 189.422 122.794 189.422 123.001ZM196.06 121.929V127.009H194.97V120.669H196.002L196.06 121.929ZM195.838 123.599L195.334 123.581C195.338 123.147 195.394 122.747 195.504 122.38C195.613 122.009 195.775 121.687 195.99 121.413C196.205 121.14 196.472 120.929 196.793 120.78C197.113 120.628 197.484 120.552 197.906 120.552C198.203 120.552 198.476 120.595 198.726 120.681C198.976 120.763 199.193 120.894 199.377 121.073C199.56 121.253 199.703 121.483 199.804 121.765C199.906 122.046 199.957 122.386 199.957 122.784V127.009H198.873V122.837C198.873 122.505 198.816 122.239 198.703 122.04C198.593 121.841 198.437 121.696 198.234 121.606C198.031 121.513 197.793 121.466 197.519 121.466C197.199 121.466 196.931 121.522 196.716 121.636C196.502 121.749 196.33 121.905 196.201 122.104C196.072 122.304 195.978 122.532 195.92 122.79C195.865 123.044 195.838 123.313 195.838 123.599ZM199.945 123.001L199.218 123.224C199.222 122.876 199.279 122.542 199.388 122.222C199.502 121.901 199.664 121.616 199.875 121.366C200.089 121.116 200.353 120.919 200.666 120.774C200.978 120.626 201.336 120.552 201.738 120.552C202.078 120.552 202.379 120.597 202.64 120.687C202.906 120.776 203.129 120.915 203.308 121.103C203.492 121.286 203.63 121.522 203.724 121.812C203.818 122.101 203.865 122.444 203.865 122.843V127.009H202.775V122.831C202.775 122.476 202.718 122.2 202.605 122.005C202.496 121.806 202.339 121.667 202.136 121.589C201.937 121.507 201.699 121.466 201.422 121.466C201.183 121.466 200.972 121.507 200.789 121.589C200.605 121.671 200.451 121.784 200.326 121.929C200.201 122.069 200.105 122.231 200.039 122.415C199.976 122.599 199.945 122.794 199.945 123.001ZM208.136 127.126C207.695 127.126 207.295 127.052 206.935 126.903C206.58 126.751 206.273 126.538 206.015 126.265C205.761 125.991 205.566 125.667 205.429 125.292C205.293 124.917 205.224 124.507 205.224 124.062V123.815C205.224 123.3 205.3 122.841 205.453 122.438C205.605 122.032 205.812 121.688 206.074 121.407C206.336 121.126 206.632 120.913 206.964 120.769C207.297 120.624 207.64 120.552 207.996 120.552C208.449 120.552 208.839 120.63 209.168 120.786C209.5 120.942 209.771 121.161 209.982 121.442C210.193 121.72 210.349 122.048 210.451 122.427C210.552 122.802 210.603 123.212 210.603 123.657V124.144H205.869V123.259H209.519V123.177C209.504 122.896 209.445 122.622 209.343 122.356C209.246 122.091 209.089 121.872 208.875 121.7C208.66 121.528 208.367 121.442 207.996 121.442C207.75 121.442 207.523 121.495 207.316 121.601C207.109 121.702 206.931 121.854 206.783 122.058C206.634 122.261 206.519 122.509 206.437 122.802C206.355 123.095 206.314 123.433 206.314 123.815V124.062C206.314 124.362 206.355 124.646 206.437 124.911C206.523 125.173 206.646 125.403 206.806 125.603C206.97 125.802 207.168 125.958 207.398 126.071C207.632 126.185 207.898 126.241 208.195 126.241C208.578 126.241 208.902 126.163 209.168 126.007C209.433 125.851 209.666 125.642 209.865 125.38L210.521 125.901C210.384 126.108 210.211 126.306 210 126.493C209.789 126.681 209.529 126.833 209.22 126.95C208.916 127.067 208.554 127.126 208.136 127.126ZM212.953 121.665V127.009H211.869V120.669H212.923L212.953 121.665ZM214.933 120.634L214.927 121.642C214.838 121.622 214.752 121.61 214.67 121.606C214.591 121.599 214.502 121.595 214.4 121.595C214.15 121.595 213.929 121.634 213.738 121.712C213.547 121.79 213.384 121.899 213.252 122.04C213.119 122.181 213.013 122.349 212.935 122.544C212.861 122.735 212.812 122.946 212.789 123.177L212.484 123.353C212.484 122.97 212.521 122.61 212.595 122.274C212.673 121.938 212.793 121.642 212.953 121.384C213.113 121.122 213.316 120.919 213.562 120.774C213.812 120.626 214.109 120.552 214.453 120.552C214.531 120.552 214.621 120.562 214.722 120.581C214.824 120.597 214.894 120.614 214.933 120.634ZM218.355 126.235C218.613 126.235 218.851 126.183 219.07 126.077C219.289 125.972 219.468 125.827 219.609 125.644C219.75 125.456 219.83 125.243 219.849 125.005H220.88C220.861 125.38 220.734 125.729 220.5 126.054C220.269 126.374 219.966 126.634 219.591 126.833C219.216 127.028 218.804 127.126 218.355 127.126C217.879 127.126 217.463 127.042 217.107 126.874C216.755 126.706 216.463 126.476 216.228 126.183C215.998 125.89 215.824 125.554 215.707 125.175C215.593 124.792 215.537 124.388 215.537 123.962V123.716C215.537 123.29 215.593 122.888 215.707 122.509C215.824 122.126 215.998 121.788 216.228 121.495C216.463 121.202 216.755 120.972 217.107 120.804C217.463 120.636 217.879 120.552 218.355 120.552C218.851 120.552 219.285 120.653 219.656 120.856C220.027 121.056 220.318 121.329 220.529 121.677C220.744 122.021 220.861 122.411 220.88 122.849H219.849C219.83 122.587 219.755 122.351 219.627 122.14C219.502 121.929 219.33 121.761 219.111 121.636C218.896 121.507 218.644 121.442 218.355 121.442C218.023 121.442 217.744 121.509 217.517 121.642C217.295 121.771 217.117 121.946 216.984 122.169C216.855 122.388 216.761 122.632 216.703 122.901C216.648 123.167 216.621 123.438 216.621 123.716V123.962C216.621 124.239 216.648 124.513 216.703 124.782C216.757 125.052 216.849 125.296 216.978 125.515C217.111 125.733 217.289 125.909 217.511 126.042C217.738 126.171 218.019 126.235 218.355 126.235ZM224.73 127.126C224.289 127.126 223.888 127.052 223.529 126.903C223.173 126.751 222.867 126.538 222.609 126.265C222.355 125.991 222.16 125.667 222.023 125.292C221.886 124.917 221.818 124.507 221.818 124.062V123.815C221.818 123.3 221.894 122.841 222.047 122.438C222.199 122.032 222.406 121.688 222.668 121.407C222.929 121.126 223.226 120.913 223.558 120.769C223.89 120.624 224.234 120.552 224.589 120.552C225.043 120.552 225.433 120.63 225.761 120.786C226.093 120.942 226.365 121.161 226.576 121.442C226.787 121.72 226.943 122.048 227.045 122.427C227.146 122.802 227.197 123.212 227.197 123.657V124.144H222.463V123.259H226.113V123.177C226.097 122.896 226.039 122.622 225.937 122.356C225.839 122.091 225.683 121.872 225.468 121.7C225.254 121.528 224.961 121.442 224.589 121.442C224.343 121.442 224.117 121.495 223.91 121.601C223.703 121.702 223.525 121.854 223.377 122.058C223.228 122.261 223.113 122.509 223.031 122.802C222.949 123.095 222.908 123.433 222.908 123.815V124.062C222.908 124.362 222.949 124.646 223.031 124.911C223.117 125.173 223.24 125.403 223.4 125.603C223.564 125.802 223.761 125.958 223.992 126.071C224.226 126.185 224.492 126.241 224.789 126.241C225.172 126.241 225.496 126.163 225.761 126.007C226.027 125.851 226.259 125.642 226.459 125.38L227.115 125.901C226.978 126.108 226.804 126.306 226.593 126.493C226.382 126.681 226.123 126.833 225.814 126.95C225.509 127.067 225.148 127.126 224.73 127.126ZM236.15 124.853C236.15 124.653 236.119 124.478 236.056 124.325C235.998 124.169 235.892 124.028 235.74 123.903C235.591 123.778 235.384 123.659 235.119 123.546C234.857 123.433 234.525 123.317 234.123 123.2C233.701 123.075 233.32 122.937 232.98 122.784C232.64 122.628 232.349 122.45 232.107 122.251C231.865 122.052 231.679 121.823 231.55 121.565C231.422 121.308 231.357 121.013 231.357 120.681C231.357 120.349 231.425 120.042 231.562 119.761C231.699 119.479 231.894 119.235 232.148 119.028C232.406 118.817 232.713 118.653 233.068 118.536C233.423 118.419 233.82 118.36 234.257 118.36C234.898 118.36 235.441 118.483 235.886 118.729C236.336 118.972 236.677 119.29 236.912 119.685C237.146 120.075 237.263 120.493 237.263 120.938H236.138C236.138 120.618 236.07 120.335 235.933 120.089C235.797 119.839 235.589 119.644 235.312 119.503C235.035 119.358 234.683 119.286 234.257 119.286C233.855 119.286 233.523 119.347 233.261 119.468C233 119.589 232.804 119.753 232.675 119.96C232.55 120.167 232.488 120.403 232.488 120.669C232.488 120.849 232.525 121.013 232.599 121.161C232.677 121.306 232.797 121.44 232.957 121.565C233.121 121.69 233.328 121.806 233.578 121.911C233.832 122.017 234.134 122.118 234.486 122.216C234.97 122.353 235.388 122.505 235.74 122.673C236.091 122.841 236.38 123.03 236.607 123.241C236.838 123.448 237.007 123.685 237.117 123.95C237.23 124.212 237.287 124.509 237.287 124.841C237.287 125.188 237.216 125.503 237.076 125.784C236.935 126.065 236.734 126.306 236.472 126.505C236.211 126.704 235.896 126.858 235.529 126.968C235.166 127.073 234.759 127.126 234.31 127.126C233.916 127.126 233.527 127.071 233.144 126.962C232.765 126.853 232.42 126.688 232.107 126.47C231.798 126.251 231.55 125.981 231.363 125.661C231.179 125.337 231.088 124.962 231.088 124.536H232.213C232.213 124.829 232.269 125.081 232.382 125.292C232.496 125.499 232.65 125.671 232.845 125.808C233.045 125.944 233.269 126.046 233.519 126.112C233.773 126.175 234.037 126.206 234.31 126.206C234.705 126.206 235.039 126.151 235.312 126.042C235.586 125.933 235.793 125.776 235.933 125.573C236.078 125.37 236.15 125.13 236.15 124.853ZM240.345 126.353L242.109 120.669H243.269L240.726 127.987C240.668 128.144 240.589 128.312 240.492 128.491C240.398 128.675 240.277 128.849 240.129 129.013C239.98 129.177 239.8 129.31 239.589 129.411C239.382 129.517 239.134 129.569 238.845 129.569C238.759 129.569 238.65 129.558 238.517 129.534C238.384 129.511 238.291 129.491 238.236 129.476L238.23 128.597C238.261 128.601 238.31 128.604 238.377 128.608C238.447 128.616 238.496 128.62 238.523 128.62C238.769 128.62 238.978 128.587 239.15 128.521C239.322 128.458 239.466 128.351 239.584 128.198C239.705 128.05 239.808 127.845 239.894 127.583L240.345 126.353ZM239.05 120.669L240.697 125.591L240.978 126.733L240.199 127.132L237.867 120.669H239.05ZM247.939 125.327C247.939 125.171 247.904 125.026 247.834 124.894C247.767 124.757 247.629 124.634 247.418 124.524C247.211 124.411 246.898 124.313 246.48 124.231C246.129 124.157 245.81 124.069 245.525 123.968C245.244 123.866 245.004 123.743 244.804 123.599C244.609 123.454 244.459 123.284 244.353 123.089C244.248 122.894 244.195 122.665 244.195 122.403C244.195 122.153 244.25 121.917 244.359 121.694C244.472 121.472 244.63 121.274 244.834 121.103C245.041 120.931 245.289 120.796 245.578 120.698C245.867 120.601 246.189 120.552 246.545 120.552C247.052 120.552 247.486 120.642 247.845 120.821C248.205 121.001 248.48 121.241 248.672 121.542C248.863 121.839 248.959 122.169 248.959 122.532H247.875C247.875 122.356 247.822 122.187 247.716 122.022C247.615 121.854 247.464 121.716 247.265 121.606C247.07 121.497 246.83 121.442 246.545 121.442C246.244 121.442 246 121.489 245.812 121.583C245.629 121.673 245.494 121.788 245.408 121.929C245.326 122.069 245.285 122.218 245.285 122.374C245.285 122.491 245.304 122.597 245.343 122.69C245.386 122.78 245.461 122.864 245.566 122.942C245.672 123.017 245.82 123.087 246.011 123.153C246.203 123.22 246.447 123.286 246.744 123.353C247.263 123.47 247.691 123.61 248.027 123.774C248.363 123.938 248.613 124.14 248.777 124.378C248.941 124.616 249.023 124.905 249.023 125.245C249.023 125.522 248.964 125.776 248.847 126.007C248.734 126.237 248.568 126.437 248.349 126.604C248.134 126.769 247.877 126.897 247.576 126.991C247.279 127.081 246.945 127.126 246.574 127.126C246.015 127.126 245.543 127.026 245.156 126.827C244.769 126.628 244.476 126.37 244.277 126.054C244.078 125.737 243.978 125.403 243.978 125.052H245.068C245.084 125.349 245.17 125.585 245.326 125.761C245.482 125.933 245.673 126.056 245.9 126.13C246.127 126.2 246.351 126.235 246.574 126.235C246.871 126.235 247.119 126.196 247.318 126.118C247.521 126.04 247.675 125.933 247.781 125.796C247.886 125.659 247.939 125.503 247.939 125.327ZM253.101 120.669V121.501H249.673V120.669H253.101ZM250.834 119.128H251.918V125.438C251.918 125.653 251.951 125.815 252.017 125.925C252.084 126.034 252.17 126.106 252.275 126.142C252.38 126.177 252.494 126.194 252.615 126.194C252.705 126.194 252.798 126.187 252.896 126.171C252.998 126.151 253.074 126.136 253.125 126.124L253.13 127.009C253.045 127.036 252.931 127.062 252.791 127.085C252.654 127.112 252.488 127.126 252.293 127.126C252.027 127.126 251.783 127.073 251.56 126.968C251.338 126.862 251.16 126.687 251.027 126.44C250.898 126.19 250.834 125.854 250.834 125.433V119.128ZM257.004 127.126C256.562 127.126 256.162 127.052 255.802 126.903C255.447 126.751 255.14 126.538 254.882 126.265C254.629 125.991 254.433 125.667 254.297 125.292C254.16 124.917 254.091 124.507 254.091 124.062V123.815C254.091 123.3 254.168 122.841 254.32 122.438C254.472 122.032 254.679 121.688 254.941 121.407C255.203 121.126 255.5 120.913 255.832 120.769C256.164 120.624 256.507 120.552 256.863 120.552C257.316 120.552 257.707 120.63 258.035 120.786C258.367 120.942 258.638 121.161 258.849 121.442C259.06 121.72 259.216 122.048 259.318 122.427C259.42 122.802 259.47 123.212 259.47 123.657V124.144H254.736V123.259H258.386V123.177C258.371 122.896 258.312 122.622 258.211 122.356C258.113 122.091 257.957 121.872 257.742 121.7C257.527 121.528 257.234 121.442 256.863 121.442C256.617 121.442 256.39 121.495 256.183 121.601C255.976 121.702 255.798 121.854 255.65 122.058C255.502 122.261 255.386 122.509 255.304 122.802C255.222 123.095 255.181 123.433 255.181 123.815V124.062C255.181 124.362 255.222 124.646 255.304 124.911C255.39 125.173 255.513 125.403 255.673 125.603C255.838 125.802 256.035 125.958 256.265 126.071C256.5 126.185 256.765 126.241 257.062 126.241C257.445 126.241 257.769 126.163 258.035 126.007C258.3 125.851 258.533 125.642 258.732 125.38L259.388 125.901C259.252 126.108 259.078 126.306 258.867 126.493C258.656 126.681 258.396 126.833 258.088 126.95C257.783 127.067 257.422 127.126 257.004 127.126ZM261.814 121.929V127.009H260.724V120.669H261.755L261.814 121.929ZM261.591 123.599L261.088 123.581C261.091 123.147 261.148 122.747 261.257 122.38C261.367 122.009 261.529 121.687 261.744 121.413C261.959 121.14 262.226 120.929 262.547 120.78C262.867 120.628 263.238 120.552 263.66 120.552C263.957 120.552 264.23 120.595 264.48 120.681C264.73 120.763 264.947 120.894 265.13 121.073C265.314 121.253 265.457 121.483 265.558 121.765C265.66 122.046 265.711 122.386 265.711 122.784V127.009H264.627V122.837C264.627 122.505 264.57 122.239 264.457 122.04C264.347 121.841 264.191 121.696 263.988 121.606C263.785 121.513 263.547 121.466 263.273 121.466C262.953 121.466 262.685 121.522 262.47 121.636C262.255 121.749 262.084 121.905 261.955 122.104C261.826 122.304 261.732 122.532 261.673 122.79C261.619 123.044 261.591 123.313 261.591 123.599ZM265.699 123.001L264.972 123.224C264.976 122.876 265.033 122.542 265.142 122.222C265.255 121.901 265.418 121.616 265.629 121.366C265.843 121.116 266.107 120.919 266.42 120.774C266.732 120.626 267.089 120.552 267.492 120.552C267.832 120.552 268.132 120.597 268.394 120.687C268.66 120.776 268.882 120.915 269.062 121.103C269.246 121.286 269.384 121.522 269.478 121.812C269.572 122.101 269.619 122.444 269.619 122.843V127.009H268.529V122.831C268.529 122.476 268.472 122.2 268.359 122.005C268.25 121.806 268.093 121.667 267.89 121.589C267.691 121.507 267.453 121.466 267.175 121.466C266.937 121.466 266.726 121.507 266.543 121.589C266.359 121.671 266.205 121.784 266.08 121.929C265.955 122.069 265.859 122.231 265.793 122.415C265.73 122.599 265.699 122.794 265.699 123.001Z" fill="#1A4278"/>
<path d="M91.6973 153.066V178.66H86.8809V153.066H91.6973ZM99.6426 153.066V156.881H79.0234V153.066H99.6426ZM123.092 165.213V166.531C123.092 168.465 122.834 170.205 122.318 171.752C121.803 173.287 121.07 174.594 120.121 175.672C119.172 176.75 118.041 177.576 116.729 178.15C115.416 178.725 113.957 179.012 112.352 179.012C110.77 179.012 109.316 178.725 107.992 178.15C106.68 177.576 105.543 176.75 104.582 175.672C103.621 174.594 102.877 173.287 102.35 171.752C101.822 170.205 101.559 168.465 101.559 166.531V165.213C101.559 163.268 101.822 161.527 102.35 159.992C102.877 158.457 103.615 157.15 104.564 156.072C105.514 154.982 106.645 154.15 107.957 153.576C109.281 153.002 110.734 152.715 112.316 152.715C113.922 152.715 115.381 153.002 116.693 153.576C118.006 154.15 119.137 154.982 120.086 156.072C121.047 157.15 121.785 158.457 122.301 159.992C122.828 161.527 123.092 163.268 123.092 165.213ZM118.205 166.531V165.178C118.205 163.783 118.076 162.559 117.818 161.504C117.561 160.438 117.18 159.541 116.676 158.814C116.172 158.088 115.551 157.543 114.812 157.18C114.074 156.805 113.242 156.617 112.316 156.617C111.379 156.617 110.547 156.805 109.82 157.18C109.105 157.543 108.496 158.088 107.992 158.814C107.488 159.541 107.102 160.438 106.832 161.504C106.574 162.559 106.445 163.783 106.445 165.178V166.531C106.445 167.914 106.574 169.139 106.832 170.205C107.102 171.271 107.488 172.174 107.992 172.912C108.508 173.639 109.129 174.189 109.855 174.564C110.582 174.939 111.414 175.127 112.352 175.127C113.289 175.127 114.121 174.939 114.848 174.564C115.574 174.189 116.184 173.639 116.676 172.912C117.18 172.174 117.561 171.271 117.818 170.205C118.076 169.139 118.205 167.914 118.205 166.531ZM136.996 167.252H130.457L130.422 163.842H136.029C136.99 163.842 137.793 163.707 138.438 163.438C139.082 163.168 139.568 162.775 139.896 162.26C140.236 161.744 140.406 161.117 140.406 160.379C140.406 159.559 140.248 158.891 139.932 158.375C139.627 157.859 139.146 157.484 138.49 157.25C137.834 157.004 137.002 156.881 135.994 156.881H132.021V178.66H127.188V153.066H135.994C137.447 153.066 138.742 153.207 139.879 153.488C141.027 153.758 142 154.18 142.797 154.754C143.594 155.328 144.197 156.049 144.607 156.916C145.029 157.783 145.24 158.814 145.24 160.01C145.24 161.064 144.994 162.037 144.502 162.928C144.021 163.807 143.277 164.521 142.27 165.072C141.273 165.623 140.008 165.939 138.473 166.021L136.996 167.252ZM136.785 178.66H129.033L131.055 174.863H136.785C137.746 174.863 138.537 174.705 139.158 174.389C139.791 174.072 140.26 173.639 140.564 173.088C140.881 172.525 141.039 171.881 141.039 171.154C141.039 170.357 140.898 169.666 140.617 169.08C140.348 168.494 139.914 168.043 139.316 167.727C138.73 167.41 137.957 167.252 136.996 167.252H131.969L132.004 163.842H138.402L139.51 165.16C140.986 165.172 142.188 165.465 143.113 166.039C144.051 166.613 144.742 167.352 145.188 168.254C145.633 169.156 145.855 170.129 145.855 171.172C145.855 172.812 145.498 174.189 144.783 175.303C144.08 176.416 143.049 177.254 141.689 177.816C140.342 178.379 138.707 178.66 136.785 178.66ZM167.002 174.863V178.66H153.396V174.863H167.002ZM154.873 153.066V178.66H150.039V153.066H154.873ZM165.227 163.631V167.34H153.396V163.631H165.227ZM166.949 153.066V156.881H153.396V153.066H166.949ZM172.469 153.066H176.652L183.648 172.332L190.627 153.066H194.828L185.318 178.66H181.961L172.469 153.066ZM170.359 153.066H174.455L175.193 170.768V178.66H170.359V153.066ZM192.824 153.066H196.938V178.66H192.104V170.768L192.824 153.066ZM212.354 156.951L205.059 178.66H199.943L209.506 153.066H212.775L212.354 156.951ZM218.453 178.66L211.123 156.951L210.684 153.066H213.971L223.586 178.66H218.453ZM218.119 169.15V172.965H204.391V169.15H218.119ZM242.465 174.863V178.66H229.598V174.863H242.465ZM231.057 153.066V178.66H226.223V153.066H231.057ZM261.941 174.863V178.66H249.074V174.863H261.941ZM250.533 153.066V178.66H245.699V153.066H250.533ZM74.541 214.367C74.541 213.664 74.4238 213.037 74.1895 212.486C73.9551 211.936 73.5684 211.443 73.0293 211.01C72.502 210.564 71.7871 210.154 70.8848 209.779C69.9941 209.393 68.8809 209.012 67.5449 208.637C66.2676 208.273 65.1133 207.875 64.082 207.441C63.0508 207.008 62.166 206.51 61.4277 205.947C60.7012 205.385 60.1445 204.729 59.7578 203.979C59.3711 203.217 59.1777 202.332 59.1777 201.324C59.1777 200.34 59.3887 199.443 59.8105 198.635C60.2324 197.826 60.8242 197.129 61.5859 196.543C62.3594 195.957 63.2676 195.506 64.3105 195.189C65.3652 194.873 66.5195 194.715 67.7734 194.715C69.5664 194.715 71.1133 195.055 72.4141 195.734C73.7266 196.414 74.7402 197.334 75.4551 198.494C76.1816 199.643 76.5449 200.932 76.5449 202.361H74.3828C74.3828 201.248 74.1191 200.258 73.5918 199.391C73.0762 198.512 72.3262 197.826 71.3418 197.334C70.3691 196.83 69.1797 196.578 67.7734 196.578C66.3672 196.578 65.1836 196.795 64.2227 197.229C63.2734 197.65 62.5527 198.219 62.0605 198.934C61.5801 199.637 61.3398 200.422 61.3398 201.289C61.3398 201.898 61.457 202.461 61.6914 202.977C61.9258 203.48 62.3066 203.955 62.834 204.4C63.373 204.834 64.082 205.244 64.9609 205.631C65.8398 206.006 66.9238 206.363 68.2129 206.703C69.5723 207.078 70.7793 207.494 71.834 207.951C72.8887 208.408 73.7793 208.936 74.5059 209.533C75.2324 210.119 75.7832 210.805 76.1582 211.59C76.5332 212.375 76.7207 213.289 76.7207 214.332C76.7207 215.375 76.498 216.312 76.0527 217.145C75.6191 217.965 75.0039 218.662 74.207 219.236C73.4219 219.811 72.4902 220.25 71.4121 220.555C70.3457 220.859 69.1797 221.012 67.9141 221.012C66.7773 221.012 65.6465 220.865 64.5215 220.572C63.3965 220.279 62.3652 219.828 61.4277 219.219C60.502 218.598 59.7578 217.801 59.1953 216.828C58.6445 215.855 58.3691 214.695 58.3691 213.348H60.5137C60.5137 214.426 60.7305 215.334 61.1641 216.072C61.5977 216.811 62.1719 217.408 62.8867 217.865C63.6133 218.322 64.4102 218.656 65.2773 218.867C66.1562 219.066 67.0352 219.166 67.9141 219.166C69.2617 219.166 70.4277 218.967 71.4121 218.568C72.4082 218.17 73.1758 217.613 73.7148 216.898C74.2656 216.172 74.541 215.328 74.541 214.367ZM92.4707 217.25V207.441C92.4707 206.539 92.2832 205.76 91.9082 205.104C91.5332 204.447 90.9824 203.943 90.2559 203.592C89.5293 203.24 88.6328 203.064 87.5664 203.064C86.582 203.064 85.7031 203.24 84.9297 203.592C84.168 203.932 83.5645 204.395 83.1191 204.98C82.6855 205.555 82.4688 206.193 82.4688 206.896L80.3594 206.879C80.3594 206.164 80.5352 205.473 80.8867 204.805C81.2383 204.137 81.7363 203.539 82.3809 203.012C83.0254 202.484 83.793 202.068 84.6836 201.764C85.5859 201.447 86.5762 201.289 87.6543 201.289C89.0137 201.289 90.209 201.518 91.2402 201.975C92.2832 202.432 93.0977 203.117 93.6836 204.031C94.2695 204.945 94.5625 206.094 94.5625 207.477V216.67C94.5625 217.326 94.6094 218.006 94.7031 218.709C94.8086 219.412 94.9551 219.992 95.1426 220.449V220.66H92.9102C92.7695 220.238 92.6582 219.711 92.5762 219.078C92.5059 218.434 92.4707 217.824 92.4707 217.25ZM92.9629 209.586L92.998 211.203H88.8672C87.7891 211.203 86.8223 211.303 85.9668 211.502C85.123 211.689 84.4082 211.971 83.8223 212.346C83.2363 212.709 82.7852 213.148 82.4688 213.664C82.1641 214.18 82.0117 214.766 82.0117 215.422C82.0117 216.102 82.1816 216.723 82.5215 217.285C82.873 217.848 83.3652 218.299 83.998 218.639C84.6426 218.967 85.4043 219.131 86.2832 219.131C87.4551 219.131 88.4863 218.914 89.377 218.48C90.2793 218.047 91.0234 217.479 91.6094 216.775C92.1953 216.072 92.5879 215.305 92.7871 214.473L93.7012 215.686C93.5488 216.271 93.2676 216.875 92.8574 217.496C92.459 218.105 91.9375 218.68 91.293 219.219C90.6484 219.746 89.8867 220.18 89.0078 220.52C88.1406 220.848 87.1562 221.012 86.0547 221.012C84.8125 221.012 83.7285 220.777 82.8027 220.309C81.8887 219.84 81.1738 219.201 80.6582 218.393C80.1543 217.572 79.9023 216.646 79.9023 215.615C79.9023 214.678 80.1016 213.84 80.5 213.102C80.8984 212.352 81.4727 211.719 82.2227 211.203C82.9844 210.676 83.8984 210.277 84.9648 210.008C86.043 209.727 87.25 209.586 88.5859 209.586H92.9629ZM111.771 217.25V207.441C111.771 206.539 111.584 205.76 111.209 205.104C110.834 204.447 110.283 203.943 109.557 203.592C108.83 203.24 107.934 203.064 106.867 203.064C105.883 203.064 105.004 203.24 104.23 203.592C103.469 203.932 102.865 204.395 102.42 204.98C101.986 205.555 101.77 206.193 101.77 206.896L99.6602 206.879C99.6602 206.164 99.8359 205.473 100.188 204.805C100.539 204.137 101.037 203.539 101.682 203.012C102.326 202.484 103.094 202.068 103.984 201.764C104.887 201.447 105.877 201.289 106.955 201.289C108.314 201.289 109.51 201.518 110.541 201.975C111.584 202.432 112.398 203.117 112.984 204.031C113.57 204.945 113.863 206.094 113.863 207.477V216.67C113.863 217.326 113.91 218.006 114.004 218.709C114.109 219.412 114.256 219.992 114.443 220.449V220.66H112.211C112.07 220.238 111.959 219.711 111.877 219.078C111.807 218.434 111.771 217.824 111.771 217.25ZM112.264 209.586L112.299 211.203H108.168C107.09 211.203 106.123 211.303 105.268 211.502C104.424 211.689 103.709 211.971 103.123 212.346C102.537 212.709 102.086 213.148 101.77 213.664C101.465 214.18 101.312 214.766 101.312 215.422C101.312 216.102 101.482 216.723 101.822 217.285C102.174 217.848 102.666 218.299 103.299 218.639C103.943 218.967 104.705 219.131 105.584 219.131C106.756 219.131 107.787 218.914 108.678 218.48C109.58 218.047 110.324 217.479 110.91 216.775C111.496 216.072 111.889 215.305 112.088 214.473L113.002 215.686C112.85 216.271 112.568 216.875 112.158 217.496C111.76 218.105 111.238 218.68 110.594 219.219C109.949 219.746 109.188 220.18 108.309 220.52C107.441 220.848 106.457 221.012 105.355 221.012C104.113 221.012 103.029 220.777 102.104 220.309C101.189 219.84 100.475 219.201 99.959 218.393C99.4551 217.572 99.2031 216.646 99.2031 215.615C99.2031 214.678 99.4023 213.84 99.8008 213.102C100.199 212.352 100.773 211.719 101.523 211.203C102.285 210.676 103.199 210.277 104.266 210.008C105.344 209.727 106.551 209.586 107.887 209.586H112.264ZM134.482 214.367C134.482 213.664 134.365 213.037 134.131 212.486C133.896 211.936 133.51 211.443 132.971 211.01C132.443 210.564 131.729 210.154 130.826 209.779C129.936 209.393 128.822 209.012 127.486 208.637C126.209 208.273 125.055 207.875 124.023 207.441C122.992 207.008 122.107 206.51 121.369 205.947C120.643 205.385 120.086 204.729 119.699 203.979C119.312 203.217 119.119 202.332 119.119 201.324C119.119 200.34 119.33 199.443 119.752 198.635C120.174 197.826 120.766 197.129 121.527 196.543C122.301 195.957 123.209 195.506 124.252 195.189C125.307 194.873 126.461 194.715 127.715 194.715C129.508 194.715 131.055 195.055 132.355 195.734C133.668 196.414 134.682 197.334 135.396 198.494C136.123 199.643 136.486 200.932 136.486 202.361H134.324C134.324 201.248 134.061 200.258 133.533 199.391C133.018 198.512 132.268 197.826 131.283 197.334C130.311 196.83 129.121 196.578 127.715 196.578C126.309 196.578 125.125 196.795 124.164 197.229C123.215 197.65 122.494 198.219 122.002 198.934C121.521 199.637 121.281 200.422 121.281 201.289C121.281 201.898 121.398 202.461 121.633 202.977C121.867 203.48 122.248 203.955 122.775 204.4C123.314 204.834 124.023 205.244 124.902 205.631C125.781 206.006 126.865 206.363 128.154 206.703C129.514 207.078 130.721 207.494 131.775 207.951C132.83 208.408 133.721 208.936 134.447 209.533C135.174 210.119 135.725 210.805 136.1 211.59C136.475 212.375 136.662 213.289 136.662 214.332C136.662 215.375 136.439 216.312 135.994 217.145C135.561 217.965 134.945 218.662 134.148 219.236C133.363 219.811 132.432 220.25 131.354 220.555C130.287 220.859 129.121 221.012 127.855 221.012C126.719 221.012 125.588 220.865 124.463 220.572C123.338 220.279 122.307 219.828 121.369 219.219C120.443 218.598 119.699 217.801 119.137 216.828C118.586 215.855 118.311 214.695 118.311 213.348H120.455C120.455 214.426 120.672 215.334 121.105 216.072C121.539 216.811 122.113 217.408 122.828 217.865C123.555 218.322 124.352 218.656 125.219 218.867C126.098 219.066 126.977 219.166 127.855 219.166C129.203 219.166 130.369 218.967 131.354 218.568C132.35 218.17 133.117 217.613 133.656 216.898C134.207 216.172 134.482 215.328 134.482 214.367ZM158.828 210.236H151.533V208.391H158.828C160.352 208.391 161.588 208.145 162.537 207.652C163.498 207.148 164.195 206.469 164.629 205.613C165.074 204.758 165.297 203.797 165.297 202.73C165.297 201.688 165.074 200.727 164.629 199.848C164.195 198.969 163.498 198.266 162.537 197.738C161.588 197.199 160.352 196.93 158.828 196.93H152.289V220.66H150.127V195.066H158.828C160.703 195.066 162.279 195.389 163.557 196.033C164.846 196.678 165.818 197.574 166.475 198.723C167.131 199.871 167.459 201.195 167.459 202.695C167.459 204.266 167.131 205.619 166.475 206.756C165.818 207.881 164.852 208.742 163.574 209.34C162.297 209.938 160.715 210.236 158.828 210.236ZM174.156 193.66V220.66H172.064V193.66H174.156ZM191.471 217.25V207.441C191.471 206.539 191.283 205.76 190.908 205.104C190.533 204.447 189.982 203.943 189.256 203.592C188.529 203.24 187.633 203.064 186.566 203.064C185.582 203.064 184.703 203.24 183.93 203.592C183.168 203.932 182.564 204.395 182.119 204.98C181.686 205.555 181.469 206.193 181.469 206.896L179.359 206.879C179.359 206.164 179.535 205.473 179.887 204.805C180.238 204.137 180.736 203.539 181.381 203.012C182.025 202.484 182.793 202.068 183.684 201.764C184.586 201.447 185.576 201.289 186.654 201.289C188.014 201.289 189.209 201.518 190.24 201.975C191.283 202.432 192.098 203.117 192.684 204.031C193.27 204.945 193.562 206.094 193.562 207.477V216.67C193.562 217.326 193.609 218.006 193.703 218.709C193.809 219.412 193.955 219.992 194.143 220.449V220.66H191.91C191.77 220.238 191.658 219.711 191.576 219.078C191.506 218.434 191.471 217.824 191.471 217.25ZM191.963 209.586L191.998 211.203H187.867C186.789 211.203 185.822 211.303 184.967 211.502C184.123 211.689 183.408 211.971 182.822 212.346C182.236 212.709 181.785 213.148 181.469 213.664C181.164 214.18 181.012 214.766 181.012 215.422C181.012 216.102 181.182 216.723 181.521 217.285C181.873 217.848 182.365 218.299 182.998 218.639C183.643 218.967 184.404 219.131 185.283 219.131C186.455 219.131 187.486 218.914 188.377 218.48C189.279 218.047 190.023 217.479 190.609 216.775C191.195 216.072 191.588 215.305 191.787 214.473L192.701 215.686C192.549 216.271 192.268 216.875 191.857 217.496C191.459 218.105 190.938 218.68 190.293 219.219C189.648 219.746 188.887 220.18 188.008 220.52C187.141 220.848 186.156 221.012 185.055 221.012C183.812 221.012 182.729 220.777 181.803 220.309C180.889 219.84 180.174 219.201 179.658 218.393C179.154 217.572 178.902 216.646 178.902 215.615C178.902 214.678 179.102 213.84 179.5 213.102C179.898 212.352 180.473 211.719 181.223 211.203C181.984 210.676 182.898 210.277 183.965 210.008C185.043 209.727 186.25 209.586 187.586 209.586H191.963ZM206.395 201.641V203.363H196.867V201.641H206.395ZM200.365 196.754H202.457V216.037C202.457 216.916 202.574 217.578 202.809 218.023C203.043 218.469 203.348 218.768 203.723 218.92C204.098 219.072 204.502 219.148 204.936 219.148C205.252 219.148 205.557 219.131 205.85 219.096C206.143 219.049 206.406 219.002 206.641 218.955L206.729 220.73C206.471 220.812 206.137 220.877 205.727 220.924C205.316 220.982 204.906 221.012 204.496 221.012C203.688 221.012 202.973 220.865 202.352 220.572C201.73 220.268 201.244 219.752 200.893 219.025C200.541 218.287 200.365 217.285 200.365 216.02V196.754ZM214.41 220.66H212.318V199.285C212.318 197.984 212.541 196.889 212.986 195.998C213.443 195.107 214.088 194.434 214.92 193.977C215.764 193.52 216.766 193.291 217.926 193.291C218.289 193.291 218.664 193.314 219.051 193.361C219.438 193.396 219.812 193.473 220.176 193.59L220.018 195.365C219.725 195.283 219.426 195.23 219.121 195.207C218.828 195.172 218.482 195.154 218.084 195.154C217.322 195.154 216.666 195.318 216.115 195.646C215.564 195.963 215.143 196.426 214.85 197.035C214.557 197.645 214.41 198.395 214.41 199.285V220.66ZM218.945 201.641V203.363H209.172V201.641H218.945ZM221.564 211.449V210.869C221.564 209.486 221.764 208.209 222.162 207.037C222.561 205.865 223.129 204.852 223.867 203.996C224.617 203.141 225.514 202.479 226.557 202.01C227.6 201.529 228.76 201.289 230.037 201.289C231.326 201.289 232.492 201.529 233.535 202.01C234.578 202.479 235.475 203.141 236.225 203.996C236.975 204.852 237.549 205.865 237.947 207.037C238.346 208.209 238.545 209.486 238.545 210.869V211.449C238.545 212.832 238.346 214.109 237.947 215.281C237.549 216.441 236.975 217.449 236.225 218.305C235.486 219.16 234.596 219.828 233.553 220.309C232.51 220.777 231.35 221.012 230.072 221.012C228.783 221.012 227.617 220.777 226.574 220.309C225.531 219.828 224.635 219.16 223.885 218.305C223.135 217.449 222.561 216.441 222.162 215.281C221.764 214.109 221.564 212.832 221.564 211.449ZM223.656 210.869V211.449C223.656 212.492 223.797 213.482 224.078 214.42C224.359 215.346 224.77 216.172 225.309 216.898C225.848 217.613 226.516 218.176 227.312 218.586C228.109 218.996 229.029 219.201 230.072 219.201C231.104 219.201 232.012 218.996 232.797 218.586C233.594 218.176 234.262 217.613 234.801 216.898C235.34 216.172 235.744 215.346 236.014 214.42C236.295 213.482 236.436 212.492 236.436 211.449V210.869C236.436 209.838 236.295 208.859 236.014 207.934C235.744 207.008 235.334 206.182 234.783 205.455C234.244 204.729 233.576 204.154 232.779 203.732C231.982 203.311 231.068 203.1 230.037 203.1C229.006 203.1 228.092 203.311 227.295 203.732C226.51 204.154 225.842 204.729 225.291 205.455C224.752 206.182 224.342 207.008 224.061 207.934C223.791 208.859 223.656 209.838 223.656 210.869ZM244.996 204.787V220.66H242.904V201.641H244.943L244.996 204.787ZM251.729 201.5L251.676 203.434C251.441 203.398 251.213 203.369 250.99 203.346C250.768 203.322 250.527 203.311 250.27 203.311C249.355 203.311 248.553 203.48 247.861 203.82C247.182 204.148 246.607 204.611 246.139 205.209C245.67 205.795 245.312 206.486 245.066 207.283C244.82 208.068 244.68 208.912 244.645 209.814L243.871 210.113C243.871 208.871 244 207.717 244.258 206.65C244.516 205.584 244.908 204.652 245.436 203.855C245.975 203.047 246.648 202.42 247.457 201.975C248.277 201.518 249.238 201.289 250.34 201.289C250.609 201.289 250.873 201.312 251.131 201.359C251.4 201.395 251.6 201.441 251.729 201.5ZM257.02 205.578V220.66H254.91V201.641H256.932L257.02 205.578ZM256.633 209.973L255.613 209.445C255.684 208.32 255.895 207.266 256.246 206.281C256.609 205.297 257.113 204.43 257.758 203.68C258.402 202.93 259.176 202.344 260.078 201.922C260.98 201.5 262.006 201.289 263.154 201.289C264.08 201.289 264.918 201.418 265.668 201.676C266.43 201.922 267.074 202.314 267.602 202.854C268.141 203.381 268.557 204.072 268.85 204.928C269.143 205.783 269.289 206.809 269.289 208.004V220.66H267.197V208.074C267.197 206.809 266.998 205.818 266.6 205.104C266.213 204.389 265.668 203.879 264.965 203.574C264.273 203.27 263.471 203.117 262.557 203.117C261.479 203.117 260.564 203.34 259.814 203.785C259.076 204.219 258.473 204.787 258.004 205.49C257.547 206.182 257.207 206.926 256.984 207.723C256.762 208.508 256.645 209.258 256.633 209.973ZM269.271 208.32L267.865 208.355C267.924 207.43 268.135 206.545 268.498 205.701C268.873 204.857 269.383 204.107 270.027 203.451C270.672 202.783 271.439 202.256 272.33 201.869C273.232 201.482 274.246 201.289 275.371 201.289C276.355 201.289 277.234 201.424 278.008 201.693C278.781 201.951 279.432 202.367 279.959 202.941C280.498 203.504 280.908 204.225 281.189 205.104C281.471 205.982 281.611 207.037 281.611 208.268V220.66H279.502V208.25C279.502 206.902 279.303 205.859 278.904 205.121C278.518 204.371 277.979 203.85 277.287 203.557C276.596 203.264 275.787 203.117 274.861 203.117C273.947 203.129 273.145 203.299 272.453 203.627C271.762 203.943 271.182 204.365 270.713 204.893C270.256 205.408 269.904 205.965 269.658 206.562C269.424 207.16 269.295 207.746 269.271 208.32Z" fill="black"/>
</svg>
