<svg width="340" height="340" viewBox="0 0 340 340" fill="none" xmlns="http://www.w3.org/2000/svg">
<path d="M54.1215 147.664C54.123 147.282 54.1464 146.899 54.1916 146.519C53.4902 146.68 52.7721 146.759 52.052 146.755C51.0343 146.787 50.0209 146.61 49.0755 146.236C48.1301 145.862 47.2733 145.298 46.5589 144.58C45.8445 143.863 45.2879 143.007 44.9243 142.066C44.5606 141.125 44.3977 140.12 44.4458 139.114C44.4308 138.042 44.6093 136.975 44.973 135.964L39.6452 141.233C39.2319 141.645 39 142.202 39 142.783C39 143.363 39.2319 143.92 39.6452 144.332L54.3977 158.919C54.8146 159.329 55.3787 159.559 55.9666 159.559C56.5546 159.559 57.1186 159.329 57.5355 158.919L61.2131 155.283C60.239 155.249 59.2813 155.024 58.3957 154.622C57.5101 154.219 56.7142 153.646 56.0544 152.936C55.3946 152.227 54.8839 151.395 54.5521 150.488C54.2203 149.582 54.0739 148.619 54.1215 147.656" fill="#E95504"/>
<path d="M72.2844 141.23L57.5347 126.645C57.3291 126.441 57.0846 126.279 56.8153 126.168C56.5461 126.057 56.2574 126 55.9658 126C55.6741 126 55.3854 126.057 55.1162 126.168C54.8469 126.279 54.6024 126.441 54.3968 126.645L49.1125 131.87C50.0455 131.508 51.0403 131.325 52.0428 131.334C54.4088 131.354 56.6778 132.267 58.3857 133.886L56.3401 135.94C55.1843 134.836 53.656 134.193 52.0498 134.137C49.6803 134.137 47.7637 136.018 47.7637 139.023C47.7637 141.919 49.5443 143.997 52.1521 143.997C52.9077 143.981 53.6518 143.81 54.3374 143.496C55.023 143.181 55.6352 142.729 56.1354 142.169C56.8576 141.429 57.7264 140.844 58.6875 140.451C59.6487 140.058 60.6814 139.865 61.7212 139.885C64.0857 139.905 66.3529 140.818 68.0586 142.438L66.0129 144.489C64.8585 143.384 63.3309 142.742 61.7254 142.686C59.3573 142.686 57.4393 144.571 57.4393 147.574C57.4393 150.465 59.2199 152.548 61.8236 152.548C62.5799 152.533 63.3248 152.362 64.0113 152.048C64.6979 151.734 65.3111 151.282 65.8125 150.722L72.2802 144.324C72.6938 143.912 72.9259 143.355 72.9259 142.774C72.9259 142.194 72.6938 141.637 72.2802 141.225" fill="#E95504"/>
<path d="M158.221 134.582V144.182H155.391V145.679H158.221V147.941H160.306V134.582H158.221Z" fill="black"/>
<path d="M147.789 134.795V136.293H153.927V141.902H156.009V134.795H147.789Z" fill="black"/>
<path d="M159.196 141.197H147.232V142.693H151.674V146.234H153.676V142.693H159.198L159.196 141.197Z" fill="black"/>
<path d="M191.843 142.582H180.008V144.08H184.43V147.075H186.428V144.08H191.836L191.843 142.582Z" fill="black"/>
<path d="M190.986 134.582V145.195H188.154V146.696H190.986V147.944H193.07V134.585L190.986 134.582Z" fill="black"/>
<path d="M181.055 138.141C180.969 137.303 181.141 136.459 181.549 135.719C181.958 134.98 182.583 134.381 183.343 134C184.102 133.62 184.961 133.476 185.805 133.588C186.649 133.699 187.439 134.061 188.071 134.626C188.703 135.191 189.147 135.932 189.345 136.751C189.542 137.57 189.484 138.429 189.178 139.215C188.872 140.001 188.332 140.677 187.63 141.154C186.928 141.63 186.096 141.885 185.244 141.885C184.188 141.934 183.154 141.569 182.369 140.867C181.584 140.166 181.112 139.185 181.055 138.141M185.244 140.334C185.69 140.367 186.135 140.267 186.521 140.046C186.908 139.825 187.218 139.494 187.412 139.096C187.606 138.698 187.674 138.252 187.607 137.815C187.541 137.379 187.343 136.972 187.039 136.648C186.736 136.324 186.34 136.098 185.905 136C185.47 135.902 185.015 135.935 184.599 136.096C184.183 136.257 183.826 136.538 183.575 136.903C183.323 137.268 183.188 137.699 183.187 138.141C183.168 138.701 183.374 139.246 183.759 139.657C184.144 140.068 184.678 140.311 185.244 140.334" fill="black"/>
<path d="M174.625 134.582H176.704V150.982H174.625V134.582Z" fill="black"/>
<path d="M175.795 143.894H163.234V145.386H167.441V150.975H169.527V145.386H175.791L175.795 143.894Z" fill="black"/>
<path d="M164.083 138.454C164.016 137.576 164.219 136.698 164.664 135.936C165.109 135.173 165.776 134.561 166.579 134.179C167.381 133.797 168.281 133.663 169.161 133.794C170.042 133.925 170.862 134.316 171.515 134.915C172.167 135.514 172.622 136.294 172.82 137.152C173.018 138.011 172.95 138.908 172.625 139.728C172.3 140.548 171.732 141.251 170.996 141.748C170.261 142.244 169.391 142.509 168.501 142.509C167.371 142.55 166.272 142.146 165.444 141.385C164.615 140.625 164.126 139.571 164.083 138.454ZM168.501 140.95C169.012 141.001 169.527 140.897 169.978 140.652C170.428 140.407 170.793 140.033 171.024 139.579C171.256 139.125 171.342 138.612 171.273 138.108C171.204 137.604 170.982 137.133 170.636 136.757C170.291 136.38 169.838 136.116 169.337 135.999C168.837 135.882 168.313 135.918 167.833 136.102C167.354 136.286 166.942 136.609 166.652 137.029C166.363 137.449 166.208 137.946 166.21 138.454C166.18 139.085 166.405 139.702 166.834 140.17C167.263 140.638 167.863 140.918 168.501 140.95" fill="black"/>
<path d="M207.402 134.582H209.484V150.982H207.402V134.582Z" fill="black"/>
<path d="M202.435 145.651V142.955H200.352V145.651H196.406V147.143H208.063V145.651H202.435Z" fill="black"/>
<path d="M202.431 135.952V134.225H200.348V135.952H196.785V137.45H205.993V135.952H202.431Z" fill="black"/>
<path d="M197.226 140.307C197.154 139.477 197.338 138.646 197.752 137.921C198.166 137.196 198.792 136.612 199.547 136.245C200.303 135.878 201.153 135.746 201.986 135.865C202.819 135.983 203.596 136.348 204.216 136.912C204.836 137.475 205.269 138.21 205.459 139.021C205.649 139.832 205.587 140.681 205.282 141.456C204.976 142.232 204.44 142.898 203.745 143.367C203.05 143.837 202.228 144.087 201.386 144.087C200.328 144.129 199.296 143.755 198.516 143.047C197.737 142.338 197.273 141.353 197.226 140.307ZM201.386 142.463C201.825 142.5 202.265 142.404 202.648 142.19C203.031 141.975 203.34 141.651 203.534 141.26C203.728 140.869 203.797 140.429 203.734 139.998C203.671 139.567 203.478 139.164 203.18 138.844C202.882 138.523 202.493 138.299 202.064 138.2C201.635 138.102 201.186 138.134 200.776 138.292C200.366 138.45 200.013 138.727 199.764 139.086C199.516 139.446 199.383 139.871 199.383 140.307C199.371 140.578 199.413 140.85 199.508 141.105C199.602 141.361 199.747 141.595 199.933 141.795C200.119 141.996 200.343 142.158 200.592 142.272C200.842 142.387 201.111 142.452 201.386 142.463Z" fill="black"/>
<path d="M113.375 134.799H122.132V136.296H113.375V134.799Z" fill="black"/>
<path d="M124.342 134.582V138.889H121.258V140.385H124.342V150.982H126.423V134.582H124.342Z" fill="black"/>
<path d="M112.999 145.649V144.049C114.613 143.494 116.644 142.008 116.644 137.854H118.282V141.276C117.862 142.397 117.154 143.39 116.227 144.157C115.3 144.925 114.186 145.439 112.996 145.649" fill="black"/>
<path d="M122.513 145.649V144.049C120.901 143.494 118.868 142.008 118.868 137.854H117.225V141.276C117.645 142.397 118.354 143.39 119.281 144.157C120.208 144.924 121.322 145.438 122.512 145.649" fill="black"/>
<path d="M116.646 135.634H118.867V137.857H116.646V135.634Z" fill="black"/>
<path d="M145.228 137.462H143.081V134.582H140.992V143.305H143.081V138.96H145.228V137.462Z" fill="black"/>
<path d="M131.752 144.475V145.971H140.997V150.983H143.086V144.474L131.752 144.475Z" fill="black"/>
<path d="M130.428 134.799H139.282V136.296H130.428V134.799Z" fill="black"/>
<path d="M130.093 142.859V141.258C131.179 141.073 132.156 140.493 132.831 139.631C133.506 138.769 133.83 137.689 133.739 136.603H135.334V139.211C135.1 140.144 133.844 142.098 130.092 142.859" fill="black"/>
<path d="M133.74 135.258H135.958V136.779H133.74V135.258Z" fill="black"/>
<path d="M139.616 142.859V141.258C138.528 141.075 137.548 140.496 136.871 139.634C136.195 138.772 135.87 137.69 135.96 136.603H134.369V139.211C134.605 140.144 135.858 142.098 139.617 142.859" fill="black"/>
<path d="M95.6758 140.885H110.65V142.38H95.6758V140.885Z" fill="black"/>
<path d="M97.2383 134.795V136.293H106.817V141.39H108.905V134.795H97.2383Z" fill="black"/>
<path d="M97.6445 144.629V146.123H106.417V150.977H108.498V144.623L97.6445 144.629Z" fill="black"/>
<path d="M101.736 141.616H103.823V145.366H101.736V141.616Z" fill="black"/>
<path d="M79.3932 140.158C79.3463 139.322 79.5542 138.492 79.9898 137.774C80.4254 137.056 81.0688 136.484 81.8367 136.132C82.6046 135.78 83.4616 135.664 84.297 135.799C85.1323 135.934 85.9075 136.314 86.5222 136.889C87.1369 137.464 87.5629 138.209 87.745 139.027C87.927 139.844 87.8569 140.697 87.5436 141.474C87.2303 142.252 86.6882 142.919 85.9875 143.388C85.2869 143.858 84.4598 144.109 83.6134 144.108C82.5244 144.137 81.4685 143.737 80.6774 142.996C79.8862 142.256 79.4244 141.235 79.3932 140.158M83.6134 142.586C84.1147 142.661 84.6272 142.582 85.082 142.361C85.5369 142.139 85.9122 141.785 86.1577 141.347C86.4031 140.908 86.5069 140.405 86.455 139.907C86.4031 139.408 86.1981 138.937 85.8675 138.556C85.5369 138.176 85.0966 137.905 84.6057 137.78C84.1148 137.655 83.5968 137.681 83.1215 137.855C82.6461 138.03 82.2361 138.344 81.9466 138.755C81.6571 139.167 81.5019 139.656 81.5019 140.158C81.4605 140.756 81.6588 141.346 82.054 141.8C82.4491 142.255 83.0094 142.537 83.6134 142.586" fill="black"/>
<path d="M79.0137 135.593H88.2182V137.089H79.0137V135.593Z" fill="black"/>
<path d="M90.9043 138.164H94.3884V139.66H90.9043V138.164Z" fill="black"/>
<path d="M82.5742 133.867H84.6577V136.017H82.5742V133.867Z" fill="black"/>
<path d="M90.1504 134.582H92.2367V145.804H90.1504V134.582Z" fill="black"/>
<path d="M83.7884 149.486V145.689H81.7021V149.69C81.6867 149.86 81.7083 150.031 81.7655 150.192C81.8227 150.354 81.9142 150.501 82.0338 150.624C82.1534 150.747 82.2983 150.843 82.4588 150.906C82.6193 150.969 82.7915 150.998 82.964 150.989H92.4854V149.493L83.7884 149.486Z" fill="black"/>
<path d="M160.46 149.486H150.685V144.976H148.69V149.69C148.675 149.861 148.697 150.033 148.755 150.195C148.813 150.357 148.906 150.504 149.027 150.627C149.147 150.751 149.293 150.847 149.455 150.909C149.617 150.972 149.79 150.999 149.963 150.99H160.46V149.486Z" fill="black"/>
<path d="M193.221 149.486H183.453V145.661H181.456V149.682C181.44 149.853 181.462 150.025 181.52 150.187C181.578 150.348 181.67 150.496 181.79 150.619C181.91 150.742 182.056 150.839 182.218 150.901C182.379 150.964 182.552 150.991 182.725 150.982H193.221V149.486Z" fill="black"/>
<path d="M49.6879 172.642C49.6879 177.043 51.6914 181.663 55.8948 183.563L53.8086 186.389C52.3995 185.651 51.152 184.645 50.1379 183.428C49.1239 182.211 48.3634 180.808 47.9003 179.299C47.4767 180.896 46.73 182.391 45.7053 183.694C44.6805 184.997 43.3992 186.081 41.9387 186.88L39.7949 184.052C44.0278 182.097 46.0341 177.288 46.0341 172.642V171.772H40.8465V168.86H54.8853V171.772H49.6977L49.6879 172.642ZM61.4176 166.446V191.553H57.7918V178.102H53.3417V175.19H57.7918V166.443L61.4176 166.446Z" fill="black"/>
<path d="M77.3512 180.684C76.1082 180.312 74.9561 179.691 73.967 178.859C72.9779 178.026 72.1731 177.001 71.6027 175.847C71.0339 177.1 70.2037 178.22 69.1666 179.133C68.1295 180.046 66.909 180.732 65.585 181.146L63.6895 178.348C65.3791 177.897 66.8758 176.918 67.9558 175.556C69.0357 174.194 69.6408 172.523 69.6805 170.793H64.6527V167.938H78.3326V170.789H73.3875C73.4493 172.435 74.0471 174.017 75.0918 175.299C76.1365 176.582 77.5722 177.497 79.1851 177.907L77.3512 180.684ZM67.1035 182.666H83.9998V191.524H80.3754V185.521H67.1035V182.666ZM87.3521 175.466H83.9998V181.551H80.3754V166.474H83.9998V172.506H87.3521V175.466Z" fill="black"/>
<path d="M110.018 188.209V191.063H91.2527V183.428H94.4396V178.621C92.2145 178.729 90.0932 178.759 88.2327 178.759L87.791 175.908C90.7606 175.908 94.3807 175.879 98.0667 175.662C98.3174 173.978 98.4826 172.283 98.5617 170.582H90.1002V167.727H102.158V168.598C102.179 170.87 102.032 173.141 101.718 175.393C102.507 175.307 103.295 175.208 104.08 175.093L104.327 177.618C102.254 177.99 100.163 178.254 98.0625 178.409V183.789H94.877V188.216L110.018 188.209ZM105.841 179.813V166.474H109.466V185.302H105.841V182.584H100.951V179.81L105.841 179.813Z" fill="black"/>
<path d="M116.728 168.457V174.515H122.002V168.457H125.601V185.71H113.123V168.457H116.728ZM116.728 182.859H122.002V177.312H116.728V182.859ZM132.851 166.446V191.553H129.224V166.446H132.851Z" fill="black"/>
<path d="M158.703 185.6V188.512H135.783V185.6H158.703ZM136.697 179.132C142.275 178.264 145.267 174.868 145.296 171.415H137.686V168.591H156.754V171.415H149.143C149.169 174.868 152.165 178.182 157.878 179.025L156.504 181.85C152.054 181.089 148.839 178.938 147.251 176.036C146.289 177.654 144.963 179.032 143.378 180.064C141.792 181.096 139.987 181.753 138.104 181.986L136.697 179.132Z" fill="black"/>
<path d="M164.612 182.261C168.181 182.202 171.738 181.838 175.244 181.173L175.627 184.164C171.558 184.974 167.414 185.365 163.263 185.33H161.012V168.841H164.611L164.612 182.261ZM180.82 166.453V191.48H177.193V166.446L180.82 166.453Z" fill="black"/>
<path d="M206.507 185.546V188.458H183.588V185.546H206.507ZM204.172 181.247C202.231 180.943 200.388 180.202 198.783 179.081C197.179 177.96 195.856 176.49 194.918 174.783C193.989 176.492 192.671 177.965 191.07 179.087C189.468 180.208 187.626 180.948 185.687 181.247L184.145 178.26C189.83 177.283 192.989 173.313 192.989 169.728V167.942H196.863V169.738C196.863 173.406 199.995 177.293 205.71 178.27L204.172 181.247Z" fill="black"/>
<path d="M217.277 173.213C217.194 175.325 217.745 177.413 218.86 179.217C219.974 181.02 221.603 182.456 223.541 183.346L221.563 186.172C220.137 185.529 218.862 184.601 217.816 183.446C216.771 182.291 215.98 180.935 215.491 179.462C215.032 181.035 214.251 182.498 213.197 183.76C212.143 185.022 210.839 186.056 209.364 186.799L207.303 183.944C211.534 182.069 213.594 177.477 213.594 173.213V171.826H208.319V168.864H222.495V171.826H217.276L217.277 173.213ZM228.458 166.474V191.497H224.831V166.474H228.458Z" fill="black"/>
<path d="M253.242 188.209V191.063H234.478V183.62H237.994V180.275C235.769 180.386 233.648 180.414 231.758 180.414L231.291 177.563C236.668 177.617 242.044 177.362 247.391 176.8L247.638 179.354C245.638 179.701 243.62 179.938 241.593 180.063V184.789H238.099V188.212L253.242 188.209ZM233.131 171.797C233.131 169.136 235.741 167.315 239.45 167.315C243.131 167.315 245.741 169.136 245.741 171.797C245.741 174.458 243.13 176.254 239.45 176.254C235.743 176.254 233.132 174.462 233.132 171.797H233.131ZM236.564 171.797C236.564 173.021 237.746 173.647 239.448 173.647C241.131 173.647 242.306 173.021 242.306 171.797C242.306 170.573 241.124 169.924 239.448 169.924C237.748 169.925 236.566 170.577 236.566 171.797H236.564ZM249.065 181.009V166.474H252.692V185.44H249.065V183.457H244.312V181.009H249.065Z" fill="black"/>
<path d="M265.665 181.39C263.793 180.506 262.329 178.954 261.569 177.045C260.717 179.209 259.068 180.975 256.955 181.988L254.977 179.27C256.457 178.547 257.696 177.416 258.544 176.014C259.391 174.613 259.813 172.999 259.758 171.366V168.155H263.274V171.361C263.195 172.865 263.568 174.359 264.345 175.655C265.123 176.951 266.27 177.991 267.643 178.643L265.665 181.39ZM277.506 188.21V191.064H259.84V183.021H263.467V188.209L277.506 188.21ZM268.385 175.088H265.384V172.176H268.38V166.907H271.759V184.462H268.38L268.385 175.088ZM276.874 185.195H273.44V166.476H276.874V185.195Z" fill="black"/>
<path d="M283.958 182.992C287.065 183.015 290.169 182.798 293.242 182.342L293.572 185.222C289.878 185.74 286.148 185.958 282.418 185.873H280.357V168.564H292.062V171.444H283.958V175.519H291.209V178.317H283.958V182.992ZM300.441 166.446V191.553H296.816V178.155H292.47V175.275H296.816V166.446H300.441Z" fill="black"/>
<path d="M48.1771 198.625L47.7862 199.078C47.5341 198.871 47.255 198.697 46.9558 198.562C46.4842 198.348 45.9731 198.234 45.4549 198.227L45.4549 198.227H45.4482C44.2513 198.227 43.2201 198.727 42.4992 199.632C41.7862 200.528 41.4023 201.784 41.4023 203.276C41.4023 204.775 41.7566 206.044 42.449 206.95C43.1527 207.87 44.1758 208.375 45.3991 208.375V208.375L45.4048 208.375C45.9914 208.368 46.5696 208.235 47.0993 207.985C47.4515 207.818 47.7767 207.602 48.0652 207.345L48.4412 207.783C48.0864 208.134 47.6711 208.421 47.2134 208.631C46.6278 208.899 45.9881 209.034 45.3422 209.024L45.3422 209.024L45.3348 209.024C43.9371 209.023 42.7261 208.51 41.8613 207.568C40.9944 206.623 40.4395 205.207 40.4395 203.342C40.4395 201.488 41.0085 200.05 41.896 199.081C42.7817 198.114 44.014 197.58 45.4148 197.58C45.9952 197.583 46.5686 197.705 47.0986 197.938C47.4926 198.111 47.8562 198.343 48.1771 198.625Z" fill="black" stroke="black"/>
<path d="M57.1232 204.341H57.0979C57.0319 203.521 56.7997 202.797 56.3983 202.241C56.3569 202.184 56.3138 202.129 56.269 202.075C56.5828 202.264 56.8688 202.497 57.1169 202.769C57.6078 203.308 57.9298 203.974 58.0446 204.689C58.1595 205.403 58.0624 206.136 57.7649 206.797C57.4673 207.458 56.9818 208.021 56.3664 208.416C55.7525 208.811 55.0358 209.021 54.3028 209.022C53.7752 209.01 53.2559 208.891 52.7765 208.674C52.2954 208.456 51.8648 208.143 51.511 207.755C51.1572 207.367 50.8876 206.912 50.7183 206.418C50.5497 205.926 50.4842 205.405 50.5258 204.887C50.6017 204.17 50.8858 203.488 51.3448 202.926C51.6189 202.59 51.9484 202.305 52.3176 202.082C52.2745 202.134 52.233 202.188 52.193 202.244C51.7174 202.91 51.4852 203.818 51.4852 204.841C51.4852 205.866 51.723 206.766 52.2028 207.425C52.6938 208.098 53.4188 208.487 54.2916 208.487C55.1658 208.487 55.8954 208.092 56.3914 207.42C56.8775 206.761 57.1232 205.861 57.1232 204.841V204.341Z" fill="black" stroke="black"/>
<path d="M60.8791 200.84H61.4985L61.5825 201.393L61.6471 201.818H62.0768H62.1259H62.321L62.4646 201.685C63.1401 201.063 64.009 200.685 64.9305 200.611C65.9298 200.616 66.6717 201.003 67.1782 201.665C67.7007 202.347 68.0067 203.369 68.0067 204.678C68.0067 207.541 66.3157 209.014 64.6105 209.021C63.8416 208.979 63.1137 208.668 62.5565 208.144L61.6759 207.317L61.7145 208.525L61.7633 210.052V212.446H60.8843L60.8791 200.84ZM67.0284 205.209H67.048V204.709C67.048 203.734 66.8922 202.86 66.472 202.217C66.0275 201.536 65.3292 201.177 64.4211 201.177H64.4009L64.3808 201.178C63.4127 201.257 62.5138 201.71 61.8808 202.443L61.7591 202.583V202.77V207.157V207.376L61.9198 207.524C62.547 208.103 63.3629 208.439 64.2184 208.472L64.2281 208.472L64.2379 208.472C65.0589 208.471 65.783 208.104 66.2874 207.429C66.7073 206.866 66.9609 206.112 67.0284 205.209Z" fill="black" stroke="black"/>
<path d="M76.8761 200.84L73.7767 209.678C73.4313 210.614 73.0464 211.335 72.5574 211.821C72.0862 212.288 71.4962 212.56 70.6677 212.56V212.56L70.657 212.56C70.4816 212.564 70.3068 212.551 70.1347 212.521L70.2599 212.016C70.347 212.029 70.4348 212.038 70.5229 212.043L70.5378 212.044H70.5527C71.8642 212.044 72.5678 211.061 72.9215 210.025L72.9248 210.015L72.9277 210.005L73.1114 209.386L73.161 209.218L73.0956 209.056L69.7782 200.84H70.6346L72.1946 205.12C72.2962 205.429 72.4024 205.758 72.5107 206.094C72.677 206.61 72.8485 207.142 73.0176 207.645L73.1322 207.985H73.4915H73.5742H73.9532L74.0556 207.62L74.763 205.099L76.1017 200.84H76.8761Z" fill="black" stroke="black"/>
<path d="M83.1634 200.609C82.6998 200.656 82.2571 200.822 81.8803 201.092C81.4999 201.364 81.2006 201.732 81.0127 202.156L80.9598 202.275C81.5321 201.601 82.2226 201.29 82.896 201.29C82.8968 201.29 82.8976 201.29 82.8984 201.29V201.79C83.0396 201.788 83.1804 201.798 83.3195 201.818L83.1634 200.609ZM83.1634 200.609C83.3 200.605 83.4362 200.616 83.5693 200.642L83.4235 201.328L83.1634 200.609ZM80.1874 203.713V208.807H79.3087L79.3099 200.839H79.9032L80.01 201.999L80.0518 202.453H80.5079H80.5556H80.818C80.5962 202.749 80.3954 203.105 80.2244 203.524L80.1874 203.615V203.713Z" fill="black" stroke="black"/>
<path d="M86.0421 196.94L86.0461 196.941C86.1679 196.95 86.2839 196.993 86.3801 197.066C86.4761 197.138 86.5479 197.236 86.5875 197.348C86.6271 197.459 86.633 197.578 86.6047 197.692C86.5763 197.807 86.5147 197.911 86.4266 197.992C86.3384 198.074 86.2275 198.128 86.1072 198.149C85.9869 198.169 85.8632 198.155 85.7516 198.107C85.6401 198.059 85.5459 197.98 85.48 197.881C85.4142 197.783 85.3793 197.667 85.379 197.55L84.879 197.551L85.3789 197.546C85.378 197.463 85.3946 197.381 85.4277 197.305C85.4608 197.228 85.5098 197.159 85.5719 197.102C85.6341 197.044 85.708 197 85.789 196.972C85.8701 196.945 85.9563 196.934 86.0421 196.94ZM86.5227 200.841V208.81H85.6412V200.841H86.5227Z" fill="black" stroke="black"/>
<path d="M90.3413 209.463L90.3716 209.448C90.312 209.522 90.2575 209.601 90.2084 209.684C90.0312 209.983 89.9306 210.32 89.9159 210.667L89.9154 210.678V210.688C89.9154 211.338 90.2713 211.839 90.8151 212.152C91.3375 212.452 92.0404 212.589 92.8371 212.589C93.7057 212.592 94.4639 212.386 95.0215 212.03C95.5735 211.679 95.9783 211.142 95.9783 210.5C95.9783 210.246 95.9278 210 95.8019 209.781C95.6746 209.559 95.4898 209.399 95.2765 209.286C94.8748 209.075 94.3435 209.021 93.779 209.021H92.4125C92.0379 209.018 91.6647 208.975 91.2993 208.894L91.1029 208.85L90.931 208.955C90.82 209.022 90.7158 209.099 90.6196 209.185V209.014V208.933V208.644L90.3699 208.5C90.1875 208.394 90.0382 208.242 89.9372 208.061C89.8382 207.882 89.7891 207.682 89.7944 207.48C89.8186 207.226 89.8998 206.981 90.0323 206.761C90.1671 206.538 90.3516 206.348 90.5724 206.204L90.7312 206.102C90.6638 206.186 90.6044 206.277 90.554 206.373C90.4318 206.606 90.3662 206.865 90.3627 207.129L90.3627 207.129V207.136C90.3627 207.535 90.5089 207.932 90.9145 208.196C91.2729 208.43 91.7722 208.516 92.3797 208.516H94.0468C95.0846 208.516 95.7832 208.677 96.2101 208.953C96.5952 209.203 96.8108 209.578 96.8108 210.201C96.8108 210.871 96.4583 211.512 95.7414 212.005C95.0194 212.501 93.9377 212.834 92.562 212.834H92.5613C91.5215 212.835 90.6802 212.644 90.1173 212.311C89.5827 211.995 89.3045 211.56 89.2989 210.989C89.3246 210.671 89.4319 210.365 89.6113 210.099C89.7941 209.829 90.0455 209.609 90.3413 209.463ZM93.9458 200.835H96.6607V201.237H95.4278H94.3251L95.0517 202.067C95.3691 202.429 95.5371 202.895 95.5239 203.372L95.5236 203.382L95.5237 203.391C95.5272 203.75 95.4543 204.106 95.3096 204.435C95.165 204.765 94.9516 205.061 94.6831 205.305C94.4146 205.548 94.097 205.733 93.7508 205.848C93.4045 205.963 93.0376 206.004 92.6739 205.969L92.6527 205.967L92.6313 205.967C92.2621 205.964 91.8979 205.884 91.5619 205.733L91.2993 205.616L91.0657 205.784C90.9689 205.853 90.8801 205.933 90.8004 206.02V205.785V205.717V205.472L90.607 205.322C90.3003 205.084 90.0518 204.781 89.8797 204.436C89.708 204.092 89.6164 203.715 89.6115 203.332C89.6116 202.957 89.6898 202.586 89.8412 202.242C89.993 201.898 90.2153 201.587 90.4945 201.331C90.7737 201.074 91.1038 200.877 91.4641 200.752C91.8245 200.627 92.2073 200.577 92.5884 200.605L92.6077 200.607L92.627 200.607C93.0189 200.605 93.4079 200.672 93.7757 200.806L93.8581 200.835H93.9458ZM94.7548 204.204C94.8424 203.924 94.8727 203.629 94.8441 203.337C94.8706 203.047 94.8387 202.753 94.7501 202.475C94.6554 202.177 94.498 201.902 94.2887 201.669C94.0794 201.436 93.8229 201.25 93.5363 201.123C93.2498 200.996 92.9395 200.93 92.6258 200.93C92.312 200.93 92.0017 200.996 91.7152 201.123C91.4286 201.25 91.1722 201.436 90.9628 201.669C90.7535 201.902 90.5961 202.177 90.5014 202.475C90.4128 202.753 90.381 203.047 90.4074 203.337C90.3789 203.629 90.4092 203.924 90.4967 204.204C90.5904 204.504 90.7473 204.781 90.9568 205.015C91.1663 205.25 91.4236 205.437 91.7112 205.566C91.9989 205.694 92.3106 205.76 92.6258 205.76C92.9409 205.76 93.2526 205.694 93.5403 205.566C93.828 205.437 94.0852 205.25 94.2947 205.015C94.5042 204.781 94.6611 204.504 94.7548 204.204Z" fill="black" stroke="black"/>
<path d="M101.93 200.98C102.37 200.767 102.849 200.642 103.339 200.612C104.176 200.615 104.704 200.886 105.042 201.334C105.403 201.812 105.61 202.573 105.61 203.666V208.808H104.715V203.9C104.715 203.1 104.6 202.425 104.257 201.945C103.884 201.423 103.321 201.232 102.682 201.232H102.662L102.642 201.233C102.134 201.275 101.641 201.423 101.195 201.668C100.926 201.816 100.679 201.997 100.458 202.206L100.763 201.862C101.088 201.494 101.485 201.194 101.93 200.98ZM99.836 202.908L100.045 202.672L99.9572 202.789V202.956V208.814H99.0756L99.0743 196.812H99.9558V199.743L99.8888 201.512L99.836 202.908Z" fill="black" stroke="black"/>
<path d="M109.198 201.84V201.34H108.698H107.877V200.904L108.814 200.839L109.24 200.81L109.277 200.384L109.453 198.361H110.093V200.337V200.837H110.593H112.45V201.337H110.593H110.093V201.837V206.388C110.093 206.967 110.192 207.51 110.506 207.914C110.841 208.344 111.341 208.519 111.913 208.519H111.921L111.929 208.518C112.131 208.512 112.333 208.486 112.53 208.443L112.632 208.853C112.244 208.954 111.845 209.01 111.444 209.02C110.532 209.02 110.012 208.745 109.7 208.348C109.368 207.926 109.198 207.273 109.198 206.374V201.84Z" fill="black" stroke="black"/>
<path d="M122.032 208.809H118.475L118.476 197.806H121.736C122.944 197.806 123.906 197.999 124.551 198.395C125.158 198.768 125.522 199.341 125.522 200.258V200.267L125.523 200.277C125.54 200.728 125.414 201.173 125.162 201.551C124.909 201.928 124.543 202.219 124.114 202.382L123.791 202.504V202.85V202.931V203.366L124.221 203.426C124.786 203.506 125.299 203.791 125.661 204.223C126.023 204.655 126.209 205.205 126.183 205.764L126.183 205.775V205.786C126.183 206.818 125.768 207.545 125.077 208.032C124.364 208.535 123.315 208.809 122.032 208.809ZM119.89 198.276H119.39V198.776V202.313V202.813H119.89H121.52C122.492 202.813 123.273 202.635 123.821 202.233C124.397 201.81 124.644 201.193 124.644 200.503C124.644 199.744 124.372 199.134 123.771 198.748C123.218 198.393 122.454 198.276 121.572 198.276H119.89ZM121.819 208.325H121.819C122.811 208.325 123.676 208.153 124.305 207.719C124.967 207.262 125.303 206.563 125.303 205.687C125.303 204.855 124.964 204.201 124.3 203.785C123.676 203.394 122.817 203.245 121.819 203.245H119.89H119.39V203.745V207.823V208.323L119.889 208.323L121.819 208.325Z" fill="black" stroke="black"/>
<path d="M128.775 205.98V200.84H129.671V205.747C129.671 206.546 129.78 207.218 130.12 207.695C130.491 208.216 131.054 208.401 131.688 208.401C132.197 208.401 132.645 208.28 133.074 208.011C133.488 207.751 133.864 207.366 134.256 206.877L134.365 206.74V206.564V200.834H135.261V208.803H134.657L134.557 207.895L134.508 207.449H134.06H134.024H133.769L133.619 207.656C133.324 208.063 132.938 208.397 132.491 208.634C132.045 208.868 131.551 208.999 131.047 209.016C130.199 209.014 129.672 208.747 129.337 208.304C128.98 207.832 128.775 207.078 128.775 205.98Z" fill="black" stroke="black"/>
<path d="M143.166 201.277L142.886 201.641C142.317 201.284 141.661 201.079 140.983 201.048L140.972 201.047H140.961C140.388 201.047 139.898 201.189 139.542 201.486C139.177 201.791 139.008 202.215 139.008 202.657C139.008 203.296 139.422 203.694 139.846 203.947C140.209 204.163 140.674 204.331 141.101 204.485C141.157 204.505 141.212 204.525 141.266 204.545C141.912 204.785 142.499 205.017 142.932 205.367C143.335 205.692 143.603 206.118 143.603 206.799C143.603 207.407 143.362 207.947 142.897 208.343C142.427 208.742 141.692 209.023 140.663 209.024C139.691 209.001 138.75 208.705 137.948 208.175L138.235 207.787C138.954 208.29 139.809 208.575 140.696 208.602L140.704 208.602H140.711C141.329 208.602 141.855 208.455 142.236 208.143C142.628 207.821 142.81 207.371 142.81 206.896C142.81 206.235 142.38 205.809 141.941 205.533C141.544 205.284 141.038 205.092 140.591 204.923C140.552 204.908 140.514 204.894 140.477 204.88L140.476 204.879C139.876 204.652 139.297 204.402 138.869 204.052C138.461 203.719 138.209 203.313 138.209 202.737C138.209 202.123 138.452 201.608 138.891 201.239C139.336 200.865 140.017 200.613 140.922 200.612C141.722 200.624 142.498 200.855 143.166 201.277Z" fill="black" stroke="black"/>
<path d="M146.603 196.94L146.608 196.941C146.73 196.949 146.846 196.993 146.942 197.066C147.038 197.138 147.11 197.236 147.15 197.347C147.19 197.458 147.196 197.578 147.167 197.692C147.139 197.806 147.077 197.911 146.989 197.992C146.901 198.074 146.79 198.128 146.67 198.149C146.55 198.169 146.426 198.155 146.314 198.107C146.203 198.059 146.108 197.981 146.043 197.882C145.977 197.783 145.942 197.668 145.941 197.55L145.441 197.551L145.941 197.545C145.94 197.463 145.957 197.381 145.99 197.304C146.023 197.228 146.072 197.159 146.134 197.102C146.196 197.044 146.27 197 146.35 196.972C146.431 196.945 146.517 196.934 146.603 196.94ZM146.205 200.841H147.084V208.81H146.205V200.841Z" fill="black" stroke="black"/>
<path d="M153.343 200.995C153.794 200.774 154.286 200.644 154.789 200.611C155.625 200.615 156.153 200.885 156.491 201.334C156.852 201.812 157.06 202.572 157.06 203.665V208.808H156.168V203.9C156.168 203.099 156.053 202.424 155.71 201.944C155.337 201.422 154.772 201.231 154.133 201.231H154.112L154.091 201.233C153.584 201.275 153.091 201.423 152.646 201.668C152.201 201.913 151.813 202.25 151.508 202.655L151.408 202.788V202.955V208.813H150.529L150.524 200.84H151.132L151.228 201.638L151.281 202.078H151.724H151.772H151.998L152.148 201.908C152.481 201.528 152.887 201.218 153.343 200.995Z" fill="black" stroke="black"/>
<path d="M159.753 204.885L159.255 204.841L159.753 204.797C159.708 204.283 159.767 203.766 159.927 203.275C160.088 202.784 160.346 202.33 160.688 201.939C161.03 201.549 161.448 201.23 161.917 201.001C162.382 200.775 162.889 200.642 163.407 200.611C164.475 200.615 165.245 200.991 165.758 201.606C166.284 202.237 166.586 203.175 166.586 204.368H166.586L166.586 204.376C166.588 204.522 166.583 204.667 166.57 204.813H161.117H160.623L160.617 205.306C160.612 205.738 160.694 206.167 160.86 206.566C161.026 206.966 161.271 207.327 161.581 207.63C161.89 207.933 162.258 208.171 162.663 208.329C163.065 208.487 163.496 208.564 163.928 208.554C164.615 208.55 165.288 208.385 165.894 208.077L166.073 208.399C165.341 208.802 164.515 209.018 163.672 209.023L163.672 209.023L163.665 209.023C163.124 209.032 162.587 208.93 162.089 208.721C161.591 208.512 161.143 208.202 160.774 207.812C160.406 207.421 160.125 206.959 159.949 206.455C159.773 205.951 159.707 205.416 159.753 204.885ZM165.455 204.524H165.955V204.024C165.955 203.182 165.763 202.442 165.321 201.904C164.868 201.35 164.207 201.078 163.425 201.078H163.411L163.398 201.079C162.64 201.12 161.926 201.448 161.405 201.997C160.884 202.546 160.595 203.273 160.6 204.028L160.604 204.524H161.1H165.455Z" fill="black" stroke="black"/>
<path d="M173.756 201.276L173.476 201.64C172.907 201.283 172.251 201.077 171.573 201.047L171.562 201.047H171.551C170.978 201.047 170.488 201.188 170.132 201.485C169.767 201.79 169.598 202.214 169.598 202.656C169.598 203.295 170.012 203.693 170.436 203.946C170.799 204.162 171.264 204.33 171.691 204.484C171.747 204.504 171.802 204.524 171.856 204.544C172.502 204.784 173.089 205.016 173.522 205.366C173.925 205.691 174.193 206.117 174.193 206.798C174.193 207.406 173.952 207.946 173.486 208.342C173.016 208.741 172.281 209.022 171.253 209.023C170.281 209.001 169.339 208.705 168.538 208.174L168.824 207.787C169.543 208.289 170.398 208.574 171.284 208.601L171.292 208.601H171.3C171.918 208.601 172.444 208.454 172.825 208.142C173.218 207.821 173.401 207.371 173.401 206.895C173.401 206.234 172.971 205.808 172.532 205.532C172.135 205.283 171.629 205.091 171.182 204.922C171.144 204.907 171.105 204.893 171.068 204.879L171.067 204.878C170.466 204.651 169.887 204.401 169.459 204.051C169.051 203.718 168.799 203.312 168.799 202.736C168.799 202.122 169.042 201.607 169.481 201.238C169.926 200.864 170.606 200.612 171.512 200.611C172.312 200.623 173.088 200.854 173.756 201.276Z" fill="black" stroke="black"/>
<path d="M181.256 201.276L180.976 201.64C180.407 201.283 179.752 201.078 179.074 201.047L179.063 201.047H179.051C178.479 201.047 177.989 201.188 177.633 201.485C177.268 201.79 177.099 202.214 177.099 202.656C177.099 203.295 177.512 203.693 177.936 203.946C178.299 204.162 178.765 204.33 179.192 204.484C179.247 204.504 179.302 204.524 179.356 204.544C180.002 204.784 180.59 205.016 181.023 205.366C181.425 205.691 181.692 206.117 181.692 206.798C181.692 207.407 181.452 207.947 180.987 208.342C180.517 208.741 179.783 209.022 178.754 209.023C177.785 208.999 176.846 208.703 176.046 208.174L176.332 207.786C177.052 208.289 177.907 208.574 178.794 208.601L178.801 208.601H178.809C179.427 208.601 179.953 208.454 180.334 208.142C180.725 207.82 180.907 207.37 180.907 206.895C180.907 206.234 180.477 205.808 180.039 205.532C179.642 205.283 179.136 205.091 178.689 204.922C178.65 204.907 178.612 204.893 178.574 204.879L178.574 204.878C177.973 204.651 177.395 204.401 176.967 204.051C176.559 203.718 176.307 203.312 176.307 202.736C176.307 202.122 176.55 201.607 176.989 201.238C177.434 200.864 178.114 200.612 179.02 200.611C179.817 200.623 180.591 200.855 181.256 201.276Z" fill="black" stroke="black"/>
<path d="M187.1 207.717L187.568 207.172C188.455 207.908 189.568 208.334 190.734 208.372L190.742 208.373H190.751C191.555 208.373 192.247 208.186 192.75 207.801C193.267 207.406 193.542 206.833 193.542 206.177C193.542 205.47 193.261 204.973 192.806 204.601C192.417 204.282 191.894 204.054 191.386 203.832C191.357 203.819 191.327 203.806 191.298 203.793L191.298 203.793L191.293 203.791L189.61 203.075L189.585 203.064L189.558 203.056C188.965 202.878 188.444 202.523 188.065 202.041C187.691 201.566 187.474 200.99 187.441 200.391C187.471 199.989 187.582 199.596 187.767 199.236C187.956 198.867 188.219 198.539 188.54 198.273C188.862 198.006 189.234 197.807 189.636 197.686C190.038 197.566 190.46 197.527 190.878 197.572L190.904 197.575L190.93 197.575C192.026 197.577 193.08 197.957 193.917 198.639L193.539 199.091C192.793 198.535 191.882 198.228 190.94 198.222V198.222H190.937C190.247 198.222 189.62 198.385 189.152 198.736C188.669 199.097 188.393 199.633 188.393 200.271C188.393 200.98 188.744 201.471 189.203 201.815C189.629 202.134 190.179 202.351 190.654 202.538L190.667 202.544L192.327 203.243L192.357 203.256L192.388 203.264C192.998 203.434 193.535 203.796 193.915 204.295C194.295 204.794 194.499 205.402 194.496 206.026V206.028C194.496 207.607 193.176 209.019 190.724 209.019L190.722 209.019C189.985 209.022 189.255 208.881 188.574 208.604C188.038 208.385 187.541 208.086 187.1 207.717Z" fill="black" stroke="black"/>
<path d="M197.094 205.98V200.84H197.989V205.747C197.989 206.546 198.099 207.219 198.439 207.696C198.81 208.216 199.372 208.401 200.006 208.401C200.515 208.401 200.963 208.28 201.392 208.011C201.806 207.751 202.181 207.366 202.574 206.877L202.684 206.74V206.564V200.834H203.579V208.803H202.977L202.877 207.895L202.828 207.449H202.38H202.332H202.077L201.928 207.656C201.633 208.063 201.247 208.397 200.799 208.633C200.354 208.868 199.86 208.999 199.355 209.016C198.513 209.014 197.989 208.747 197.654 208.304C197.298 207.832 197.094 207.078 197.094 205.98Z" fill="black" stroke="black"/>
<path d="M207.016 200.84H207.636L207.721 201.394L207.786 201.818H208.215H208.263H208.458L208.601 201.686C209.277 201.064 210.146 200.685 211.067 200.611C212.067 200.616 212.808 201.003 213.315 201.665C213.837 202.347 214.143 203.369 214.143 204.678C214.143 207.541 212.451 209.014 210.747 209.021C209.978 208.978 209.251 208.667 208.693 208.144L207.813 207.318L207.851 208.525L207.9 210.052V212.446H207.021L207.016 200.84ZM213.165 205.209H213.185V204.709C213.185 203.734 213.029 202.86 212.609 202.217C212.164 201.536 211.466 201.177 210.558 201.177H210.538L210.518 201.178C209.549 201.257 208.651 201.71 208.018 202.443L207.896 202.583V202.77V207.157V207.376L208.057 207.524C208.684 208.103 209.5 208.439 210.355 208.472L210.365 208.472L210.375 208.472C211.196 208.471 211.92 208.104 212.424 207.429C212.844 206.866 213.098 206.112 213.165 205.209Z" fill="black" stroke="black"/>
<path d="M218.573 201.686C219.249 201.064 220.119 200.685 221.041 200.611C222.039 200.616 222.781 201.003 223.288 201.665C223.811 202.347 224.117 203.369 224.117 204.678C224.117 207.541 222.423 209.014 220.72 209.021C219.949 208.98 219.218 208.669 218.658 208.144L217.778 207.318L217.816 208.525L217.865 210.052V212.446H216.986L216.988 200.84H217.609L217.693 201.393L217.757 201.818H218.187H218.235H218.43L218.573 201.686ZM223.137 205.209H223.157V204.709C223.157 203.734 223.001 202.86 222.581 202.217C222.136 201.536 221.438 201.177 220.53 201.177H220.51L220.49 201.178C219.522 201.257 218.623 201.71 217.99 202.443L217.868 202.583V202.77V207.157V207.376L218.029 207.524C218.657 208.103 219.473 208.439 220.329 208.472L220.338 208.472L220.348 208.472C221.169 208.471 221.892 208.104 222.396 207.429C222.816 206.866 223.07 206.112 223.137 205.209Z" fill="black" stroke="black"/>
<path d="M232.913 204.341H232.889C232.823 203.521 232.591 202.797 232.19 202.242C232.148 202.184 232.105 202.129 232.061 202.076C232.374 202.264 232.66 202.497 232.908 202.769C233.399 203.308 233.721 203.974 233.836 204.689C233.951 205.403 233.854 206.136 233.556 206.797C233.258 207.458 232.773 208.021 232.158 208.416C231.544 208.811 230.827 209.021 230.094 209.022C229.566 209.01 229.047 208.892 228.567 208.674C228.086 208.456 227.656 208.144 227.302 207.756C226.948 207.368 226.678 206.913 226.509 206.419C226.341 205.926 226.275 205.405 226.317 204.887C226.393 204.17 226.677 203.488 227.136 202.926C227.411 202.589 227.741 202.303 228.111 202.08C228.068 202.133 228.026 202.187 227.986 202.244C227.509 202.91 227.276 203.817 227.276 204.841C227.276 205.866 227.514 206.766 227.994 207.425C228.485 208.098 229.211 208.487 230.084 208.487C230.959 208.487 231.688 208.092 232.183 207.42C232.668 206.76 232.913 205.86 232.913 204.841V204.341Z" fill="black" stroke="black"/>
<path d="M239.242 201.092C239.619 200.823 240.061 200.656 240.525 200.609C240.661 200.605 240.798 200.616 240.931 200.642L240.785 201.328C240.611 201.301 240.434 201.288 240.257 201.29C239.584 201.29 238.894 201.6 238.323 202.274L238.375 202.156C238.563 201.732 238.862 201.365 239.242 201.092ZM237.551 203.713V208.807H236.67V200.839H237.266L237.373 201.999L237.415 202.453H237.871H237.918H238.18C237.959 202.749 237.759 203.105 237.588 203.525L237.551 203.615V203.713Z" fill="black" stroke="black"/>
<path d="M243.297 201.84V201.34H242.797H241.971V200.904L242.907 200.839L243.334 200.81L243.371 200.384L243.546 198.361H244.195V200.337V200.837H244.695H246.552V201.337H244.695H244.195V201.837V206.388C244.195 206.967 244.294 207.51 244.608 207.914C244.943 208.344 245.443 208.519 246.015 208.519H246.023L246.03 208.518C246.233 208.512 246.434 208.487 246.631 208.443L246.734 208.854C246.347 208.954 245.948 209.01 245.547 209.02C244.634 209.02 244.112 208.745 243.8 208.348C243.468 207.926 243.297 207.272 243.297 206.374V201.84Z" fill="black" stroke="black"/>
<path d="M259.655 198.625L259.264 199.078C259.012 198.871 258.733 198.697 258.434 198.562C257.962 198.348 257.451 198.234 256.933 198.227L256.933 198.227H256.926C255.729 198.227 254.698 198.727 253.977 199.632C253.264 200.528 252.88 201.784 252.88 203.276C252.88 204.775 253.235 206.044 253.927 206.95C254.631 207.87 255.654 208.375 256.877 208.375V208.375L256.883 208.375C257.469 208.368 258.048 208.235 258.577 207.985C258.929 207.818 259.255 207.602 259.543 207.345L259.919 207.783C259.564 208.134 259.149 208.421 258.691 208.631C258.106 208.899 257.466 209.034 256.82 209.024L256.82 209.024L256.813 209.024C255.412 209.023 254.201 208.51 253.337 207.568C252.47 206.623 251.916 205.207 251.916 203.342C251.916 201.488 252.485 200.05 253.373 199.081C254.258 198.114 255.491 197.58 256.891 197.58C257.472 197.583 258.046 197.704 258.576 197.938C258.97 198.111 259.334 198.343 259.655 198.625Z" fill="black" stroke="black"/>
<path d="M264.913 208.329C265.316 208.487 265.746 208.564 266.179 208.554C266.865 208.55 267.539 208.386 268.145 208.077L268.324 208.399C267.592 208.802 266.766 209.018 265.922 209.023V209.023L265.916 209.023C265.375 209.032 264.838 208.929 264.34 208.72C263.842 208.511 263.395 208.201 263.026 207.811C262.658 207.421 262.377 206.958 262.201 206.454C262.025 205.95 261.959 205.416 262.005 204.885L261.507 204.841L262.005 204.797C261.96 204.283 262.019 203.766 262.179 203.275C262.34 202.784 262.598 202.33 262.94 201.939C263.282 201.549 263.7 201.23 264.169 201.001C264.634 200.775 265.141 200.642 265.659 200.611C266.726 200.615 267.497 200.991 268.01 201.607C268.536 202.237 268.839 203.175 268.839 204.368H268.839L268.839 204.375C268.841 204.521 268.835 204.667 268.822 204.813H263.368H262.874L262.868 205.307C262.862 205.738 262.945 206.167 263.111 206.566C263.277 206.965 263.522 207.327 263.832 207.63C264.141 207.933 264.509 208.17 264.913 208.329ZM267.707 204.524H268.207V204.024C268.207 203.182 268.015 202.442 267.574 201.904C267.12 201.35 266.46 201.078 265.68 201.078H265.666L265.653 201.079C264.895 201.12 264.181 201.448 263.659 201.996C263.137 202.545 262.848 203.273 262.854 204.028L262.857 204.524H263.354H267.707Z" fill="black" stroke="black"/>
<path d="M274.37 200.995C274.822 200.774 275.313 200.644 275.816 200.611C276.653 200.615 277.18 200.885 277.519 201.334C277.879 201.812 278.087 202.572 278.087 203.665V208.808H277.191V203.9C277.191 203.099 277.077 202.424 276.733 201.944C276.36 201.423 275.796 201.231 275.157 201.231H275.137L275.117 201.233C274.609 201.274 274.116 201.422 273.67 201.667C273.224 201.913 272.836 202.249 272.532 202.656L272.432 202.789V202.955V208.813H271.551V200.84H272.159L272.255 201.638L272.308 202.078H272.751H272.799H273.026L273.175 201.908C273.508 201.528 273.914 201.218 274.37 200.995Z" fill="black" stroke="black"/>
<path d="M281.721 201.84V201.34H281.221H280.4V200.904L281.337 200.839L281.764 200.81L281.801 200.384L281.976 198.361H282.615V200.337V200.837H283.115H284.972V201.337H283.115H282.615V201.837V206.388C282.615 206.967 282.714 207.51 283.028 207.914C283.363 208.345 283.863 208.519 284.436 208.519H284.444L284.452 208.518C284.654 208.512 284.855 208.486 285.052 208.443L285.154 208.854C284.768 208.953 284.37 209.01 283.97 209.02C283.058 209.02 282.536 208.745 282.224 208.348C281.892 207.926 281.721 207.272 281.721 206.374V201.84Z" fill="black" stroke="black"/>
<path d="M286.619 204.885L286.121 204.841L286.619 204.797C286.573 204.283 286.632 203.766 286.792 203.275C286.953 202.784 287.211 202.33 287.553 201.939C287.895 201.548 288.313 201.229 288.782 201.001C289.248 200.775 289.754 200.642 290.272 200.611C291.339 200.615 292.11 200.991 292.623 201.606C293.149 202.237 293.451 203.175 293.451 204.368H293.451L293.451 204.376C293.453 204.522 293.448 204.668 293.435 204.813H287.98H287.486L287.48 205.307C287.474 205.738 287.557 206.167 287.723 206.566C287.889 206.965 288.134 207.327 288.444 207.63C288.753 207.933 289.121 208.17 289.525 208.329C289.928 208.487 290.358 208.564 290.791 208.554C291.477 208.55 292.149 208.385 292.755 208.077L292.935 208.4C292.203 208.802 291.377 209.018 290.534 209.023L290.534 209.023L290.529 209.023C289.988 209.032 289.451 208.929 288.953 208.72C288.455 208.511 288.008 208.201 287.639 207.81C287.271 207.42 286.99 206.958 286.815 206.454C286.639 205.95 286.572 205.416 286.619 204.885ZM292.319 204.524H292.819V204.024C292.819 203.182 292.627 202.442 292.187 201.904C291.733 201.35 291.073 201.078 290.292 201.078H290.278L290.265 201.079C289.507 201.12 288.793 201.448 288.271 201.996C287.75 202.545 287.461 203.273 287.467 204.028L287.471 204.524H287.967H292.319Z" fill="black" stroke="black"/>
<path d="M298.733 201.092C299.109 200.822 299.551 200.656 300.014 200.609C300.151 200.605 300.288 200.616 300.421 200.642L300.275 201.328C300.1 201.301 299.924 201.288 299.747 201.29C299.076 201.29 298.386 201.599 297.815 202.271L297.866 202.155C298.054 201.732 298.353 201.364 298.733 201.092ZM297.041 203.713V208.807H296.162V200.839H296.755L296.862 201.999L296.904 202.453H297.36H297.409H297.67C297.448 202.749 297.248 203.105 297.078 203.525L297.041 203.615V203.713Z" fill="black" stroke="black"/>
</svg>
