<svg width="340" height="340" viewBox="0 0 340 340" fill="none" xmlns="http://www.w3.org/2000/svg">
<path d="M22 159.503H30.4208V186.104H34.9779V159.503H43.3987V154.172H22V159.503Z" fill="black"/>
<path d="M54.5879 186.104H59.4422L61.8694 177.734H72.3708L74.7979 186.104H79.6028L70.3894 154.172H63.8012L54.5879 186.104ZM67.12 159.561L70.8352 172.402H63.405L67.12 159.561Z" fill="black"/>
<path d="M109.666 186.104H127.796V180.772H114.273V154.172H109.666V186.104Z" fill="black"/>
<path d="M92.0117 186.104H96.6184V154.172H92.0117V186.104Z" fill="black"/>
<path d="M138.936 170.167C138.936 173.033 139.579 175.67 140.818 178.135C143.295 183.008 147.753 186.104 152.706 186.104C155.232 186.104 157.511 185.359 159.641 183.925C163.851 181.059 166.526 175.899 166.526 170.167C166.526 167.243 165.932 164.606 164.693 162.141C162.217 157.268 157.709 154.172 152.706 154.172C150.229 154.172 147.951 154.86 145.821 156.293C141.61 159.159 138.936 164.376 138.936 170.167ZM143.542 170.167C143.542 164.319 147.703 159.503 152.706 159.503C157.759 159.503 161.919 164.319 161.919 170.167C161.919 175.957 157.759 180.772 152.706 180.772C147.703 180.772 143.542 175.957 143.542 170.167Z" fill="black"/>
<path d="M177.441 154.172V186.104H182.048V175.039H189.528L193.54 186.104H198.493L194.035 173.664C196.809 171.829 198.593 168.447 198.593 164.606C198.593 162.714 198.196 160.994 197.404 159.389C195.769 156.178 192.797 154.172 189.577 154.172H177.441ZM182.048 159.503H189.577C192.004 159.503 193.986 161.797 193.986 164.606C193.986 167.415 192.004 169.708 189.577 169.708H182.048V159.503Z" fill="black"/>
<path d="M210.154 180.371C213.275 184.327 217.683 186.276 222.043 186.276C223.974 186.276 225.708 185.932 227.244 185.244C230.761 183.811 232.742 180.715 232.742 177.103C232.742 174.409 232.197 172.288 231.058 170.855C228.779 167.931 225.956 167.358 221.646 166.842C219.813 166.612 218.476 166.383 217.634 166.096C215.851 165.58 215.306 164.663 215.306 162.829C215.306 161.854 215.851 161.109 216.891 160.478C218.228 159.733 219.913 159.389 221.844 159.389C224.965 159.389 228.036 160.306 230.067 162.141L232.89 157.841C230.067 155.376 225.956 154 221.844 154C219.12 154 216.792 154.573 214.86 155.663C212.136 157.21 210.65 159.79 210.65 162.829C210.65 165.294 211.195 167.186 212.284 168.504C214.414 171.141 217.139 171.715 221.151 172.231C223.083 172.46 224.569 172.746 225.51 173.033C227.392 173.664 228.135 174.753 228.135 177.218C228.135 178.766 226.798 179.741 225.609 180.199C224.569 180.658 223.38 180.887 222.043 180.887C218.922 180.887 215.752 179.511 213.622 176.759L210.154 180.371Z" fill="black"/>
<path d="M244.504 154.172V186.104H249.061V172.804H261.989V186.104H266.596V154.172H261.989V167.472H249.061V154.172H244.504Z" fill="black"/>
<path d="M279.312 186.104H283.919V154.172H279.312V186.104Z" fill="black"/>
<path d="M296.85 154.172V186.104H301.407V175.039H308.985C310.62 175.039 312.106 174.581 313.493 173.606C316.267 171.772 318.001 168.332 318.001 164.606C318.001 162.714 317.604 160.994 316.812 159.389C315.177 156.178 312.205 154.172 308.985 154.172H296.85ZM301.407 159.503H308.985C311.413 159.503 313.394 161.797 313.394 164.606C313.394 167.415 311.413 169.708 308.985 169.708H301.407V159.503Z" fill="black"/>
</svg>
