<svg width="340" height="340" viewBox="0 0 340 340" fill="none" xmlns="http://www.w3.org/2000/svg">
<path d="M25.8693 185V155.909H37.0057C39.108 155.909 40.8551 156.241 42.2472 156.903C43.6487 157.557 44.6951 158.452 45.3864 159.588C46.0871 160.724 46.4375 162.012 46.4375 163.452C46.4375 164.635 46.2102 165.649 45.7557 166.491C45.3011 167.325 44.6903 168.002 43.9233 168.523C43.1562 169.044 42.2992 169.418 41.3523 169.645V169.929C42.3845 169.986 43.3741 170.303 44.321 170.881C45.2775 171.449 46.0587 172.254 46.6648 173.295C47.2708 174.337 47.5739 175.597 47.5739 177.074C47.5739 178.58 47.2093 179.934 46.4801 181.136C45.7509 182.33 44.6525 183.272 43.1847 183.963C41.7169 184.654 39.8703 185 37.6449 185H25.8693ZM31.1392 180.597H36.8068C38.7197 180.597 40.0975 180.232 40.9403 179.503C41.7926 178.764 42.2188 177.817 42.2188 176.662C42.2188 175.8 42.0057 175.024 41.5795 174.332C41.1534 173.632 40.5473 173.082 39.7614 172.685C38.9754 172.277 38.0379 172.074 36.9489 172.074H31.1392V180.597ZM31.1392 168.281H36.3523C37.2614 168.281 38.0805 168.116 38.8097 167.784C39.5388 167.443 40.1117 166.965 40.5284 166.349C40.9545 165.724 41.1676 164.986 41.1676 164.134C41.1676 163.007 40.7699 162.079 39.9744 161.349C39.1884 160.62 38.0189 160.256 36.4659 160.256H31.1392V168.281ZM55.8942 185H50.2692L60.5107 155.909H67.0163L77.272 185H71.647L63.8771 161.875H63.6499L55.8942 185ZM56.0788 173.594H71.4197V177.827H56.0788V173.594ZM81.1037 185V155.909H92.2401C94.3423 155.909 96.0895 156.241 97.4815 156.903C98.883 157.557 99.9295 158.452 100.621 159.588C101.321 160.724 101.672 162.012 101.672 163.452C101.672 164.635 101.445 165.649 100.99 166.491C100.536 167.325 99.9247 168.002 99.1577 168.523C98.3906 169.044 97.5336 169.418 96.5866 169.645V169.929C97.6188 169.986 98.6084 170.303 99.5554 170.881C100.512 171.449 101.293 172.254 101.899 173.295C102.505 174.337 102.808 175.597 102.808 177.074C102.808 178.58 102.444 179.934 101.714 181.136C100.985 182.33 99.8868 183.272 98.419 183.963C96.9512 184.654 95.1046 185 92.8793 185H81.1037ZM86.3736 180.597H92.0412C93.9541 180.597 95.3319 180.232 96.1747 179.503C97.027 178.764 97.4531 177.817 97.4531 176.662C97.4531 175.8 97.2401 175.024 96.8139 174.332C96.3878 173.632 95.7817 173.082 94.9957 172.685C94.2098 172.277 93.2723 172.074 92.1832 172.074H86.3736V180.597ZM86.3736 168.281H91.5866C92.4957 168.281 93.3149 168.116 94.044 167.784C94.7732 167.443 95.3461 166.965 95.7628 166.349C96.1889 165.724 96.402 164.986 96.402 164.134C96.402 163.007 96.0043 162.079 95.2088 161.349C94.4228 160.62 93.2533 160.256 91.7003 160.256H86.3736V168.281ZM111.129 185H105.504L115.745 155.909H122.251L132.506 185H126.881L119.112 161.875H118.884L111.129 185ZM111.313 173.594H126.654V177.827H111.313V173.594ZM135.571 158.295V155.909H156.665V158.295H147.446V185H144.79V158.295H135.571ZM162.645 185V155.909H165.301V169.247H181.807V155.909H184.463V185H181.807V171.634H165.301V185H162.645ZM192.176 185V155.909H209.051V158.295H194.832V169.247H208.156V171.634H194.832V182.614H209.335V185H192.176ZM217.418 185.213C216.859 185.213 216.376 185.014 215.969 184.616C215.571 184.209 215.372 183.726 215.372 183.168C215.372 182.599 215.571 182.116 215.969 181.719C216.376 181.321 216.859 181.122 217.418 181.122C217.986 181.122 218.469 181.321 218.866 181.719C219.264 182.116 219.463 182.599 219.463 183.168C219.463 183.537 219.368 183.878 219.179 184.19C218.999 184.503 218.753 184.754 218.44 184.943C218.137 185.123 217.796 185.213 217.418 185.213ZM249.452 165H246.782C246.583 164.006 246.223 163.087 245.702 162.244C245.191 161.392 244.547 160.649 243.771 160.014C242.994 159.38 242.113 158.887 241.129 158.537C240.144 158.187 239.078 158.011 237.933 158.011C236.095 158.011 234.419 158.49 232.904 159.446C231.398 160.402 230.191 161.809 229.282 163.665C228.382 165.511 227.933 167.775 227.933 170.455C227.933 173.153 228.382 175.426 229.282 177.273C230.191 179.119 231.398 180.521 232.904 181.477C234.419 182.424 236.095 182.898 237.933 182.898C239.078 182.898 240.144 182.723 241.129 182.372C242.113 182.022 242.994 181.534 243.771 180.909C244.547 180.275 245.191 179.531 245.702 178.679C246.223 177.827 246.583 176.903 246.782 175.909H249.452C249.216 177.244 248.771 178.49 248.117 179.645C247.473 180.791 246.649 181.795 245.646 182.656C244.651 183.518 243.505 184.19 242.208 184.673C240.911 185.156 239.486 185.398 237.933 185.398C235.489 185.398 233.321 184.787 231.427 183.565C229.533 182.334 228.046 180.601 226.967 178.366C225.897 176.132 225.362 173.494 225.362 170.455C225.362 167.415 225.897 164.777 226.967 162.543C228.046 160.308 229.533 158.58 231.427 157.358C233.321 156.127 235.489 155.511 237.933 155.511C239.486 155.511 240.911 155.753 242.208 156.236C243.505 156.709 244.651 157.382 245.646 158.253C246.649 159.115 247.473 160.118 248.117 161.264C248.771 162.41 249.216 163.655 249.452 165ZM279.541 170.455C279.541 173.485 279.001 176.122 277.922 178.366C276.842 180.601 275.356 182.334 273.462 183.565C271.577 184.787 269.409 185.398 266.956 185.398C264.503 185.398 262.33 184.787 260.436 183.565C258.552 182.334 257.07 180.601 255.99 178.366C254.92 176.122 254.385 173.485 254.385 170.455C254.385 167.424 254.92 164.792 255.99 162.557C257.07 160.312 258.556 158.58 260.45 157.358C262.344 156.127 264.513 155.511 266.956 155.511C269.409 155.511 271.577 156.127 273.462 157.358C275.356 158.58 276.842 160.312 277.922 162.557C279.001 164.792 279.541 167.424 279.541 170.455ZM276.956 170.455C276.956 167.85 276.52 165.62 275.649 163.764C274.778 161.899 273.589 160.473 272.084 159.489C270.578 158.504 268.869 158.011 266.956 158.011C265.053 158.011 263.348 158.504 261.842 159.489C260.337 160.473 259.143 161.894 258.263 163.75C257.392 165.606 256.956 167.841 256.956 170.455C256.956 173.059 257.392 175.289 258.263 177.145C259.134 179.001 260.322 180.426 261.828 181.42C263.334 182.405 265.043 182.898 266.956 182.898C268.869 182.898 270.578 182.405 272.084 181.42C273.599 180.436 274.792 179.015 275.663 177.159C276.535 175.294 276.965 173.059 276.956 170.455ZM285.965 155.909H289.033L299.587 181.25H299.843L310.397 155.909H313.465V185H310.965V161.52H310.738L300.923 185H298.508L288.692 161.52H288.465V185H285.965V155.909Z" fill="black"/>
</svg>
