<svg width="174" height="44" viewBox="0 0 174 44" fill="none" xmlns="http://www.w3.org/2000/svg">
<rect width="174" height="44" fill="black"/>
<path d="M12 11.7373V31.2128L26.8 40.4255C27.4029 40.8008 28.0979 40.9997 28.807 40.9998H29.552C30.2447 41 30.9243 40.8105 31.518 40.4517L46.492 31.3928V27.0741L31.436 36.5161C30.8233 36.9001 30.1149 37.1014 29.393 37.0965H28.822C28.103 37.0914 27.4 36.8823 26.794 36.493L15.494 29.2355V25.7727L26.815 32.7677C27.4127 33.135 28.0995 33.3295 28.8 33.3299H29.566C30.2571 33.3338 30.9363 33.1489 31.531 32.7948L46.504 23.8748V19.4223L31.558 28.9609C30.9468 29.3511 30.2379 29.5583 29.514 29.5583H28.848C28.1201 29.5584 27.4074 29.349 26.794 28.9549L15.458 21.6712L15.368 17.9831L26.817 25.0153C27.4134 25.385 28.0995 25.5823 28.8 25.5856H29.544C30.2455 25.5856 30.9333 25.3911 31.532 25.0234L46.5 15.8298V11.7363L31.551 21.2136C30.9421 21.5998 30.2369 21.8048 29.517 21.805H28.841C28.1152 21.8038 27.4047 21.5944 26.793 21.2015L12 11.7373Z" fill="white"/>
<path d="M33.4735 7.6647L22.6255 14.186L18.5605 11.7863L33.4475 3L33.4735 7.6647Z" fill="white"/>
<path d="M40.126 11.9899L29.274 18.5122L25.209 16.1125L40.096 7.32617L40.126 11.9899Z" fill="white"/>
<path d="M62.0707 10.2311H78.9947V8.59375H62.0707C60.3871 8.59561 58.7731 9.26908 57.5826 10.4664C56.3922 11.6637 55.7226 13.2871 55.7207 14.9803V27.3893C55.7226 29.0826 56.3922 30.7059 57.5826 31.9032C58.7731 33.1005 60.3871 33.774 62.0707 33.7759H78.9947V32.1385H62.0707C60.8185 32.1372 59.6179 31.6363 58.7325 30.7457C57.8471 29.8552 57.349 28.6477 57.3477 27.3883V22.0719H77.3677V20.3872H57.3477V14.9793C57.3496 13.7202 57.8478 12.5133 58.7332 11.6232C59.6186 10.7331 60.8188 10.2325 62.0707 10.2311Z" fill="white"/>
<path d="M115.782 11.5865H132.707V8.63965H115.782C114.098 8.64178 112.484 9.31533 111.294 10.5126C110.103 11.7098 109.434 13.333 109.432 15.0262V27.4352C109.434 29.1284 110.103 30.7516 111.294 31.9488C112.484 33.1461 114.098 33.8196 115.782 33.8218H132.707V30.8749H118.387C114.207 30.6466 113.664 28.6824 113.664 27.4352V22.7735H131.08V19.7794H113.664V15.0262C113.664 12.4072 115.219 11.677 115.782 11.5865Z" fill="white"/>
<path d="M107.722 11.7537V8.59863H81.5216V11.7537H102.01L80.0566 30.6166V33.7717H107.722V30.6166H85.6326L107.722 11.7537Z" fill="white"/>
<path d="M140.33 8.63965H134.73V33.8409H139.274V12.5983C139.275 12.474 139.299 12.351 139.348 12.2365C139.396 12.122 139.467 12.0185 139.555 11.932C139.644 11.8455 139.749 11.7779 139.865 11.733C139.98 11.6882 140.103 11.6671 140.226 11.671L140.542 11.6811C140.68 11.6854 140.815 11.7207 140.938 11.7844C141.06 11.8481 141.166 11.9386 141.249 12.0492L157.422 33.6126H162.004V8.63965H158.071L158.08 28.7186L144.758 10.8664C144.243 10.1751 143.574 9.61405 142.806 9.22757C142.037 8.84109 141.19 8.6398 140.33 8.63965Z" fill="white"/>
</svg>
