<svg width="300" height="86" viewBox="0 0 300 86" fill="none" xmlns="http://www.w3.org/2000/svg">
<path fill-rule="evenodd" clip-rule="evenodd" d="M213.368 39.434H215.702C220.06 39.434 223.026 38.8874 224.615 37.7821C226.197 36.6767 226.99 34.7708 226.99 32.0788C226.99 29.8029 226.33 28.2041 224.997 27.285C223.664 26.3659 221.084 25.9064 217.272 25.9064H215.032L213.368 39.434ZM210.064 66.1604H203.135L208.949 19.2091H218.118C221.652 19.2091 224.192 19.4268 225.742 19.8549C227.29 20.2806 228.673 21.0037 229.883 22.0317C231.215 23.1491 232.226 24.5278 232.94 26.1918C233.641 27.8438 233.994 29.7037 233.994 31.7499C233.994 34.1686 233.581 36.3357 232.763 38.2513C231.948 40.1669 230.77 41.7656 229.21 43.0572C227.89 44.1625 226.32 44.9486 224.533 45.4202C222.736 45.8919 219.956 46.1313 216.208 46.1313H212.553L210.064 66.1604ZM224.881 66.1604L250.524 17.3709L266.707 66.1604H259.509L255.905 55.0611H238.276L232.43 66.1604H224.881ZM241.052 48.8233H254.004L250.587 37.2113C250.422 36.6647 250.255 35.9197 250.069 35.0006C249.883 34.0815 249.667 32.877 249.409 31.3799C248.964 32.4949 248.521 33.5446 248.086 34.5411C247.653 35.5375 247.229 36.4687 246.806 37.3443L241.052 48.8233ZM262.82 19.2091H270.318L277.702 34.9571C277.93 35.3852 278.312 36.326 278.861 37.7821C279.076 38.3505 279.253 38.7882 279.366 39.0954C279.676 38.5149 280.027 37.8909 280.431 37.2113C280.832 36.5437 281.35 35.7238 281.969 34.7612L292.079 19.2091H300L282.269 45.2775L279.676 66.1604H272.684L275.349 45.026L262.82 19.2091Z" fill="#808080"/>
<path d="M107.469 66.2426L126.569 30.9517H114.996L116.79 19.1244H145.481L126.569 54.1492H138.389L136.563 66.2426H107.469ZM143.805 66.2426L150.833 19.1244H163.214L156.174 66.2426H143.805ZM164.772 66.2426L171.813 19.1244H184.182L181.258 38.8052L191.046 19.1244H203.655L191.348 40.878L196.936 66.2426H183.509L180.377 44.8083L177.163 66.2426H164.772Z" fill="#FC5857"/>
<path fill-rule="evenodd" clip-rule="evenodd" d="M70.8574 20.2128L50.2503 33.2713L49.2442 57.6466L48.1001 33.3487L27.6309 20.2128L49.2442 31.5274L70.8574 20.2128Z" fill="#FC5857"/>
<path fill-rule="evenodd" clip-rule="evenodd" d="M41.8575 85.2799L49.2442 75.8278L56.6284 85.2799L72.4465 46.1313L98.4859 12.802L86.5885 11.1283L91.0848 0L49.2442 5.87979L7.40114 0L11.8999 11.1283L0 12.802L26.0394 46.1313L41.8575 85.2799ZM49.7642 75.1626L70.6131 48.4774L56.3986 83.6546L49.7642 75.1626ZM85.7492 11.0122L52.9447 6.3998L52.1925 6.2958L89.7908 1.011L85.7492 11.0122ZM12.2143 11.9144L24.6293 42.6412L24.9244 43.3692L1.52134 13.4164L12.2143 11.9144ZM48.7217 75.1626L27.8728 48.4774L42.0873 83.6546L48.7217 75.1626ZM12.7367 11.0122L45.5412 6.3998L46.2934 6.2958L8.69513 1.011L12.7367 11.0122ZM86.2692 11.9144L73.8566 42.6412L73.5615 43.3692L96.9646 13.4164L86.2692 11.9144ZM49.2442 74.4951L26.7578 45.7177L13.0536 11.7959L49.2442 6.70939L85.4323 11.7959L71.7281 45.7177L49.2442 74.4951Z" fill="#808080"/>
</svg>
